G04 Layer: BottomLayer*
G04 EasyEDA v6.3.21, 2020-02-02T17:40:02+08:00*
G04 1dbfad1c9a864778b0d2112e72029e1b,1a72cfc7dc544dba9386ef7e18e6054e,10*
G04 Gerber Generator version 0.2*
G04 Scale: 100 percent, Rotated: No, Reflected: No *
G04 Dimensions in inches *
G04 leading zeros omitted , absolute positions ,2 integer and 4 decimal *
%FSLAX24Y24*%
%MOIN*%
G90*
G70D02*

%ADD10C,0.010000*%
%ADD11C,0.012000*%
%ADD16C,0.024000*%
%ADD24C,0.200000*%

%LPD*%
G54D10*
G01X7910Y357D02*
G01X6960Y1307D01*
G01X6960Y1307D02*
G01X6935Y1332D01*
G01X6935Y1332D02*
G01X5685Y2582D01*
G01X5470Y2582D02*
G01X3214Y313D01*
G01X3214Y313D02*
G01X3208Y307D01*
G01X2710Y407D02*
G01X410Y2707D01*
G01X285Y3217D02*
G01X2566Y5482D01*
G01X2590Y5666D02*
G01X2583Y5677D01*
G01X2560Y5707D02*
G01X260Y8007D01*
G01X154Y8117D02*
G01X151Y20347D01*
G01X903Y21098D02*
G01X34529Y21098D01*
G01X34554Y21100D02*
G01X34561Y21102D01*
G01X35301Y20350D02*
G01X35301Y900D01*
G01X34553Y151D02*
G01X34503Y151D01*
G01X34503Y151D02*
G01X8953Y151D01*
G01X8953Y151D02*
G01X8203Y151D01*
G01X26253Y2828D02*
G01X26204Y2877D01*
G01X26202Y3295D02*
G01X26198Y3305D01*
G01X26198Y3305D02*
G01X26198Y3691D01*
G01X26198Y3691D02*
G01X26328Y3821D01*
G01X26328Y3821D02*
G01X26338Y3825D01*
G01X25906Y4258D02*
G01X25902Y4248D01*
G01X25902Y4248D02*
G01X25683Y4029D01*
G01X25595Y3815D02*
G01X25595Y3486D01*
G01X25595Y3486D02*
G01X25155Y3925D01*
G01X25155Y3925D02*
G01X25155Y10447D01*
G01X25163Y10942D02*
G01X26617Y12396D01*
G01X26843Y12258D02*
G01X26853Y12254D01*
G01X26853Y12254D02*
G01X27706Y11401D01*
G01X27706Y11401D02*
G01X27706Y11035D01*
G01X27706Y11035D02*
G01X27702Y11026D01*
G01X28314Y11026D02*
G01X28309Y11035D01*
G01X28309Y11035D02*
G01X28309Y11526D01*
G01X28306Y11569D02*
G01X28472Y11404D01*
G01X28472Y11404D02*
G01X28476Y11394D01*
G01X28922Y11839D02*
G01X28912Y11844D01*
G01X28912Y11844D02*
G01X27618Y13139D01*
G01X27397Y13230D02*
G01X26699Y13230D01*
G01X26479Y13139D02*
G01X21223Y7883D01*
G01X21223Y7883D02*
G01X21223Y13776D01*
G01X21223Y13776D02*
G01X21227Y13786D01*
G01X20615Y13786D02*
G01X20620Y13776D01*
G01X20620Y13776D02*
G01X20620Y2685D01*
G01X21223Y2880D02*
G01X21223Y3295D01*
G01X21631Y3851D02*
G01X21628Y3861D01*
G01X21628Y3861D02*
G01X21628Y7407D01*
G01X21628Y7407D02*
G01X24552Y10331D01*
G01X24552Y10331D02*
G01X24552Y3801D01*
G01X24640Y3587D02*
G01X25974Y2254D01*
G01X30923Y4570D02*
G01X30918Y4580D01*
G01X30918Y4580D02*
G01X30918Y5096D01*
G01X30830Y5309D02*
G01X28640Y7499D01*
G01X28640Y7499D02*
G01X30200Y9059D01*
G01X30288Y9272D02*
G01X30288Y11680D01*
G01X30288Y11680D02*
G01X30293Y11689D01*
G01X30293Y12110D02*
G01X30288Y12120D01*
G01X30288Y12120D02*
G01X30288Y13584D01*
G01X30200Y13797D02*
G01X28190Y15806D01*
G01X28190Y15806D02*
G01X28187Y15816D01*
G01X27754Y15384D02*
G01X27764Y15380D01*
G01X27764Y15380D02*
G01X29685Y13459D01*
G01X29685Y13459D02*
G01X29685Y12120D01*
G01X29685Y12120D02*
G01X29681Y12110D01*
G01X29681Y11689D02*
G01X29685Y11680D01*
G01X29685Y11680D02*
G01X29685Y9397D01*
G01X29685Y9397D02*
G01X28204Y7916D01*
G01X27555Y7561D02*
G01X27560Y7551D01*
G01X27560Y7551D02*
G01X27560Y6659D01*
G01X27648Y6445D02*
G01X29114Y4980D01*
G01X29114Y4980D02*
G01X29117Y4970D01*
G01X29550Y5403D02*
G01X29540Y5407D01*
G01X29540Y5407D02*
G01X28163Y6783D01*
G01X28163Y6783D02*
G01X28163Y7123D01*
G01X28163Y7123D02*
G01X30315Y4971D01*
G01X30315Y4971D02*
G01X30315Y4580D01*
G01X30315Y4580D02*
G01X30310Y4570D01*
G01X14753Y6798D02*
G01X17903Y6798D01*
G01X18154Y7050D02*
G01X18154Y13750D01*
G01X17903Y14001D02*
G01X14753Y14001D01*
G01X14501Y13750D02*
G01X14501Y7050D01*
G01X2865Y230D02*
G01X3128Y230D01*
G01X7996Y230D02*
G01X34887Y230D01*
G01X2687Y430D02*
G01X3330Y430D01*
G01X7837Y430D02*
G01X35137Y430D01*
G01X2487Y630D02*
G01X3529Y630D01*
G01X7637Y630D02*
G01X35253Y630D01*
G01X2287Y830D02*
G01X3728Y830D01*
G01X7437Y830D02*
G01X35301Y830D01*
G01X2087Y1030D02*
G01X3927Y1030D01*
G01X7237Y1030D02*
G01X35301Y1030D01*
G01X1887Y1230D02*
G01X4126Y1230D01*
G01X7037Y1230D02*
G01X35301Y1230D01*
G01X1687Y1430D02*
G01X4325Y1430D01*
G01X6837Y1430D02*
G01X35301Y1430D01*
G01X1487Y1630D02*
G01X4524Y1630D01*
G01X6637Y1630D02*
G01X35301Y1630D01*
G01X1287Y1830D02*
G01X4723Y1830D01*
G01X6437Y1830D02*
G01X35301Y1830D01*
G01X1087Y2030D02*
G01X4922Y2030D01*
G01X6237Y2030D02*
G01X35301Y2030D01*
G01X887Y2230D02*
G01X5120Y2230D01*
G01X6037Y2230D02*
G01X20929Y2230D01*
G01X21032Y2230D02*
G01X26001Y2230D01*
G01X26627Y2230D02*
G01X35301Y2230D01*
G01X687Y2430D02*
G01X5319Y2430D01*
G01X5837Y2430D02*
G01X20650Y2430D01*
G01X21312Y2430D02*
G01X25798Y2430D01*
G01X26710Y2430D02*
G01X35301Y2430D01*
G01X487Y2630D02*
G01X20611Y2630D01*
G01X21351Y2630D02*
G01X25598Y2630D01*
G01X26675Y2630D02*
G01X35301Y2630D01*
G01X252Y2830D02*
G01X20620Y2830D01*
G01X21271Y2830D02*
G01X25398Y2830D01*
G01X26251Y2830D02*
G01X26260Y2830D01*
G01X26421Y2830D02*
G01X35301Y2830D01*
G01X195Y3030D02*
G01X20620Y3030D01*
G01X21223Y3030D02*
G01X25198Y3030D01*
G01X26264Y3030D02*
G01X35301Y3030D01*
G01X297Y3230D02*
G01X20620Y3230D01*
G01X21223Y3230D02*
G01X24998Y3230D01*
G01X26238Y3230D02*
G01X35301Y3230D01*
G01X499Y3430D02*
G01X20620Y3430D01*
G01X21612Y3430D02*
G01X24798Y3430D01*
G01X26198Y3430D02*
G01X35301Y3430D01*
G01X700Y3630D02*
G01X20620Y3630D01*
G01X21687Y3630D02*
G01X24605Y3630D01*
G01X25451Y3630D02*
G01X25595Y3630D01*
G01X26198Y3630D02*
G01X35301Y3630D01*
G01X902Y3830D02*
G01X20620Y3830D01*
G01X21644Y3830D02*
G01X24552Y3830D01*
G01X25251Y3830D02*
G01X25595Y3830D01*
G01X26361Y3830D02*
G01X35301Y3830D01*
G01X1103Y4030D02*
G01X20620Y4030D01*
G01X21628Y4030D02*
G01X24552Y4030D01*
G01X25155Y4030D02*
G01X25684Y4030D01*
G01X26606Y4030D02*
G01X30445Y4030D01*
G01X30788Y4030D02*
G01X35301Y4030D01*
G01X1305Y4230D02*
G01X20620Y4230D01*
G01X21628Y4230D02*
G01X24552Y4230D01*
G01X25155Y4230D02*
G01X25884Y4230D01*
G01X26640Y4230D02*
G01X30268Y4230D01*
G01X30965Y4230D02*
G01X35301Y4230D01*
G01X1506Y4430D02*
G01X20620Y4430D01*
G01X21628Y4430D02*
G01X24552Y4430D01*
G01X25155Y4430D02*
G01X25987Y4430D01*
G01X26555Y4430D02*
G01X30252Y4430D01*
G01X30981Y4430D02*
G01X35301Y4430D01*
G01X1708Y4630D02*
G01X20620Y4630D01*
G01X21628Y4630D02*
G01X24552Y4630D01*
G01X25155Y4630D02*
G01X30315Y4630D01*
G01X30918Y4630D02*
G01X35301Y4630D01*
G01X1909Y4830D02*
G01X20620Y4830D01*
G01X21628Y4830D02*
G01X24552Y4830D01*
G01X25155Y4830D02*
G01X29175Y4830D01*
G01X29790Y4830D02*
G01X30315Y4830D01*
G01X30918Y4830D02*
G01X35301Y4830D01*
G01X2111Y5030D02*
G01X20620Y5030D01*
G01X21628Y5030D02*
G01X24552Y5030D01*
G01X25155Y5030D02*
G01X29064Y5030D01*
G01X29854Y5030D02*
G01X30256Y5030D01*
G01X30918Y5030D02*
G01X35301Y5030D01*
G01X2312Y5230D02*
G01X20620Y5230D01*
G01X21628Y5230D02*
G01X24552Y5230D01*
G01X25155Y5230D02*
G01X28864Y5230D01*
G01X29800Y5230D02*
G01X30056Y5230D01*
G01X30887Y5230D02*
G01X35301Y5230D01*
G01X2514Y5430D02*
G01X20620Y5430D01*
G01X21628Y5430D02*
G01X24552Y5430D01*
G01X25155Y5430D02*
G01X28664Y5430D01*
G01X29517Y5430D02*
G01X29856Y5430D01*
G01X30709Y5430D02*
G01X35301Y5430D01*
G01X2605Y5630D02*
G01X20620Y5630D01*
G01X21628Y5630D02*
G01X24552Y5630D01*
G01X25155Y5630D02*
G01X28464Y5630D01*
G01X29317Y5630D02*
G01X29656Y5630D01*
G01X30509Y5630D02*
G01X35301Y5630D01*
G01X2437Y5830D02*
G01X20620Y5830D01*
G01X21628Y5830D02*
G01X24552Y5830D01*
G01X25155Y5830D02*
G01X28264Y5830D01*
G01X29117Y5830D02*
G01X29456Y5830D01*
G01X30309Y5830D02*
G01X35301Y5830D01*
G01X2237Y6030D02*
G01X20620Y6030D01*
G01X21628Y6030D02*
G01X24552Y6030D01*
G01X25155Y6030D02*
G01X28064Y6030D01*
G01X28917Y6030D02*
G01X29256Y6030D01*
G01X30109Y6030D02*
G01X35301Y6030D01*
G01X2037Y6230D02*
G01X20620Y6230D01*
G01X21628Y6230D02*
G01X24552Y6230D01*
G01X25155Y6230D02*
G01X27864Y6230D01*
G01X28717Y6230D02*
G01X29056Y6230D01*
G01X29909Y6230D02*
G01X35301Y6230D01*
G01X1837Y6430D02*
G01X20620Y6430D01*
G01X21628Y6430D02*
G01X24552Y6430D01*
G01X25155Y6430D02*
G01X27664Y6430D01*
G01X28517Y6430D02*
G01X28856Y6430D01*
G01X29709Y6430D02*
G01X35301Y6430D01*
G01X1637Y6630D02*
G01X20620Y6630D01*
G01X21628Y6630D02*
G01X24552Y6630D01*
G01X25155Y6630D02*
G01X27561Y6630D01*
G01X28317Y6630D02*
G01X28656Y6630D01*
G01X29509Y6630D02*
G01X35301Y6630D01*
G01X1437Y6830D02*
G01X14631Y6830D01*
G01X18025Y6830D02*
G01X20620Y6830D01*
G01X21628Y6830D02*
G01X24552Y6830D01*
G01X25155Y6830D02*
G01X27560Y6830D01*
G01X28163Y6830D02*
G01X28456Y6830D01*
G01X29309Y6830D02*
G01X35301Y6830D01*
G01X1237Y7030D02*
G01X14502Y7030D01*
G01X18154Y7030D02*
G01X20620Y7030D01*
G01X21628Y7030D02*
G01X24552Y7030D01*
G01X25155Y7030D02*
G01X27560Y7030D01*
G01X28163Y7030D02*
G01X28256Y7030D01*
G01X29109Y7030D02*
G01X35301Y7030D01*
G01X1037Y7230D02*
G01X14501Y7230D01*
G01X18154Y7230D02*
G01X20620Y7230D01*
G01X21628Y7230D02*
G01X24552Y7230D01*
G01X25155Y7230D02*
G01X27560Y7230D01*
G01X28909Y7230D02*
G01X35301Y7230D01*
G01X837Y7430D02*
G01X14501Y7430D01*
G01X18154Y7430D02*
G01X20620Y7430D01*
G01X21651Y7430D02*
G01X24552Y7430D01*
G01X25155Y7430D02*
G01X27560Y7430D01*
G01X28709Y7430D02*
G01X35301Y7430D01*
G01X637Y7630D02*
G01X14501Y7630D01*
G01X18154Y7630D02*
G01X20620Y7630D01*
G01X21851Y7630D02*
G01X24552Y7630D01*
G01X25155Y7630D02*
G01X27518Y7630D01*
G01X28771Y7630D02*
G01X35301Y7630D01*
G01X437Y7830D02*
G01X14501Y7830D01*
G01X18154Y7830D02*
G01X20620Y7830D01*
G01X22051Y7830D02*
G01X24552Y7830D01*
G01X25155Y7830D02*
G01X27495Y7830D01*
G01X28971Y7830D02*
G01X35301Y7830D01*
G01X231Y8030D02*
G01X14501Y8030D01*
G01X18154Y8030D02*
G01X20620Y8030D01*
G01X21223Y8030D02*
G01X21370Y8030D01*
G01X22251Y8030D02*
G01X24552Y8030D01*
G01X25155Y8030D02*
G01X27595Y8030D01*
G01X28129Y8030D02*
G01X28318Y8030D01*
G01X29171Y8030D02*
G01X35301Y8030D01*
G01X154Y8230D02*
G01X14501Y8230D01*
G01X18154Y8230D02*
G01X20620Y8230D01*
G01X21223Y8230D02*
G01X21570Y8230D01*
G01X22451Y8230D02*
G01X24552Y8230D01*
G01X25155Y8230D02*
G01X28518Y8230D01*
G01X29371Y8230D02*
G01X35301Y8230D01*
G01X154Y8430D02*
G01X14501Y8430D01*
G01X18154Y8430D02*
G01X20620Y8430D01*
G01X21223Y8430D02*
G01X21770Y8430D01*
G01X22651Y8430D02*
G01X24552Y8430D01*
G01X25155Y8430D02*
G01X28718Y8430D01*
G01X29571Y8430D02*
G01X35301Y8430D01*
G01X154Y8630D02*
G01X14501Y8630D01*
G01X18154Y8630D02*
G01X20620Y8630D01*
G01X21223Y8630D02*
G01X21970Y8630D01*
G01X22851Y8630D02*
G01X24552Y8630D01*
G01X25155Y8630D02*
G01X28918Y8630D01*
G01X29771Y8630D02*
G01X35301Y8630D01*
G01X154Y8830D02*
G01X14501Y8830D01*
G01X18154Y8830D02*
G01X20620Y8830D01*
G01X21223Y8830D02*
G01X22170Y8830D01*
G01X23051Y8830D02*
G01X24552Y8830D01*
G01X25155Y8830D02*
G01X29118Y8830D01*
G01X29971Y8830D02*
G01X35301Y8830D01*
G01X154Y9030D02*
G01X14501Y9030D01*
G01X18154Y9030D02*
G01X20620Y9030D01*
G01X21223Y9030D02*
G01X22370Y9030D01*
G01X23251Y9030D02*
G01X24552Y9030D01*
G01X25155Y9030D02*
G01X29318Y9030D01*
G01X30171Y9030D02*
G01X35301Y9030D01*
G01X154Y9230D02*
G01X14501Y9230D01*
G01X18154Y9230D02*
G01X20620Y9230D01*
G01X21223Y9230D02*
G01X22570Y9230D01*
G01X23451Y9230D02*
G01X24552Y9230D01*
G01X25155Y9230D02*
G01X29518Y9230D01*
G01X30285Y9230D02*
G01X33512Y9230D01*
G01X33719Y9230D02*
G01X35301Y9230D01*
G01X154Y9430D02*
G01X14501Y9430D01*
G01X18154Y9430D02*
G01X20620Y9430D01*
G01X21223Y9430D02*
G01X22770Y9430D01*
G01X23651Y9430D02*
G01X24552Y9430D01*
G01X25155Y9430D02*
G01X29685Y9430D01*
G01X30288Y9430D02*
G01X33299Y9430D01*
G01X33932Y9430D02*
G01X35301Y9430D01*
G01X154Y9630D02*
G01X14501Y9630D01*
G01X18154Y9630D02*
G01X20620Y9630D01*
G01X21223Y9630D02*
G01X22970Y9630D01*
G01X23851Y9630D02*
G01X24552Y9630D01*
G01X25155Y9630D02*
G01X29685Y9630D01*
G01X30288Y9630D02*
G01X33284Y9630D01*
G01X33947Y9630D02*
G01X35301Y9630D01*
G01X154Y9830D02*
G01X14501Y9830D01*
G01X18154Y9830D02*
G01X20620Y9830D01*
G01X21223Y9830D02*
G01X23170Y9830D01*
G01X24051Y9830D02*
G01X24552Y9830D01*
G01X25155Y9830D02*
G01X29685Y9830D01*
G01X30288Y9830D02*
G01X33417Y9830D01*
G01X33814Y9830D02*
G01X35301Y9830D01*
G01X154Y10030D02*
G01X14501Y10030D01*
G01X18154Y10030D02*
G01X20620Y10030D01*
G01X21223Y10030D02*
G01X23370Y10030D01*
G01X24251Y10030D02*
G01X24552Y10030D01*
G01X25155Y10030D02*
G01X29685Y10030D01*
G01X30288Y10030D02*
G01X35301Y10030D01*
G01X154Y10230D02*
G01X14501Y10230D01*
G01X18154Y10230D02*
G01X20620Y10230D01*
G01X21223Y10230D02*
G01X23570Y10230D01*
G01X24451Y10230D02*
G01X24552Y10230D01*
G01X25155Y10230D02*
G01X29685Y10230D01*
G01X30288Y10230D02*
G01X35301Y10230D01*
G01X154Y10430D02*
G01X14501Y10430D01*
G01X18154Y10430D02*
G01X20620Y10430D01*
G01X21223Y10430D02*
G01X23770Y10430D01*
G01X25155Y10430D02*
G01X29685Y10430D01*
G01X30288Y10430D02*
G01X35301Y10430D01*
G01X154Y10630D02*
G01X14501Y10630D01*
G01X18154Y10630D02*
G01X20620Y10630D01*
G01X21223Y10630D02*
G01X23970Y10630D01*
G01X25247Y10630D02*
G01X27686Y10630D01*
G01X28330Y10630D02*
G01X29685Y10630D01*
G01X30288Y10630D02*
G01X35301Y10630D01*
G01X154Y10830D02*
G01X14501Y10830D01*
G01X18154Y10830D02*
G01X20620Y10830D01*
G01X21223Y10830D02*
G01X24170Y10830D01*
G01X25229Y10830D02*
G01X27637Y10830D01*
G01X28379Y10830D02*
G01X29685Y10830D01*
G01X30288Y10830D02*
G01X35301Y10830D01*
G01X154Y11030D02*
G01X14501Y11030D01*
G01X18154Y11030D02*
G01X20620Y11030D01*
G01X21223Y11030D02*
G01X24370Y11030D01*
G01X25251Y11030D02*
G01X27704Y11030D01*
G01X28312Y11030D02*
G01X29685Y11030D01*
G01X30288Y11030D02*
G01X33353Y11030D01*
G01X33878Y11030D02*
G01X35301Y11030D01*
G01X153Y11230D02*
G01X14501Y11230D01*
G01X18154Y11230D02*
G01X20620Y11230D01*
G01X21223Y11230D02*
G01X24570Y11230D01*
G01X25451Y11230D02*
G01X27706Y11230D01*
G01X28309Y11230D02*
G01X28561Y11230D01*
G01X29115Y11230D02*
G01X29685Y11230D01*
G01X30288Y11230D02*
G01X33276Y11230D01*
G01X33956Y11230D02*
G01X35301Y11230D01*
G01X153Y11430D02*
G01X14501Y11430D01*
G01X18154Y11430D02*
G01X20620Y11430D01*
G01X21223Y11430D02*
G01X24770Y11430D01*
G01X25651Y11430D02*
G01X27678Y11430D01*
G01X28309Y11430D02*
G01X28445Y11430D01*
G01X29207Y11430D02*
G01X29685Y11430D01*
G01X30288Y11430D02*
G01X33330Y11430D01*
G01X33902Y11430D02*
G01X35301Y11430D01*
G01X153Y11630D02*
G01X14501Y11630D01*
G01X18154Y11630D02*
G01X20620Y11630D01*
G01X21223Y11630D02*
G01X24970Y11630D01*
G01X25851Y11630D02*
G01X27478Y11630D01*
G01X29177Y11630D02*
G01X29685Y11630D01*
G01X30288Y11630D02*
G01X35301Y11630D01*
G01X153Y11830D02*
G01X14501Y11830D01*
G01X18154Y11830D02*
G01X20620Y11830D01*
G01X21223Y11830D02*
G01X25170Y11830D01*
G01X26051Y11830D02*
G01X27278Y11830D01*
G01X28956Y11830D02*
G01X29622Y11830D01*
G01X30352Y11830D02*
G01X35301Y11830D01*
G01X153Y12030D02*
G01X14501Y12030D01*
G01X18154Y12030D02*
G01X20620Y12030D01*
G01X21223Y12030D02*
G01X25370Y12030D01*
G01X26251Y12030D02*
G01X27078Y12030D01*
G01X28726Y12030D02*
G01X29639Y12030D01*
G01X30335Y12030D02*
G01X35301Y12030D01*
G01X153Y12230D02*
G01X14501Y12230D01*
G01X18154Y12230D02*
G01X20620Y12230D01*
G01X21223Y12230D02*
G01X25570Y12230D01*
G01X26451Y12230D02*
G01X26878Y12230D01*
G01X28526Y12230D02*
G01X29685Y12230D01*
G01X30288Y12230D02*
G01X35301Y12230D01*
G01X153Y12430D02*
G01X14501Y12430D01*
G01X18154Y12430D02*
G01X20620Y12430D01*
G01X21223Y12430D02*
G01X25770Y12430D01*
G01X28326Y12430D02*
G01X29685Y12430D01*
G01X30288Y12430D02*
G01X35301Y12430D01*
G01X153Y12630D02*
G01X14501Y12630D01*
G01X18154Y12630D02*
G01X20620Y12630D01*
G01X21223Y12630D02*
G01X25970Y12630D01*
G01X28126Y12630D02*
G01X29685Y12630D01*
G01X30288Y12630D02*
G01X35301Y12630D01*
G01X153Y12830D02*
G01X14501Y12830D01*
G01X18154Y12830D02*
G01X20620Y12830D01*
G01X21223Y12830D02*
G01X26170Y12830D01*
G01X27926Y12830D02*
G01X29685Y12830D01*
G01X30288Y12830D02*
G01X35301Y12830D01*
G01X153Y13030D02*
G01X14501Y13030D01*
G01X18154Y13030D02*
G01X20620Y13030D01*
G01X21223Y13030D02*
G01X26370Y13030D01*
G01X27726Y13030D02*
G01X29685Y13030D01*
G01X30288Y13030D02*
G01X35301Y13030D01*
G01X153Y13230D02*
G01X14501Y13230D01*
G01X18154Y13230D02*
G01X20620Y13230D01*
G01X21223Y13230D02*
G01X26699Y13230D01*
G01X27397Y13230D02*
G01X29685Y13230D01*
G01X30288Y13230D02*
G01X35301Y13230D01*
G01X153Y13430D02*
G01X14501Y13430D01*
G01X18154Y13430D02*
G01X20620Y13430D01*
G01X21223Y13430D02*
G01X29685Y13430D01*
G01X30288Y13430D02*
G01X35301Y13430D01*
G01X153Y13630D02*
G01X14501Y13630D01*
G01X18154Y13630D02*
G01X20620Y13630D01*
G01X21223Y13630D02*
G01X29514Y13630D01*
G01X30285Y13630D02*
G01X35301Y13630D01*
G01X153Y13830D02*
G01X14514Y13830D01*
G01X18141Y13830D02*
G01X20589Y13830D01*
G01X21253Y13830D02*
G01X29314Y13830D01*
G01X30167Y13830D02*
G01X35301Y13830D01*
G01X153Y14030D02*
G01X20551Y14030D01*
G01X21291Y14030D02*
G01X29114Y14030D01*
G01X29967Y14030D02*
G01X35301Y14030D01*
G01X153Y14230D02*
G01X20632Y14230D01*
G01X21210Y14230D02*
G01X28914Y14230D01*
G01X29767Y14230D02*
G01X35301Y14230D01*
G01X153Y14430D02*
G01X28714Y14430D01*
G01X29567Y14430D02*
G01X35301Y14430D01*
G01X153Y14630D02*
G01X28514Y14630D01*
G01X29367Y14630D02*
G01X35301Y14630D01*
G01X152Y14830D02*
G01X28314Y14830D01*
G01X29167Y14830D02*
G01X35301Y14830D01*
G01X152Y15030D02*
G01X28114Y15030D01*
G01X28967Y15030D02*
G01X35301Y15030D01*
G01X152Y15230D02*
G01X27914Y15230D01*
G01X28767Y15230D02*
G01X35301Y15230D01*
G01X152Y15430D02*
G01X27631Y15430D01*
G01X28567Y15430D02*
G01X35301Y15430D01*
G01X152Y15630D02*
G01X27470Y15630D01*
G01X28367Y15630D02*
G01X35301Y15630D01*
G01X152Y15830D02*
G01X27459Y15830D01*
G01X28184Y15830D02*
G01X35301Y15830D01*
G01X152Y16030D02*
G01X27579Y16030D01*
G01X28064Y16030D02*
G01X35301Y16030D01*
G01X152Y16230D02*
G01X35301Y16230D01*
G01X152Y16430D02*
G01X35301Y16430D01*
G01X152Y16630D02*
G01X35301Y16630D01*
G01X152Y16830D02*
G01X35301Y16830D01*
G01X152Y17030D02*
G01X35301Y17030D01*
G01X152Y17230D02*
G01X35301Y17230D01*
G01X152Y17430D02*
G01X35301Y17430D01*
G01X152Y17630D02*
G01X35301Y17630D01*
G01X152Y17830D02*
G01X35301Y17830D01*
G01X152Y18030D02*
G01X32959Y18030D01*
G01X33847Y18030D02*
G01X35301Y18030D01*
G01X152Y18230D02*
G01X32612Y18230D01*
G01X34194Y18230D02*
G01X35301Y18230D01*
G01X152Y18430D02*
G01X32416Y18430D01*
G01X34389Y18430D02*
G01X35301Y18430D01*
G01X151Y18630D02*
G01X32289Y18630D01*
G01X34517Y18630D02*
G01X35301Y18630D01*
G01X151Y18830D02*
G01X32207Y18830D01*
G01X34598Y18830D02*
G01X35301Y18830D01*
G01X151Y19030D02*
G01X32163Y19030D01*
G01X34643Y19030D02*
G01X35301Y19030D01*
G01X151Y19230D02*
G01X32152Y19230D01*
G01X34654Y19230D02*
G01X35301Y19230D01*
G01X151Y19430D02*
G01X32173Y19430D01*
G01X34633Y19430D02*
G01X35301Y19430D01*
G01X151Y19630D02*
G01X32227Y19630D01*
G01X34578Y19630D02*
G01X35301Y19630D01*
G01X151Y19830D02*
G01X32321Y19830D01*
G01X34484Y19830D02*
G01X35301Y19830D01*
G01X151Y20030D02*
G01X32466Y20030D01*
G01X34339Y20030D02*
G01X35301Y20030D01*
G01X151Y20230D02*
G01X32692Y20230D01*
G01X34114Y20230D02*
G01X35301Y20230D01*
G01X156Y20430D02*
G01X33172Y20430D01*
G01X33634Y20430D02*
G01X35297Y20430D01*
G01X206Y20630D02*
G01X35247Y20630D01*
G01X327Y20830D02*
G01X35128Y20830D01*
G01X589Y21030D02*
G01X34870Y21030D01*
G01X35203Y525D02*
G01X35203Y20722D01*
G01X35003Y301D02*
G01X35003Y20950D01*
G01X34803Y194D02*
G01X34803Y21058D01*
G01X34603Y153D02*
G01X34603Y18845D01*
G01X34603Y19555D02*
G01X34603Y21100D01*
G01X34403Y151D02*
G01X34403Y18447D01*
G01X34403Y19952D02*
G01X34403Y21098D01*
G01X34203Y151D02*
G01X34203Y18237D01*
G01X34203Y20162D02*
G01X34203Y21098D01*
G01X34003Y151D02*
G01X34003Y18102D01*
G01X34003Y20298D02*
G01X34003Y21098D01*
G01X33803Y151D02*
G01X33803Y9270D01*
G01X33803Y9838D02*
G01X33803Y10962D01*
G01X33803Y11530D02*
G01X33803Y18014D01*
G01X33803Y20386D02*
G01X33803Y21098D01*
G01X33603Y151D02*
G01X33603Y9214D01*
G01X33603Y9894D02*
G01X33603Y10906D01*
G01X33603Y11586D02*
G01X33603Y17964D01*
G01X33603Y20435D02*
G01X33603Y21098D01*
G01X33403Y151D02*
G01X33403Y9289D01*
G01X33403Y9819D02*
G01X33403Y10981D01*
G01X33403Y11511D02*
G01X33403Y17948D01*
G01X33403Y20451D02*
G01X33403Y21098D01*
G01X33203Y151D02*
G01X33203Y17964D01*
G01X33203Y20435D02*
G01X33203Y21098D01*
G01X33003Y151D02*
G01X33003Y18014D01*
G01X33003Y20386D02*
G01X33003Y21098D01*
G01X32803Y151D02*
G01X32803Y18102D01*
G01X32803Y20298D02*
G01X32803Y21098D01*
G01X32603Y151D02*
G01X32603Y18237D01*
G01X32603Y20162D02*
G01X32603Y21098D01*
G01X32403Y151D02*
G01X32403Y18447D01*
G01X32403Y19952D02*
G01X32403Y21098D01*
G01X32203Y151D02*
G01X32203Y18845D01*
G01X32203Y19555D02*
G01X32203Y21098D01*
G01X32003Y151D02*
G01X32003Y21098D01*
G01X31803Y151D02*
G01X31803Y21098D01*
G01X31603Y151D02*
G01X31603Y21098D01*
G01X31403Y151D02*
G01X31403Y21098D01*
G01X31203Y151D02*
G01X31203Y21098D01*
G01X31003Y151D02*
G01X31003Y21098D01*
G01X30803Y151D02*
G01X30803Y4038D01*
G01X30803Y5336D02*
G01X30803Y21098D01*
G01X30603Y151D02*
G01X30603Y3988D01*
G01X30603Y5536D02*
G01X30603Y21098D01*
G01X30403Y151D02*
G01X30403Y4056D01*
G01X30403Y5736D02*
G01X30403Y21098D01*
G01X30203Y151D02*
G01X30203Y5083D01*
G01X30203Y5936D02*
G01X30203Y9062D01*
G01X30203Y13794D02*
G01X30203Y21098D01*
G01X30003Y151D02*
G01X30003Y5283D01*
G01X30003Y6136D02*
G01X30003Y8862D01*
G01X30003Y13994D02*
G01X30003Y21098D01*
G01X29803Y151D02*
G01X29803Y4850D01*
G01X29803Y5226D02*
G01X29803Y5483D01*
G01X29803Y6336D02*
G01X29803Y8662D01*
G01X29803Y14194D02*
G01X29803Y21098D01*
G01X29603Y151D02*
G01X29603Y4686D01*
G01X29603Y5389D02*
G01X29603Y5683D01*
G01X29603Y6536D02*
G01X29603Y8462D01*
G01X29603Y9315D02*
G01X29603Y13541D01*
G01X29603Y14394D02*
G01X29603Y21098D01*
G01X29403Y151D02*
G01X29403Y4675D01*
G01X29403Y5544D02*
G01X29403Y5883D01*
G01X29403Y6736D02*
G01X29403Y8262D01*
G01X29403Y9115D02*
G01X29403Y13741D01*
G01X29403Y14594D02*
G01X29403Y21098D01*
G01X29203Y151D02*
G01X29203Y4793D01*
G01X29203Y5744D02*
G01X29203Y6083D01*
G01X29203Y6936D02*
G01X29203Y8062D01*
G01X29203Y8915D02*
G01X29203Y11406D01*
G01X29203Y11549D02*
G01X29203Y13941D01*
G01X29203Y14794D02*
G01X29203Y21098D01*
G01X29003Y151D02*
G01X29003Y5091D01*
G01X29003Y5944D02*
G01X29003Y6283D01*
G01X29003Y7136D02*
G01X29003Y7862D01*
G01X29003Y8715D02*
G01X29003Y11144D01*
G01X29003Y11811D02*
G01X29003Y14141D01*
G01X29003Y14994D02*
G01X29003Y21098D01*
G01X28803Y151D02*
G01X28803Y5291D01*
G01X28803Y6144D02*
G01X28803Y6483D01*
G01X28803Y7336D02*
G01X28803Y7662D01*
G01X28803Y8515D02*
G01X28803Y11108D01*
G01X28803Y11953D02*
G01X28803Y14341D01*
G01X28803Y15194D02*
G01X28803Y21098D01*
G01X28603Y151D02*
G01X28603Y5491D01*
G01X28603Y6344D02*
G01X28603Y6683D01*
G01X28603Y8315D02*
G01X28603Y11190D01*
G01X28603Y12153D02*
G01X28603Y14541D01*
G01X28603Y15394D02*
G01X28603Y21098D01*
G01X28403Y151D02*
G01X28403Y5691D01*
G01X28403Y6544D02*
G01X28403Y6883D01*
G01X28403Y8115D02*
G01X28403Y11472D01*
G01X28403Y12353D02*
G01X28403Y14741D01*
G01X28403Y15594D02*
G01X28403Y21098D01*
G01X28203Y151D02*
G01X28203Y5891D01*
G01X28203Y6744D02*
G01X28203Y7083D01*
G01X28203Y7919D02*
G01X28203Y10499D01*
G01X28203Y12553D02*
G01X28203Y14941D01*
G01X28203Y15794D02*
G01X28203Y21098D01*
G01X28003Y151D02*
G01X28003Y6091D01*
G01X28003Y8115D02*
G01X28003Y10444D01*
G01X28003Y12753D02*
G01X28003Y15141D01*
G01X28003Y16073D02*
G01X28003Y21098D01*
G01X27803Y151D02*
G01X27803Y6291D01*
G01X27803Y8138D02*
G01X27803Y10505D01*
G01X27803Y12953D02*
G01X27803Y15341D01*
G01X27803Y16120D02*
G01X27803Y21098D01*
G01X27603Y151D02*
G01X27603Y6504D01*
G01X27603Y8038D02*
G01X27603Y11505D01*
G01X27603Y13152D02*
G01X27603Y15448D01*
G01X27603Y16049D02*
G01X27603Y21098D01*
G01X27403Y151D02*
G01X27403Y11705D01*
G01X27403Y13230D02*
G01X27403Y21098D01*
G01X27203Y151D02*
G01X27203Y11905D01*
G01X27203Y13230D02*
G01X27203Y21098D01*
G01X27003Y151D02*
G01X27003Y12105D01*
G01X27003Y13230D02*
G01X27003Y21098D01*
G01X26803Y151D02*
G01X26803Y12267D01*
G01X26803Y13230D02*
G01X26803Y21098D01*
G01X26603Y151D02*
G01X26603Y2204D01*
G01X26603Y2731D02*
G01X26603Y4023D01*
G01X26603Y4357D02*
G01X26603Y12382D01*
G01X26603Y13215D02*
G01X26603Y21098D01*
G01X26403Y151D02*
G01X26403Y2101D01*
G01X26403Y2833D02*
G01X26403Y3843D01*
G01X26403Y4537D02*
G01X26403Y12182D01*
G01X26403Y13063D02*
G01X26403Y21098D01*
G01X26203Y151D02*
G01X26203Y2122D01*
G01X26203Y3294D02*
G01X26203Y3696D01*
G01X26203Y4555D02*
G01X26203Y11982D01*
G01X26203Y12863D02*
G01X26203Y21098D01*
G01X26003Y151D02*
G01X26003Y2229D01*
G01X26003Y4447D02*
G01X26003Y11782D01*
G01X26003Y12663D02*
G01X26003Y21098D01*
G01X25803Y151D02*
G01X25803Y2425D01*
G01X25803Y4149D02*
G01X25803Y11582D01*
G01X25803Y12463D02*
G01X25803Y21098D01*
G01X25603Y151D02*
G01X25603Y2625D01*
G01X25603Y3885D02*
G01X25603Y11382D01*
G01X25603Y12263D02*
G01X25603Y21098D01*
G01X25403Y151D02*
G01X25403Y2825D01*
G01X25403Y3678D02*
G01X25403Y11182D01*
G01X25403Y12063D02*
G01X25403Y21098D01*
G01X25203Y151D02*
G01X25203Y3025D01*
G01X25203Y3878D02*
G01X25203Y10512D01*
G01X25203Y10885D02*
G01X25203Y10982D01*
G01X25203Y11863D02*
G01X25203Y21098D01*
G01X25003Y151D02*
G01X25003Y3225D01*
G01X25003Y11663D02*
G01X25003Y21098D01*
G01X24803Y151D02*
G01X24803Y3425D01*
G01X24803Y11463D02*
G01X24803Y21098D01*
G01X24603Y151D02*
G01X24603Y3633D01*
G01X24603Y11263D02*
G01X24603Y21098D01*
G01X24403Y151D02*
G01X24403Y10182D01*
G01X24403Y11063D02*
G01X24403Y21098D01*
G01X24203Y151D02*
G01X24203Y9982D01*
G01X24203Y10863D02*
G01X24203Y21098D01*
G01X24003Y151D02*
G01X24003Y9782D01*
G01X24003Y10663D02*
G01X24003Y21098D01*
G01X23803Y151D02*
G01X23803Y9582D01*
G01X23803Y10463D02*
G01X23803Y21098D01*
G01X23603Y151D02*
G01X23603Y9382D01*
G01X23603Y10263D02*
G01X23603Y21098D01*
G01X23403Y151D02*
G01X23403Y9182D01*
G01X23403Y10063D02*
G01X23403Y21098D01*
G01X23203Y151D02*
G01X23203Y8982D01*
G01X23203Y9863D02*
G01X23203Y21098D01*
G01X23003Y151D02*
G01X23003Y8782D01*
G01X23003Y9663D02*
G01X23003Y21098D01*
G01X22803Y151D02*
G01X22803Y8582D01*
G01X22803Y9463D02*
G01X22803Y21098D01*
G01X22603Y151D02*
G01X22603Y8382D01*
G01X22603Y9263D02*
G01X22603Y21098D01*
G01X22403Y151D02*
G01X22403Y8182D01*
G01X22403Y9063D02*
G01X22403Y21098D01*
G01X22203Y151D02*
G01X22203Y7982D01*
G01X22203Y8863D02*
G01X22203Y21098D01*
G01X22003Y151D02*
G01X22003Y7782D01*
G01X22003Y8663D02*
G01X22003Y21098D01*
G01X21803Y151D02*
G01X21803Y7582D01*
G01X21803Y8463D02*
G01X21803Y21098D01*
G01X21603Y151D02*
G01X21603Y3418D01*
G01X21603Y8263D02*
G01X21603Y21098D01*
G01X21403Y151D02*
G01X21403Y3293D01*
G01X21403Y8063D02*
G01X21403Y21098D01*
G01X21203Y151D02*
G01X21203Y2300D01*
G01X21203Y14239D02*
G01X21203Y21098D01*
G01X21003Y151D02*
G01X21003Y2227D01*
G01X21003Y14359D02*
G01X21003Y21098D01*
G01X20803Y151D02*
G01X20803Y2272D01*
G01X20803Y14349D02*
G01X20803Y21098D01*
G01X20603Y151D02*
G01X20603Y13805D01*
G01X20603Y14188D02*
G01X20603Y21098D01*
G01X20403Y151D02*
G01X20403Y21098D01*
G01X20203Y151D02*
G01X20203Y21098D01*
G01X20003Y151D02*
G01X20003Y21098D01*
G01X19803Y151D02*
G01X19803Y21098D01*
G01X19603Y151D02*
G01X19603Y21098D01*
G01X19403Y151D02*
G01X19403Y21098D01*
G01X19203Y151D02*
G01X19203Y21098D01*
G01X19003Y151D02*
G01X19003Y21098D01*
G01X18803Y151D02*
G01X18803Y21098D01*
G01X18603Y151D02*
G01X18603Y21098D01*
G01X18403Y151D02*
G01X18403Y21098D01*
G01X18203Y151D02*
G01X18203Y21098D01*
G01X18003Y151D02*
G01X18003Y6819D01*
G01X18003Y13981D02*
G01X18003Y21098D01*
G01X17803Y151D02*
G01X17803Y6798D01*
G01X17803Y14001D02*
G01X17803Y21098D01*
G01X17603Y151D02*
G01X17603Y6798D01*
G01X17603Y14001D02*
G01X17603Y21098D01*
G01X17403Y151D02*
G01X17403Y6798D01*
G01X17403Y14001D02*
G01X17403Y21098D01*
G01X17203Y151D02*
G01X17203Y6798D01*
G01X17203Y14001D02*
G01X17203Y21098D01*
G01X17003Y151D02*
G01X17003Y6798D01*
G01X17003Y14001D02*
G01X17003Y21098D01*
G01X16803Y151D02*
G01X16803Y6798D01*
G01X16803Y14001D02*
G01X16803Y21098D01*
G01X16603Y151D02*
G01X16603Y6798D01*
G01X16603Y14001D02*
G01X16603Y21098D01*
G01X16403Y151D02*
G01X16403Y6798D01*
G01X16403Y14001D02*
G01X16403Y21098D01*
G01X16203Y151D02*
G01X16203Y6798D01*
G01X16203Y14001D02*
G01X16203Y21098D01*
G01X16003Y151D02*
G01X16003Y6798D01*
G01X16003Y14001D02*
G01X16003Y21098D01*
G01X15803Y151D02*
G01X15803Y6798D01*
G01X15803Y14001D02*
G01X15803Y21098D01*
G01X15603Y151D02*
G01X15603Y6798D01*
G01X15603Y14001D02*
G01X15603Y21098D01*
G01X15403Y151D02*
G01X15403Y6798D01*
G01X15403Y14001D02*
G01X15403Y21098D01*
G01X15203Y151D02*
G01X15203Y6798D01*
G01X15203Y14001D02*
G01X15203Y21098D01*
G01X15003Y151D02*
G01X15003Y6798D01*
G01X15003Y14001D02*
G01X15003Y21098D01*
G01X14803Y151D02*
G01X14803Y6798D01*
G01X14803Y14001D02*
G01X14803Y21098D01*
G01X14603Y151D02*
G01X14603Y6848D01*
G01X14603Y13952D02*
G01X14603Y21098D01*
G01X14403Y151D02*
G01X14403Y21098D01*
G01X14203Y151D02*
G01X14203Y21098D01*
G01X14003Y151D02*
G01X14003Y21098D01*
G01X13803Y151D02*
G01X13803Y21098D01*
G01X13603Y151D02*
G01X13603Y21098D01*
G01X13403Y151D02*
G01X13403Y21098D01*
G01X13203Y151D02*
G01X13203Y21098D01*
G01X13003Y151D02*
G01X13003Y21098D01*
G01X12803Y151D02*
G01X12803Y21098D01*
G01X12603Y151D02*
G01X12603Y21098D01*
G01X12403Y151D02*
G01X12403Y21098D01*
G01X12203Y151D02*
G01X12203Y21098D01*
G01X12003Y151D02*
G01X12003Y21098D01*
G01X11803Y151D02*
G01X11803Y21098D01*
G01X11603Y151D02*
G01X11603Y21098D01*
G01X11403Y151D02*
G01X11403Y21098D01*
G01X11203Y151D02*
G01X11203Y21098D01*
G01X11003Y151D02*
G01X11003Y21098D01*
G01X10803Y151D02*
G01X10803Y21098D01*
G01X10603Y151D02*
G01X10603Y21098D01*
G01X10403Y151D02*
G01X10403Y21098D01*
G01X10203Y151D02*
G01X10203Y21098D01*
G01X10003Y151D02*
G01X10003Y21098D01*
G01X9803Y151D02*
G01X9803Y21098D01*
G01X9603Y151D02*
G01X9603Y21098D01*
G01X9403Y151D02*
G01X9403Y21098D01*
G01X9203Y151D02*
G01X9203Y21098D01*
G01X9003Y151D02*
G01X9003Y21098D01*
G01X8803Y151D02*
G01X8803Y21098D01*
G01X8603Y151D02*
G01X8603Y21098D01*
G01X8403Y151D02*
G01X8403Y21098D01*
G01X8203Y151D02*
G01X8203Y21098D01*
G01X8003Y223D02*
G01X8003Y21098D01*
G01X7803Y464D02*
G01X7803Y21098D01*
G01X7603Y664D02*
G01X7603Y21098D01*
G01X7403Y864D02*
G01X7403Y21098D01*
G01X7203Y1064D02*
G01X7203Y21098D01*
G01X7003Y1264D02*
G01X7003Y21098D01*
G01X6803Y1464D02*
G01X6803Y21098D01*
G01X6603Y1664D02*
G01X6603Y21098D01*
G01X6403Y1864D02*
G01X6403Y21098D01*
G01X6203Y2064D02*
G01X6203Y21098D01*
G01X6003Y2264D02*
G01X6003Y21098D01*
G01X5803Y2464D02*
G01X5803Y21098D01*
G01X5603Y2624D02*
G01X5603Y21098D01*
G01X5403Y2514D02*
G01X5403Y21098D01*
G01X5203Y2313D02*
G01X5203Y21098D01*
G01X5003Y2112D02*
G01X5003Y21098D01*
G01X4803Y1910D02*
G01X4803Y21098D01*
G01X4603Y1709D02*
G01X4603Y21098D01*
G01X4403Y1508D02*
G01X4403Y21098D01*
G01X4203Y1307D02*
G01X4203Y21098D01*
G01X4003Y1106D02*
G01X4003Y21098D01*
G01X3803Y905D02*
G01X3803Y21098D01*
G01X3603Y704D02*
G01X3603Y21098D01*
G01X3403Y503D02*
G01X3403Y21098D01*
G01X3203Y301D02*
G01X3203Y21098D01*
G01X3003Y197D02*
G01X3003Y21098D01*
G01X2803Y275D02*
G01X2803Y21098D01*
G01X2603Y514D02*
G01X2603Y5541D01*
G01X2603Y5637D02*
G01X2603Y21098D01*
G01X2403Y714D02*
G01X2403Y5320D01*
G01X2403Y5864D02*
G01X2403Y21098D01*
G01X2203Y914D02*
G01X2203Y5121D01*
G01X2203Y6064D02*
G01X2203Y21098D01*
G01X2003Y1114D02*
G01X2003Y4923D01*
G01X2003Y6264D02*
G01X2003Y21098D01*
G01X1803Y1314D02*
G01X1803Y4724D01*
G01X1803Y6464D02*
G01X1803Y21098D01*
G01X1603Y1514D02*
G01X1603Y4526D01*
G01X1603Y6664D02*
G01X1603Y21098D01*
G01X1403Y1714D02*
G01X1403Y4327D01*
G01X1403Y6864D02*
G01X1403Y21098D01*
G01X1203Y1914D02*
G01X1203Y4129D01*
G01X1203Y7064D02*
G01X1203Y21098D01*
G01X1003Y2114D02*
G01X1003Y3930D01*
G01X1003Y7264D02*
G01X1003Y21098D01*
G01X803Y2314D02*
G01X803Y3732D01*
G01X803Y7464D02*
G01X803Y21092D01*
G01X603Y2514D02*
G01X603Y3533D01*
G01X603Y7664D02*
G01X603Y21036D01*
G01X403Y2714D02*
G01X403Y3335D01*
G01X403Y7864D02*
G01X403Y20908D01*
G01X203Y2935D02*
G01X203Y3078D01*
G01X203Y8046D02*
G01X203Y20621D01*
G01X29482Y5038D02*
G01X27862Y6659D01*
G01X27862Y7772D01*
G01X26271Y4190D02*
G01X25896Y3815D01*
G01X25896Y3085D01*
G01X20921Y13996D02*
G01X20921Y2657D01*
G01X20981Y2598D01*
G01X28214Y7499D02*
G01X30616Y5096D01*
G01X30616Y4359D01*
G01X29987Y11900D02*
G01X29987Y9272D01*
G01X28214Y7499D01*
G01X29987Y11900D02*
G01X29987Y13584D01*
G01X27822Y15749D01*
G01X26341Y2467D02*
G01X26187Y2467D01*
G01X24854Y3801D01*
G01X24854Y10671D01*
G01X24882Y10699D01*
G54D11*
G01X25125Y4323D02*
G01X25273Y4470D01*
G01X26507Y4470D01*
G01X26507Y4470D02*
G01X28930Y2047D01*
G01X26758Y10495D02*
G01X26758Y11064D01*
G01X26507Y4470D02*
G01X26507Y10244D01*
G01X26758Y10495D01*
G01X26758Y10495D02*
G01X28254Y10495D01*
G01X29120Y11361D01*
G01X29120Y11668D01*
G01X27491Y13297D01*
G01X25842Y13297D01*
G54D10*
G01X28008Y10815D02*
G01X28008Y11526D01*
G01X26911Y12623D01*
G54D11*
G01X21316Y3654D02*
G01X21316Y7536D01*
G01X26699Y12918D01*
G01X27397Y12918D01*
G01X28838Y11477D01*
G54D10*
G75*
G01X8185Y152D02*
G02X7942Y311I0J264D01*
G01*
G75*
G01X7942Y311D02*
G03X7910Y358I-139J-61D01*
G01*
G75*
G01X5685Y2583D02*
G03X5578Y2627I-107J-108D01*
G01*
G75*
G01X5578Y2627D02*
G03X5471Y2582I0J-152D01*
G01*
G75*
G01X3208Y307D02*
G03X3178Y264I108J-107D01*
G01*
G75*
G01X3178Y264D02*
G02X2997Y198I-181J215D01*
G01*
G75*
G01X2997Y198D02*
G02X2741Y363I0J281D01*
G01*
G75*
G01X2741Y363D02*
G03X2710Y408I-138J-63D01*
G01*
G75*
G01X410Y2708D02*
G03X367Y2738I-107J-108D01*
G01*
G75*
G01X367Y2738D02*
G02X195Y3007I124J269D01*
G01*
G75*
G01X195Y3007D02*
G02X270Y3205I296J0D01*
G01*
G75*
G01X270Y3205D02*
G03X285Y3218I-92J120D01*
G01*
G75*
G01X2566Y5482D02*
G03X2611Y5590I-106J108D01*
G01*
G75*
G01X2611Y5590D02*
G03X2590Y5666I-151J0D01*
G01*
G75*
G01X2584Y5677D02*
G03X2560Y5708I-131J-77D01*
G01*
G75*
G01X260Y8008D02*
G03X222Y8036I-107J-108D01*
G01*
G75*
G01X222Y8036D02*
G02X155Y8117I58J116D01*
G01*
G75*
G01X152Y20347D02*
G02X903Y21099I751J0D01*
G01*
G75*
G01X34530Y21099D02*
G03X34554Y21101I0J151D01*
G01*
G75*
G01X34562Y21102D02*
G02X35302Y20350I-12J-752D01*
G01*
G75*
G01X35302Y900D02*
G03X35304Y872I151J0D01*
G01*
G75*
G01X35304Y872D02*
G02X34553Y152I-751J32D01*
G01*
G75*
G01X8203Y152D02*
G03X8197Y152I0J-152D01*
G01*
G75*
G01X8197Y152D02*
G02X8185Y152I-12J264D01*
G01*
G75*
G01X26341Y2096D02*
G03X26713Y2468I0J372D01*
G01*
G75*
G01X26713Y2468D02*
G03X26341Y2839I-372J0D01*
G01*
G75*
G01X26341Y2839D02*
G03X26253Y2829I0J-371D01*
G01*
G75*
G01X26204Y2877D02*
G03X26268Y3085I-307J208D01*
G01*
G75*
G01X26268Y3085D02*
G03X26203Y3296I-371J0D01*
G01*
G75*
G01X26339Y3825D02*
G03X26643Y4191I-68J366D01*
G01*
G75*
G01X26643Y4191D02*
G03X26271Y4562I-372J0D01*
G01*
G75*
G01X26271Y4562D02*
G03X25906Y4258I0J-371D01*
G01*
G75*
G01X25683Y4029D02*
G03X25595Y3816I214J-213D01*
G01*
G75*
G01X25156Y10448D02*
G03X25254Y10699I-274J251D01*
G01*
G75*
G01X25254Y10699D02*
G03X25163Y10942I-372J0D01*
G01*
G75*
G01X26617Y12396D02*
G03X26844Y12258I294J227D01*
G01*
G75*
G01X27702Y11026D02*
G03X27637Y10816I306J-210D01*
G01*
G75*
G01X27637Y10816D02*
G03X28008Y10444I371J0D01*
G01*
G75*
G01X28008Y10444D02*
G03X28380Y10816I0J372D01*
G01*
G75*
G01X28380Y10816D02*
G03X28314Y11026I-372J0D01*
G01*
G75*
G01X28310Y11526D02*
G03X28307Y11569I-302J0D01*
G01*
G75*
G01X28477Y11394D02*
G03X28839Y11106I362J84D01*
G01*
G75*
G01X28839Y11106D02*
G03X29210Y11478I0J372D01*
G01*
G75*
G01X29210Y11478D02*
G03X28922Y11840I-371J0D01*
G01*
G75*
G01X27618Y13139D02*
G03X27398Y13230I-220J-220D01*
G01*
G75*
G01X26699Y13230D02*
G03X26479Y13139I0J-311D01*
G01*
G75*
G01X21228Y13787D02*
G03X21293Y13997I-306J210D01*
G01*
G75*
G01X21293Y13997D02*
G03X20922Y14368I-371J0D01*
G01*
G75*
G01X20922Y14368D02*
G03X20550Y13997I0J-371D01*
G01*
G75*
G01X20550Y13997D02*
G03X20616Y13787I372J0D01*
G01*
G75*
G01X20620Y2685D02*
G03X20610Y2598I361J-87D01*
G01*
G75*
G01X20610Y2598D02*
G03X20981Y2227I371J0D01*
G01*
G75*
G01X20981Y2227D02*
G03X21353Y2598I0J371D01*
G01*
G75*
G01X21353Y2598D02*
G03X21223Y2880I-372J0D01*
G01*
G75*
G01X21223Y3295D02*
G03X21317Y3283I94J360D01*
G01*
G75*
G01X21317Y3283D02*
G03X21688Y3655I0J372D01*
G01*
G75*
G01X21688Y3655D02*
G03X21632Y3851I-371J0D01*
G01*
G75*
G01X24553Y3801D02*
G03X24641Y3588I301J0D01*
G01*
G75*
G01X25974Y2255D02*
G03X26111Y2176I213J213D01*
G01*
G75*
G01X26111Y2176D02*
G03X26341Y2096I230J292D01*
G01*
G75*
G01X30617Y3988D02*
G03X30989Y4360I0J372D01*
G01*
G75*
G01X30989Y4360D02*
G03X30923Y4570I-372J0D01*
G01*
G75*
G01X30919Y5096D02*
G03X30830Y5310I-302J0D01*
G01*
G75*
G01X30200Y9059D02*
G03X30289Y9273I-213J214D01*
G01*
G75*
G01X30293Y11690D02*
G03X30359Y11900I-306J210D01*
G01*
G75*
G01X30359Y11900D02*
G03X30293Y12111I-372J0D01*
G01*
G75*
G01X30289Y13584D02*
G03X30200Y13797I-302J0D01*
G01*
G75*
G01X28187Y15817D02*
G03X27822Y16121I-365J-68D01*
G01*
G75*
G01X27822Y16121D02*
G03X27451Y15749I0J-372D01*
G01*
G75*
G01X27451Y15749D02*
G03X27754Y15384I371J0D01*
G01*
G75*
G01X29681Y12111D02*
G03X29616Y11900I306J-211D01*
G01*
G75*
G01X29616Y11900D02*
G03X29681Y11690I371J0D01*
G01*
G75*
G01X28204Y7916D02*
G03X27862Y8144I-342J-144D01*
G01*
G75*
G01X27862Y8144D02*
G03X27491Y7772I0J-372D01*
G01*
G75*
G01X27491Y7772D02*
G03X27556Y7562I371J0D01*
G01*
G75*
G01X27561Y6659D02*
G03X27649Y6446I301J0D01*
G01*
G75*
G01X29118Y4971D02*
G03X29483Y4667I365J67D01*
G01*
G75*
G01X29483Y4667D02*
G03X29854Y5038I0J371D01*
G01*
G75*
G01X29854Y5038D02*
G03X29551Y5404I-371J0D01*
G01*
G75*
G01X30311Y4570D02*
G03X30246Y4360I306J-210D01*
G01*
G75*
G01X30246Y4360D02*
G03X30617Y3988I371J0D01*
G01*
G75*
G01X14502Y7050D02*
G03X14753Y6799I251J0D01*
G01*
G75*
G01X17903Y6799D02*
G03X18155Y7050I0J251D01*
G01*
G75*
G01X18155Y13750D02*
G03X17903Y14002I-252J0D01*
G01*
G75*
G01X14753Y14002D02*
G03X14502Y13750I0J-252D01*
G01*
G75*
G01X33403Y17949D02*
G03X34655Y19200I0J1251D01*
G01*
G75*
G01X34655Y19200D02*
G03X33403Y20452I-1252J0D01*
G01*
G75*
G01X33403Y20452D02*
G03X32152Y19200I0J-1252D01*
G01*
G75*
G01X32152Y19200D02*
G03X33403Y17949I1251J0D01*
G01*
G75*
G01X33276Y11246D02*
G03X33616Y10906I340J0D01*
G01*
G75*
G01X33616Y10906D02*
G03X33956Y11246I0J340D01*
G01*
G75*
G01X33956Y11246D02*
G03X33616Y11586I-340J0D01*
G01*
G75*
G01X33616Y11586D02*
G03X33276Y11246I0J-340D01*
G01*
G75*
G01X33276Y9554D02*
G03X33616Y9214I340J0D01*
G01*
G75*
G01X33616Y9214D02*
G03X33956Y9554I0J340D01*
G01*
G75*
G01X33956Y9554D02*
G03X33616Y9894I-340J0D01*
G01*
G75*
G01X33616Y9894D02*
G03X33276Y9554I0J-340D01*
G01*

%LPD*%
G36*
G01X29490Y5158D02*
G01X29402Y5189D01*
G01X29332Y5118D01*
G01X29363Y5030D01*
G01X29490Y5158D01*
G37*

%LPD*%
G36*
G01X27952Y7692D02*
G01X27772Y7692D01*
G01X27812Y7608D01*
G01X27912Y7608D01*
G01X27952Y7692D01*
G37*

%LPD*%
G36*
G01X26278Y4070D02*
G01X26151Y4198D01*
G01X26120Y4110D01*
G01X26191Y4039D01*
G01X26278Y4070D01*
G37*

%LPD*%
G36*
G01X25946Y3248D02*
G01X25846Y3248D01*
G01X25806Y3164D01*
G01X25986Y3164D01*
G01X25946Y3248D01*
G37*

%LPD*%
G36*
G01X21011Y13917D02*
G01X20831Y13917D01*
G01X20871Y13833D01*
G01X20971Y13833D01*
G01X21011Y13917D01*
G37*

%LPD*%
G36*
G01X28364Y7419D02*
G01X28333Y7506D01*
G01X28206Y7379D01*
G01X28294Y7348D01*
G01X28364Y7419D01*
G37*

%LPD*%
G36*
G01X28364Y7579D02*
G01X28294Y7650D01*
G01X28206Y7619D01*
G01X28333Y7491D01*
G01X28364Y7579D01*
G37*

%LPD*%
G36*
G01X30667Y4523D02*
G01X30567Y4523D01*
G01X30527Y4439D01*
G01X30707Y4439D01*
G01X30667Y4523D01*
G37*

%LPD*%
G36*
G01X30077Y11820D02*
G01X29897Y11820D01*
G01X29937Y11736D01*
G01X30037Y11736D01*
G01X30077Y11820D01*
G37*

%LPD*%
G36*
G01X30037Y12063D02*
G01X29937Y12063D01*
G01X29897Y11979D01*
G01X30077Y11979D01*
G01X30037Y12063D01*
G37*

%LPD*%
G36*
G01X27972Y15669D02*
G01X27941Y15756D01*
G01X27814Y15629D01*
G01X27902Y15598D01*
G01X27972Y15669D01*
G37*

%LPD*%
G36*
G01X24957Y10605D02*
G01X24779Y10636D01*
G01X24804Y10547D01*
G01X24904Y10529D01*
G01X24957Y10605D01*
G37*

%LPD*%
G36*
G01X25283Y4396D02*
G01X25198Y4481D01*
G01X25118Y4443D01*
G01X25245Y4315D01*
G01X25283Y4396D01*
G37*

%LPD*%
G36*
G01X28938Y2167D02*
G01X28857Y2205D01*
G01X28772Y2120D01*
G01X28811Y2040D01*
G01X28938Y2167D01*
G37*

%LPD*%
G36*
G01X26848Y10985D02*
G01X26668Y10985D01*
G01X26698Y10901D01*
G01X26818Y10901D01*
G01X26848Y10985D01*
G37*

%LPD*%
G36*
G01X26005Y13357D02*
G01X25921Y13387D01*
G01X25921Y13207D01*
G01X26005Y13237D01*
G01X26005Y13357D01*
G37*

%LPD*%
G36*
G01X28058Y10979D02*
G01X27958Y10979D01*
G01X27918Y10895D01*
G01X28098Y10895D01*
G01X28058Y10979D01*
G37*

%LPD*%
G36*
G01X27062Y12543D02*
G01X27031Y12630D01*
G01X26903Y12503D01*
G01X26991Y12472D01*
G01X27062Y12543D01*
G37*

%LPD*%
G36*
G01X28846Y11597D02*
G01X28765Y11635D01*
G01X28680Y11551D01*
G01X28718Y11470D01*
G01X28846Y11597D01*
G37*

%LPD*%
G36*
G01X21376Y3818D02*
G01X21256Y3818D01*
G01X21226Y3734D01*
G01X21406Y3734D01*
G01X21376Y3818D01*
G37*
G54D24*
G01X33403Y19200D03*
G54D16*
G01X29482Y5038D03*
G01X27862Y7772D03*
G01X26271Y4190D03*
G01X25896Y3085D03*
G01X20981Y2598D03*
G01X20921Y13996D03*
G01X28214Y7499D03*
G01X30616Y4359D03*
G01X29987Y11900D03*
G01X27822Y15749D03*
G01X24882Y10699D03*
G01X26341Y2467D03*
G01X25125Y4323D03*
G01X28930Y2047D03*
G01X26758Y11064D03*
G01X25842Y13297D03*
G01X28008Y10815D03*
G01X26911Y12623D03*
G01X28838Y11477D03*
G01X21316Y3654D03*
G01X3203Y15900D03*
G01X12803Y15900D03*
G01X12803Y6300D03*
G01X3203Y6300D03*
G01X34403Y11950D03*
G01X34403Y8850D03*
M00*
M02*
