G04 Layer: TopLayer*
G04 EasyEDA v6.3.21, 2020-02-02T17:40:02+08:00*
G04 1dbfad1c9a864778b0d2112e72029e1b,1a72cfc7dc544dba9386ef7e18e6054e,10*
G04 Gerber Generator version 0.2*
G04 Scale: 100 percent, Rotated: No, Reflected: No *
G04 Dimensions in inches *
G04 leading zeros omitted , absolute positions ,2 integer and 4 decimal *
%FSLAX24Y24*%
%MOIN*%
G90*
G70D02*

%ADD10C,0.010000*%
%ADD11C,0.012000*%
%ADD12C,0.051181*%
%ADD13C,0.043307*%
%ADD14C,0.027560*%
%ADD15C,0.008000*%
%ADD16C,0.024000*%
%ADD17R,0.070866X0.047240*%
%ADD18R,0.053150X0.015748*%
%ADD19R,0.074803X0.074803*%
%ADD20R,0.059055X0.039370*%
%ADD21R,0.039370X0.086614*%
%ADD22R,0.036610X0.038580*%
%ADD23R,0.137790X0.086614*%
%ADD24C,0.200000*%

%LPD*%

%LPD*%
G36*
G01X13000Y16100D02*
G01X3000Y16100D01*
G01X3000Y6100D01*
G01X13000Y6100D01*
G01X13000Y16100D01*
G37*

%LPC*%
G36*
G01X8533Y15733D02*
G01X8166Y15733D01*
G01X8166Y15367D01*
G01X8533Y15367D01*
G01X8533Y15733D01*
G37*
G36*
G01X7800Y15733D02*
G01X7433Y15733D01*
G01X7433Y15367D01*
G01X7800Y15367D01*
G01X7800Y15733D01*
G37*
G36*
G01X5966Y9100D02*
G01X3366Y9100D01*
G01X3366Y6467D01*
G01X5966Y6467D01*
G01X5966Y9100D01*
G37*
G36*
G01X12633Y15733D02*
G01X10000Y15733D01*
G01X10000Y13133D01*
G01X12633Y13133D01*
G01X12633Y15733D01*
G37*
G36*
G01X5966Y15733D02*
G01X3366Y15733D01*
G01X3366Y13133D01*
G01X5966Y13133D01*
G01X5966Y15733D01*
G37*
G36*
G01X9666Y15733D02*
G01X9266Y15733D01*
G01X9266Y15367D01*
G01X8900Y15367D01*
G01X8900Y15000D01*
G01X8533Y15000D01*
G01X8533Y14633D01*
G01X7800Y14633D01*
G01X7800Y15000D01*
G01X7433Y15000D01*
G01X7433Y14267D01*
G01X9266Y14267D01*
G01X9266Y13900D01*
G01X8166Y13900D01*
G01X8166Y13533D01*
G01X7800Y13533D01*
G01X7800Y13133D01*
G01X7433Y13133D01*
G01X7433Y13900D01*
G01X7066Y13900D01*
G01X7066Y14267D01*
G01X6700Y14267D01*
G01X6700Y14600D01*
G01X7066Y14600D01*
G01X7066Y15367D01*
G01X6700Y15367D01*
G01X6700Y15000D01*
G01X6300Y15000D01*
G01X6300Y12767D01*
G01X7066Y12767D01*
G01X7066Y12033D01*
G01X6700Y12033D01*
G01X6700Y11667D01*
G01X6333Y11667D01*
G01X6333Y12400D01*
G01X5966Y12400D01*
G01X5966Y12800D01*
G01X4100Y12800D01*
G01X4100Y12400D01*
G01X3733Y12400D01*
G01X3733Y12800D01*
G01X3366Y12800D01*
G01X3366Y12400D01*
G01X3733Y12400D01*
G01X3733Y11300D01*
G01X3366Y11300D01*
G01X3366Y9433D01*
G01X3733Y9433D01*
G01X3733Y11300D01*
G01X4833Y11300D01*
G01X4833Y10933D01*
G01X4466Y10933D01*
G01X4466Y10567D01*
G01X4100Y10567D01*
G01X4100Y9433D01*
G01X6300Y9433D01*
G01X6300Y9067D01*
G01X7066Y9067D01*
G01X7066Y9433D01*
G01X7433Y9433D01*
G01X7433Y9067D01*
G01X7800Y9067D01*
G01X7800Y9433D01*
G01X8900Y9433D01*
G01X8900Y8700D01*
G01X8533Y8700D01*
G01X8533Y8333D01*
G01X7800Y8333D01*
G01X7800Y8700D01*
G01X7066Y8700D01*
G01X7066Y8333D01*
G01X6700Y8333D01*
G01X6700Y8700D01*
G01X6300Y8700D01*
G01X6300Y7200D01*
G01X6700Y7200D01*
G01X6700Y7600D01*
G01X7800Y7600D01*
G01X7800Y7967D01*
G01X8166Y7967D01*
G01X8166Y7200D01*
G01X8900Y7200D01*
G01X8900Y6867D01*
G01X6300Y6867D01*
G01X6300Y6467D01*
G01X8933Y6467D01*
G01X8933Y6867D01*
G01X9300Y6867D01*
G01X9300Y7600D01*
G01X8533Y7600D01*
G01X8533Y8333D01*
G01X8900Y8333D01*
G01X8900Y7967D01*
G01X9666Y7967D01*
G01X9666Y7600D01*
G01X10000Y7600D01*
G01X10000Y7233D01*
G01X9666Y7233D01*
G01X9666Y6867D01*
G01X10000Y6867D01*
G01X10000Y6467D01*
G01X12633Y6467D01*
G01X12633Y7967D01*
G01X11900Y7967D01*
G01X11900Y8333D01*
G01X11500Y8333D01*
G01X11500Y8700D01*
G01X12633Y8700D01*
G01X12633Y9100D01*
G01X11900Y9100D01*
G01X11900Y9833D01*
G01X11500Y9833D01*
G01X11500Y10900D01*
G01X11866Y10900D01*
G01X11866Y10167D01*
G01X12233Y10167D01*
G01X12233Y9800D01*
G01X12633Y9800D01*
G01X12633Y10567D01*
G01X12233Y10567D01*
G01X12233Y10900D01*
G01X12633Y10900D01*
G01X12633Y12033D01*
G01X12233Y12033D01*
G01X12233Y12400D01*
G01X11900Y12400D01*
G01X11900Y12801D01*
G01X10016Y12783D01*
G01X10006Y12592D01*
G01X9996Y12400D01*
G01X10400Y12400D01*
G01X10400Y12033D01*
G01X10000Y12033D01*
G01X10000Y11667D01*
G01X9666Y11667D01*
G01X9666Y12033D01*
G01X8933Y12033D01*
G01X8933Y12800D01*
G01X7800Y12800D01*
G01X7800Y13133D01*
G01X8200Y13133D01*
G01X8200Y13500D01*
G01X8533Y13500D01*
G01X8533Y13133D01*
G01X8933Y13133D01*
G01X8933Y13500D01*
G01X9266Y13500D01*
G01X9266Y12767D01*
G01X9666Y12767D01*
G01X9666Y13533D01*
G01X9300Y13533D01*
G01X9300Y13867D01*
G01X9666Y13867D01*
G01X9666Y14267D01*
G01X9300Y14267D01*
G01X9300Y14600D01*
G01X9666Y14600D01*
G01X9666Y15733D01*
G37*

%LPD*%
G36*
G01X9266Y15000D02*
G01X8933Y15000D01*
G01X8933Y14633D01*
G01X9266Y14633D01*
G01X9266Y15000D01*
G37*

%LPD*%
G36*
G01X12233Y15367D02*
G01X10400Y15367D01*
G01X10400Y13533D01*
G01X12233Y13533D01*
G01X12233Y15367D01*
G37*

%LPC*%
G36*
G01X11900Y15000D02*
G01X10766Y15000D01*
G01X10766Y13867D01*
G01X11900Y13867D01*
G01X11900Y15000D01*
G37*

%LPD*%
G36*
G01X5566Y15367D02*
G01X3733Y15367D01*
G01X3733Y13533D01*
G01X5566Y13533D01*
G01X5566Y15367D01*
G37*

%LPC*%
G36*
G01X5233Y15000D02*
G01X4100Y15000D01*
G01X4100Y13867D01*
G01X5233Y13867D01*
G01X5233Y15000D01*
G37*

%LPD*%
G36*
G01X7066Y13867D02*
G01X6700Y13867D01*
G01X6700Y13133D01*
G01X7066Y13133D01*
G01X7066Y13867D01*
G37*

%LPD*%
G36*
G01X8533Y12400D02*
G01X7800Y12400D01*
G01X7800Y12033D01*
G01X8200Y12033D01*
G01X8200Y11667D01*
G01X7433Y11667D01*
G01X7433Y12033D01*
G01X7066Y12033D01*
G01X7066Y11300D01*
G01X9666Y11300D01*
G01X9666Y11667D01*
G01X8533Y11667D01*
G01X8533Y12400D01*
G37*

%LPD*%
G36*
G01X11866Y12400D02*
G01X10766Y12400D01*
G01X10766Y12033D01*
G01X10400Y12033D01*
G01X10400Y10933D01*
G01X10766Y10933D01*
G01X10766Y11667D01*
G01X11133Y11667D01*
G01X11133Y10933D01*
G01X11500Y10933D01*
G01X11500Y11300D01*
G01X12233Y11300D01*
G01X12233Y11667D01*
G01X11866Y11667D01*
G01X11866Y12400D01*
G37*

%LPC*%
G36*
G01X11500Y12033D02*
G01X11133Y12033D01*
G01X11133Y11667D01*
G01X11500Y11667D01*
G01X11500Y12033D01*
G37*

%LPD*%
G36*
G01X11133Y10900D02*
G01X10766Y10900D01*
G01X10766Y10567D01*
G01X11133Y10567D01*
G01X11133Y10900D01*
G37*

%LPD*%
G36*
G01X10400Y10900D02*
G01X10033Y10900D01*
G01X10033Y10567D01*
G01X10400Y10567D01*
G01X10400Y10900D01*
G37*

%LPD*%
G36*
G01X4833Y10567D02*
G01X4500Y10567D01*
G01X4500Y10200D01*
G01X4833Y10200D01*
G01X4833Y10567D01*
G37*

%LPD*%
G36*
G01X11133Y10167D02*
G01X10400Y10167D01*
G01X10400Y9833D01*
G01X11133Y9833D01*
G01X11133Y10167D01*
G37*

%LPD*%
G36*
G01X10000Y10167D02*
G01X8933Y10167D01*
G01X8933Y9833D01*
G01X10000Y9833D01*
G01X10000Y10167D01*
G37*

%LPD*%
G36*
G01X5966Y10167D02*
G01X5600Y10167D01*
G01X5600Y9833D01*
G01X5966Y9833D01*
G01X5966Y10167D01*
G37*

%LPD*%
G36*
G01X5200Y10167D02*
G01X4833Y10167D01*
G01X4833Y9833D01*
G01X5200Y9833D01*
G01X5200Y10167D01*
G37*

%LPD*%
G36*
G01X11500Y9800D02*
G01X11133Y9800D01*
G01X11133Y9433D01*
G01X11500Y9433D01*
G01X11500Y9800D01*
G37*

%LPD*%
G36*
G01X5966Y12400D02*
G01X4833Y12400D01*
G01X4833Y12033D01*
G01X4500Y12033D01*
G01X4500Y11667D01*
G01X4833Y11667D01*
G01X4833Y12033D01*
G01X5233Y12033D01*
G01X5233Y10200D01*
G01X5566Y10200D01*
G01X5566Y10567D01*
G01X5966Y10567D01*
G01X5966Y10200D01*
G01X6333Y10200D01*
G01X6333Y9433D01*
G01X7066Y9433D01*
G01X7066Y9800D01*
G01X6700Y9800D01*
G01X6700Y10567D01*
G01X7433Y10567D01*
G01X7433Y10167D01*
G01X7066Y10167D01*
G01X7066Y9833D01*
G01X7433Y9833D01*
G01X7433Y9433D01*
G01X7800Y9433D01*
G01X7800Y9833D01*
G01X8533Y9833D01*
G01X8533Y10200D01*
G01X8900Y10200D01*
G01X8900Y10900D01*
G01X8533Y10900D01*
G01X8533Y10567D01*
G01X7800Y10567D01*
G01X7800Y10900D01*
G01X6700Y10900D01*
G01X6700Y10567D01*
G01X6300Y10567D01*
G01X6300Y10933D01*
G01X6700Y10933D01*
G01X6700Y11300D01*
G01X5966Y11300D01*
G01X5966Y11667D01*
G01X5566Y11667D01*
G01X5566Y12033D01*
G01X5966Y12033D01*
G01X5966Y12400D01*
G37*

%LPC*%
G36*
G01X5966Y11300D02*
G01X5566Y11300D01*
G01X5566Y10900D01*
G01X5966Y10900D01*
G01X5966Y11300D01*
G37*

%LPD*%
G36*
G01X9266Y8700D02*
G01X8933Y8700D01*
G01X8933Y8333D01*
G01X9266Y8333D01*
G01X9266Y8700D01*
G37*

%LPD*%
G36*
G01X10766Y9433D02*
G01X9666Y9433D01*
G01X9666Y8333D01*
G01X10766Y8333D01*
G01X10766Y9433D01*
G37*

%LPC*%
G36*
G01X10400Y9100D02*
G01X10222Y9100D01*
G01X10185Y9099D01*
G01X10151Y9098D01*
G01X10119Y9096D01*
G01X10090Y9093D01*
G01X10065Y9090D01*
G01X10044Y9086D01*
G01X10030Y9082D01*
G01X10022Y9078D01*
G01X10017Y9070D01*
G01X10013Y9055D01*
G01X10009Y9035D01*
G01X10006Y9010D01*
G01X10003Y8981D01*
G01X10001Y8948D01*
G01X10000Y8914D01*
G01X10000Y8700D01*
G01X10400Y8700D01*
G01X10400Y9100D01*
G37*

%LPD*%
G36*
G01X7433Y8333D02*
G01X7066Y8333D01*
G01X7066Y7967D01*
G01X7433Y7967D01*
G01X7433Y8333D01*
G37*

%LPD*%
G36*
G01X11500Y7967D02*
G01X10400Y7967D01*
G01X10400Y7600D01*
G01X10766Y7600D01*
G01X10766Y7233D01*
G01X11500Y7233D01*
G01X11500Y7967D01*
G37*

%LPD*%
G36*
G01X5566Y8700D02*
G01X3733Y8700D01*
G01X3733Y6867D01*
G01X5566Y6867D01*
G01X5566Y8700D01*
G37*

%LPC*%
G36*
G01X5233Y8333D02*
G01X4100Y8333D01*
G01X4100Y7200D01*
G01X5233Y7200D01*
G01X5233Y8333D01*
G37*

%LPD*%
G36*
G01X12233Y7600D02*
G01X11900Y7600D01*
G01X11900Y7200D01*
G01X11500Y7200D01*
G01X11500Y6867D01*
G01X12233Y6867D01*
G01X12233Y7600D01*
G37*

%LPD*%
G54D11*
G01X30218Y2471D02*
G01X30218Y2372D01*
G01X29893Y2047D01*
G01X28930Y2047D01*
G54D10*
G01X29603Y5576D02*
G01X29603Y5158D01*
G01X29482Y5038D01*
G01X26800Y8099D02*
G01X27127Y7772D01*
G01X27862Y7772D01*
G01X26800Y14449D02*
G01X18362Y14449D01*
G01X17861Y13948D01*
G01X17861Y6884D01*
G01X17949Y6795D01*
G01X19769Y6795D01*
G01X19778Y6804D01*
G01X19778Y7347D02*
G01X19778Y6804D01*
G01X27113Y9399D02*
G01X27113Y9619D01*
G01X26906Y9826D01*
G01X26050Y9826D01*
G01X25482Y10394D01*
G01X22021Y10394D01*
G01X19352Y13063D01*
G01X19352Y13942D01*
G01X19267Y14026D01*
G01X18230Y14026D01*
G01X18199Y13996D01*
G01X27407Y9399D02*
G01X27113Y9399D01*
G01X18199Y13452D02*
G01X18199Y13996D01*
G01X18986Y12908D02*
G01X23029Y8866D01*
G01X26566Y8866D01*
G01X27113Y8319D01*
G01X27113Y8099D01*
G01X18986Y13452D02*
G01X18986Y12908D01*
G01X27407Y8099D02*
G01X27113Y8099D01*
G01X22136Y13452D02*
G01X22136Y12909D01*
G01X27407Y11899D02*
G01X27113Y11899D01*
G01X27113Y11899D02*
G01X27113Y12119D01*
G01X26840Y12392D01*
G01X26612Y12392D01*
G01X26319Y12685D01*
G01X22360Y12685D01*
G01X22136Y12909D01*
G01X33350Y10153D02*
G01X32973Y10153D01*
G01X31603Y5576D02*
G01X31853Y5826D01*
G01X31853Y6064D01*
G01X31853Y6064D02*
G01X31853Y9032D01*
G01X32973Y10153D01*
G01X3270Y2711D02*
G01X4484Y3925D01*
G01X21469Y3925D01*
G01X22396Y2998D01*
G01X25132Y2998D01*
G01X25263Y2867D01*
G01X25263Y2361D01*
G01X25330Y2294D01*
G01X25841Y2294D01*
G01X26366Y2819D01*
G01X29376Y2819D01*
G01X30267Y3709D01*
G01X30267Y4337D01*
G01X30768Y4837D01*
G01X31999Y4837D01*
G01X32353Y5191D01*
G01X32353Y5962D01*
G01X32251Y6064D01*
G01X31853Y6064D01*
G01X26506Y5549D02*
G01X26506Y4425D01*
G01X26271Y4190D01*
G01X25896Y3085D02*
G01X25715Y2904D01*
G01X25557Y2904D01*
G01X25557Y2600D02*
G01X25557Y2904D01*
G01X26800Y5549D02*
G01X26506Y5549D01*
G01X26800Y6849D02*
G01X26506Y6849D01*
G01X25557Y3900D02*
G01X25851Y3900D01*
G01X25851Y3900D02*
G01X25851Y6194D01*
G01X26506Y6849D01*
G01X20561Y13452D02*
G01X20561Y13996D01*
G01X20561Y13996D02*
G01X20921Y13996D01*
G01X24950Y2598D02*
G01X20981Y2598D01*
G01X33173Y3928D02*
G01X30732Y3928D01*
G01X18202Y7891D02*
G01X18287Y7976D01*
G01X24068Y7976D01*
G01X24545Y7499D01*
G01X28214Y7499D01*
G01X18202Y7347D02*
G01X18202Y7891D01*
G01X30732Y3928D02*
G01X30732Y4243D01*
G01X30616Y4359D01*
G01X29307Y11900D02*
G01X29987Y11900D01*
G01X27407Y15749D02*
G01X27822Y15749D01*
G01X26982Y2471D02*
G01X29423Y2471D01*
G01X26800Y13199D02*
G01X26506Y13199D01*
G01X21349Y13724D02*
G01X21349Y13996D01*
G01X21349Y13724D02*
G01X21349Y13452D01*
G01X26341Y2467D02*
G01X26513Y2467D01*
G01X26517Y2471D01*
G01X26982Y2471D02*
G01X26517Y2471D01*
G01X21349Y13452D02*
G01X21349Y12908D01*
G01X21349Y12908D02*
G01X23138Y11119D01*
G01X24777Y11119D01*
G01X24882Y11014D01*
G01X24882Y10699D01*
G01X21349Y13996D02*
G01X21443Y14090D01*
G01X25614Y14090D01*
G01X26506Y13199D01*
G54D11*
G01X30697Y14119D02*
G01X30697Y14712D01*
G01X28700Y14809D02*
G01X30600Y14809D01*
G01X30697Y14712D01*
G01X28700Y15748D02*
G01X28700Y14809D01*
G01X28700Y14809D02*
G01X28700Y14448D01*
G01X33350Y10912D02*
G01X32924Y10912D01*
G01X26725Y3928D02*
G01X26468Y3928D01*
G01X26982Y3928D02*
G01X26725Y3928D01*
G01X29103Y5576D02*
G01X29103Y3928D01*
G01X29423Y3928D02*
G01X29103Y3928D01*
G01X29103Y3928D02*
G01X26982Y3928D01*
G01X24950Y3898D02*
G01X25125Y3898D01*
G01X26468Y3928D02*
G01X26086Y3547D01*
G01X25301Y3547D01*
G01X25125Y3722D01*
G01X25125Y3898D01*
G01X28700Y12784D02*
G01X31125Y12784D01*
G01X31988Y13647D01*
G01X31988Y14599D01*
G01X31875Y14712D01*
G01X30697Y14712D01*
G01X28700Y11898D02*
G01X28700Y12784D01*
G01X28700Y12784D02*
G01X28700Y13148D01*
G01X33173Y2471D02*
G01X30732Y2471D01*
G01X30732Y2471D02*
G01X30218Y2471D01*
G01X25125Y3898D02*
G01X25125Y4323D01*
G01X25125Y4323D02*
G01X24795Y4653D01*
G01X2846Y4653D01*
G01X2032Y3838D01*
G01X28558Y11190D02*
G01X28558Y11756D01*
G01X28700Y11898D01*
G01X32924Y10912D02*
G01X28837Y10912D01*
G01X28558Y11190D01*
G01X26800Y10649D02*
G01X26987Y10836D01*
G01X26987Y10836D02*
G01X27341Y11190D01*
G01X28558Y11190D01*
G01X26987Y10836D02*
G01X26758Y11064D01*
G01X25842Y13297D02*
G01X23865Y13297D01*
G01X23710Y13452D01*
G54D10*
G01X27407Y10649D02*
G01X27841Y10649D01*
G01X28008Y10815D01*
G01X26911Y12623D02*
G01X26687Y12846D01*
G01X22985Y12846D01*
G01X22924Y12908D01*
G01X22924Y13452D02*
G01X22924Y12908D01*
G54D11*
G01X33350Y9900D02*
G01X33776Y9900D01*
G01X32508Y14712D02*
G01X31471Y15750D01*
G01X29307Y15750D01*
G01X32508Y14119D02*
G01X32508Y14712D01*
G01X33776Y9900D02*
G01X33910Y10034D01*
G01X33910Y11342D01*
G01X32508Y12744D01*
G01X32508Y12744D02*
G01X32508Y14119D01*
G01X3772Y2042D02*
G01X5383Y3654D01*
G01X21316Y3654D01*
G01X32508Y12744D02*
G01X31242Y11477D01*
G01X28838Y11477D01*
G54D10*
G01X33350Y10406D02*
G01X32931Y10406D01*
G01X31353Y8827D01*
G01X31353Y5826D01*
G01X31103Y5576D01*
G01X2728Y3253D02*
G01X3588Y4114D01*
G01X21655Y4114D01*
G01X22454Y3315D01*
G01X29645Y3315D01*
G01X30106Y3776D01*
G01X30106Y4403D01*
G01X31103Y5400D01*
G01X31103Y5400D01*
G01X31103Y5576D01*
G01X27113Y6849D02*
G01X27113Y7069D01*
G01X26974Y7208D01*
G01X24428Y7208D01*
G01X24023Y6803D01*
G01X23715Y6803D01*
G01X27407Y6849D02*
G01X27113Y6849D01*
G01X23715Y7347D02*
G01X23715Y6803D01*
G01X31603Y14119D02*
G01X31603Y13575D01*
G01X29307Y13535D02*
G01X31563Y13535D01*
G01X31603Y13575D01*
G01X29307Y13535D02*
G01X29307Y13150D01*
G01X27407Y13199D02*
G01X27407Y13864D01*
G01X29307Y13864D02*
G01X27407Y13864D01*
G01X29307Y14450D02*
G01X29307Y13864D01*
G01X29307Y13864D02*
G01X29307Y13535D01*
G01X30603Y5576D02*
G01X30603Y6056D01*
G01X29103Y7556D01*
G01X29103Y7624D01*
G01X26800Y11899D02*
G01X26506Y11899D01*
G01X27407Y6085D02*
G01X29739Y6085D01*
G01X29853Y5972D01*
G01X29853Y5231D01*
G01X29977Y5108D01*
G01X30224Y5108D01*
G01X30603Y5486D01*
G01X30603Y5576D01*
G01X27407Y5549D02*
G01X27407Y6085D01*
G01X27407Y6085D02*
G01X27407Y6849D01*
G01X27407Y13199D02*
G01X27701Y13199D01*
G01X26800Y15749D02*
G01X27094Y15749D01*
G01X27407Y13864D02*
G01X27407Y14449D01*
G01X27407Y14449D02*
G01X27407Y15445D01*
G01X27407Y15445D02*
G01X27177Y15445D01*
G01X27094Y15528D01*
G01X27094Y15749D01*
G01X31603Y16481D02*
G01X28826Y16481D01*
G01X28078Y15733D01*
G01X28078Y15678D01*
G01X27844Y15445D01*
G01X27407Y15445D01*
G01X29103Y7624D02*
G01X29103Y8256D01*
G01X27260Y10099D01*
G01X26712Y10099D01*
G01X26453Y10358D01*
G01X26453Y11512D01*
G01X26522Y11581D01*
G01X26506Y11899D02*
G01X26506Y11597D01*
G01X26522Y11581D01*
G01X26522Y11581D02*
G01X27671Y11581D01*
G01X27701Y11610D01*
G01X27701Y13199D01*
G01X30103Y5576D02*
G01X30103Y5950D01*
G01X26958Y9095D01*
G01X26800Y9095D01*
G01X26800Y9399D02*
G01X26800Y9095D01*
G54D12*
G01X904Y2711D02*
G01X3159Y4966D01*
G01X2644Y915D02*
G01X4899Y3170D01*
G54D13*
G01X1767Y2293D02*
G01X3688Y4214D01*
G01X2310Y1750D02*
G01X4231Y3671D01*
G54D14*
G01X29103Y5792D02*
G01X29103Y5359D01*
G01X31103Y5792D02*
G01X31103Y5359D01*
G01X31603Y5792D02*
G01X31603Y5359D01*
G01X30603Y5792D02*
G01X30603Y5359D01*
G01X30103Y5792D02*
G01X30103Y5359D01*
G01X30103Y7840D02*
G01X30103Y7407D01*
G01X31603Y7840D02*
G01X31603Y7407D01*
G01X31103Y7840D02*
G01X31103Y7407D01*
G01X30603Y7840D02*
G01X30603Y7407D01*
G01X32103Y7840D02*
G01X32103Y7407D01*
G01X32603Y7840D02*
G01X32603Y7407D01*
G01X32603Y5792D02*
G01X32603Y5359D01*
G01X32103Y5792D02*
G01X32103Y5359D01*
G01X29603Y7840D02*
G01X29603Y7407D01*
G01X29103Y7840D02*
G01X29103Y7407D01*
G01X29603Y5792D02*
G01X29603Y5359D01*

%LPD*%
G36*
G01X11454Y20156D02*
G01X11154Y20156D01*
G01X10329Y17740D01*
G01X10604Y17740D01*
G01X10851Y18502D01*
G01X11752Y18502D01*
G01X11993Y17740D01*
G01X12283Y17740D01*
G01X11454Y20156D01*
G37*

%LPC*%
G36*
G01X11307Y19928D02*
G01X11293Y19928D01*
G01X11279Y19880D01*
G01X11273Y19857D01*
G01X11260Y19810D01*
G01X11240Y19740D01*
G01X11233Y19717D01*
G01X11227Y19695D01*
G01X11213Y19649D01*
G01X11207Y19626D01*
G01X11200Y19604D01*
G01X11193Y19581D01*
G01X11186Y19559D01*
G01X11179Y19536D01*
G01X11152Y19446D01*
G01X11145Y19424D01*
G01X11139Y19402D01*
G01X11132Y19379D01*
G01X11104Y19290D01*
G01X11096Y19267D01*
G01X11089Y19245D01*
G01X11082Y19222D01*
G01X11075Y19200D01*
G01X11068Y19177D01*
G01X11060Y19155D01*
G01X11046Y19109D01*
G01X10921Y18717D01*
G01X11683Y18717D01*
G01X11557Y19109D01*
G01X11541Y19155D01*
G01X11534Y19177D01*
G01X11526Y19200D01*
G01X11519Y19223D01*
G01X11512Y19245D01*
G01X11497Y19290D01*
G01X11490Y19313D01*
G01X11483Y19335D01*
G01X11476Y19358D01*
G01X11455Y19425D01*
G01X11448Y19447D01*
G01X11441Y19470D01*
G01X11435Y19492D01*
G01X11428Y19515D01*
G01X11421Y19537D01*
G01X11414Y19560D01*
G01X11401Y19605D01*
G01X11394Y19628D01*
G01X11387Y19650D01*
G01X11381Y19673D01*
G01X11360Y19742D01*
G01X11354Y19765D01*
G01X11340Y19811D01*
G01X11334Y19834D01*
G01X11327Y19857D01*
G01X11320Y19881D01*
G01X11307Y19928D01*
G37*

%LPD*%
G36*
G01X9052Y20156D02*
G01X8432Y20156D01*
G01X8432Y17740D01*
G01X9062Y17740D01*
G01X9087Y17741D01*
G01X9113Y17742D01*
G01X9138Y17743D01*
G01X9163Y17745D01*
G01X9187Y17747D01*
G01X9212Y17749D01*
G01X9235Y17752D01*
G01X9259Y17756D01*
G01X9283Y17759D01*
G01X9306Y17763D01*
G01X9328Y17768D01*
G01X9351Y17772D01*
G01X9373Y17778D01*
G01X9395Y17783D01*
G01X9416Y17789D01*
G01X9438Y17795D01*
G01X9459Y17802D01*
G01X9479Y17809D01*
G01X9500Y17816D01*
G01X9520Y17824D01*
G01X9539Y17832D01*
G01X9559Y17840D01*
G01X9597Y17858D01*
G01X9615Y17867D01*
G01X9634Y17877D01*
G01X9651Y17887D01*
G01X9669Y17898D01*
G01X9686Y17908D01*
G01X9703Y17920D01*
G01X9720Y17931D01*
G01X9736Y17943D01*
G01X9753Y17955D01*
G01X9768Y17968D01*
G01X9784Y17980D01*
G01X9799Y17994D01*
G01X9814Y18007D01*
G01X9842Y18035D01*
G01X9856Y18050D01*
G01X9870Y18064D01*
G01X9883Y18080D01*
G01X9896Y18095D01*
G01X9909Y18111D01*
G01X9933Y18143D01*
G01X9945Y18160D01*
G01X9967Y18194D01*
G01X9989Y18230D01*
G01X9999Y18248D01*
G01X10009Y18267D01*
G01X10036Y18324D01*
G01X10045Y18344D01*
G01X10053Y18364D01*
G01X10061Y18385D01*
G01X10069Y18405D01*
G01X10083Y18447D01*
G01X10089Y18469D01*
G01X10096Y18491D01*
G01X10102Y18513D01*
G01X10107Y18535D01*
G01X10113Y18558D01*
G01X10118Y18581D01*
G01X10122Y18604D01*
G01X10127Y18628D01*
G01X10135Y18676D01*
G01X10138Y18700D01*
G01X10141Y18725D01*
G01X10144Y18749D01*
G01X10147Y18775D01*
G01X10149Y18800D01*
G01X10151Y18826D01*
G01X10154Y18904D01*
G01X10154Y19012D01*
G01X10151Y19090D01*
G01X10149Y19116D01*
G01X10147Y19141D01*
G01X10141Y19191D01*
G01X10135Y19239D01*
G01X10127Y19287D01*
G01X10122Y19310D01*
G01X10118Y19333D01*
G01X10113Y19356D01*
G01X10107Y19379D01*
G01X10102Y19401D01*
G01X10096Y19423D01*
G01X10089Y19444D01*
G01X10083Y19465D01*
G01X10076Y19486D01*
G01X10068Y19507D01*
G01X10061Y19527D01*
G01X10053Y19548D01*
G01X10045Y19567D01*
G01X10036Y19587D01*
G01X10018Y19625D01*
G01X10008Y19643D01*
G01X9998Y19662D01*
G01X9988Y19680D01*
G01X9978Y19697D01*
G01X9956Y19731D01*
G01X9932Y19765D01*
G01X9920Y19781D01*
G01X9908Y19796D01*
G01X9895Y19812D01*
G01X9869Y19842D01*
G01X9827Y19884D01*
G01X9812Y19897D01*
G01X9797Y19911D01*
G01X9782Y19923D01*
G01X9766Y19936D01*
G01X9734Y19960D01*
G01X9718Y19971D01*
G01X9701Y19983D01*
G01X9684Y19993D01*
G01X9666Y20004D01*
G01X9649Y20014D01*
G01X9630Y20024D01*
G01X9612Y20033D01*
G01X9555Y20060D01*
G01X9515Y20076D01*
G01X9475Y20090D01*
G01X9454Y20097D01*
G01X9433Y20103D01*
G01X9389Y20115D01*
G01X9345Y20125D01*
G01X9322Y20129D01*
G01X9299Y20134D01*
G01X9276Y20138D01*
G01X9204Y20147D01*
G01X9129Y20153D01*
G01X9104Y20154D01*
G01X9052Y20156D01*
G37*

%LPC*%
G36*
G01X9028Y19931D02*
G01X8706Y19931D01*
G01X8706Y17964D01*
G01X9028Y17964D01*
G01X9054Y17965D01*
G01X9079Y17966D01*
G01X9127Y17970D01*
G01X9175Y17976D01*
G01X9197Y17979D01*
G01X9220Y17983D01*
G01X9264Y17993D01*
G01X9285Y17998D01*
G01X9307Y18004D01*
G01X9367Y18025D01*
G01X9387Y18033D01*
G01X9425Y18049D01*
G01X9443Y18058D01*
G01X9461Y18068D01*
G01X9495Y18088D01*
G01X9529Y18110D01*
G01X9545Y18122D01*
G01X9575Y18146D01*
G01X9590Y18159D01*
G01X9604Y18172D01*
G01X9619Y18186D01*
G01X9632Y18200D01*
G01X9646Y18215D01*
G01X9659Y18230D01*
G01X9671Y18245D01*
G01X9695Y18277D01*
G01X9706Y18293D01*
G01X9728Y18327D01*
G01X9748Y18363D01*
G01X9758Y18382D01*
G01X9767Y18400D01*
G01X9776Y18420D01*
G01X9784Y18439D01*
G01X9800Y18479D01*
G01X9814Y18521D01*
G01X9820Y18542D01*
G01X9832Y18586D01*
G01X9837Y18609D01*
G01X9842Y18631D01*
G01X9847Y18655D01*
G01X9851Y18678D01*
G01X9859Y18726D01*
G01X9862Y18750D01*
G01X9865Y18775D01*
G01X9867Y18800D01*
G01X9871Y18852D01*
G01X9873Y18904D01*
G01X9873Y18931D01*
G01X9874Y18958D01*
G01X9873Y18985D01*
G01X9873Y19012D01*
G01X9871Y19064D01*
G01X9869Y19090D01*
G01X9865Y19140D01*
G01X9862Y19165D01*
G01X9859Y19189D01*
G01X9851Y19237D01*
G01X9847Y19260D01*
G01X9842Y19283D01*
G01X9832Y19327D01*
G01X9826Y19349D01*
G01X9814Y19391D01*
G01X9807Y19412D01*
G01X9800Y19432D01*
G01X9784Y19472D01*
G01X9776Y19491D01*
G01X9767Y19510D01*
G01X9758Y19528D01*
G01X9738Y19564D01*
G01X9728Y19581D01*
G01X9717Y19598D01*
G01X9695Y19630D01*
G01X9683Y19646D01*
G01X9659Y19676D01*
G01X9646Y19690D01*
G01X9632Y19704D01*
G01X9619Y19718D01*
G01X9604Y19731D01*
G01X9590Y19744D01*
G01X9575Y19757D01*
G01X9560Y19769D01*
G01X9545Y19780D01*
G01X9529Y19791D01*
G01X9512Y19802D01*
G01X9461Y19832D01*
G01X9425Y19850D01*
G01X9387Y19866D01*
G01X9327Y19887D01*
G01X9307Y19893D01*
G01X9285Y19898D01*
G01X9264Y19903D01*
G01X9220Y19913D01*
G01X9197Y19916D01*
G01X9175Y19920D01*
G01X9151Y19923D01*
G01X9079Y19929D01*
G01X9054Y19930D01*
G01X9028Y19931D01*
G37*

%LPD*%
G36*
G01X3677Y20367D02*
G01X3410Y20367D01*
G01X3410Y17740D01*
G01X3677Y17740D01*
G01X3677Y19044D01*
G01X3699Y19067D01*
G01X3722Y19090D01*
G01X3744Y19111D01*
G01X3765Y19132D01*
G01X3787Y19151D01*
G01X3808Y19170D01*
G01X3828Y19187D01*
G01X3849Y19204D01*
G01X3869Y19220D01*
G01X3909Y19248D01*
G01X3929Y19261D01*
G01X3950Y19272D01*
G01X3970Y19283D01*
G01X3990Y19293D01*
G01X4010Y19301D01*
G01X4031Y19309D01*
G01X4052Y19316D01*
G01X4073Y19321D01*
G01X4095Y19326D01*
G01X4116Y19329D01*
G01X4139Y19332D01*
G01X4161Y19333D01*
G01X4185Y19334D01*
G01X4207Y19334D01*
G01X4251Y19330D01*
G01X4271Y19327D01*
G01X4291Y19323D01*
G01X4309Y19318D01*
G01X4327Y19312D01*
G01X4344Y19305D01*
G01X4361Y19297D01*
G01X4391Y19279D01*
G01X4405Y19268D01*
G01X4419Y19256D01*
G01X4443Y19230D01*
G01X4454Y19215D01*
G01X4474Y19183D01*
G01X4483Y19165D01*
G01X4499Y19127D01*
G01X4506Y19106D01*
G01X4512Y19084D01*
G01X4517Y19061D01*
G01X4522Y19037D01*
G01X4526Y19012D01*
G01X4530Y18986D01*
G01X4533Y18959D01*
G01X4535Y18930D01*
G01X4536Y18901D01*
G01X4537Y18871D01*
G01X4538Y18839D01*
G01X4538Y17740D01*
G01X4809Y17740D01*
G01X4809Y18872D01*
G01X4808Y18903D01*
G01X4808Y18933D01*
G01X4804Y18991D01*
G01X4802Y19019D01*
G01X4799Y19046D01*
G01X4795Y19073D01*
G01X4791Y19099D01*
G01X4787Y19124D01*
G01X4782Y19149D01*
G01X4776Y19173D01*
G01X4770Y19196D01*
G01X4763Y19219D01*
G01X4755Y19240D01*
G01X4747Y19262D01*
G01X4739Y19282D01*
G01X4730Y19302D01*
G01X4710Y19340D01*
G01X4688Y19374D01*
G01X4676Y19391D01*
G01X4650Y19421D01*
G01X4637Y19435D01*
G01X4622Y19449D01*
G01X4608Y19462D01*
G01X4592Y19474D01*
G01X4560Y19496D01*
G01X4542Y19506D01*
G01X4525Y19515D01*
G01X4487Y19531D01*
G01X4468Y19538D01*
G01X4426Y19550D01*
G01X4405Y19555D01*
G01X4383Y19559D01*
G01X4337Y19565D01*
G01X4313Y19567D01*
G01X4289Y19568D01*
G01X4264Y19568D01*
G01X4212Y19566D01*
G01X4187Y19563D01*
G01X4163Y19560D01*
G01X4115Y19550D01*
G01X4092Y19544D01*
G01X4069Y19537D01*
G01X4046Y19529D01*
G01X4002Y19511D01*
G01X3980Y19501D01*
G01X3959Y19490D01*
G01X3917Y19466D01*
G01X3897Y19454D01*
G01X3837Y19412D01*
G01X3817Y19397D01*
G01X3798Y19382D01*
G01X3741Y19334D01*
G01X3722Y19317D01*
G01X3704Y19300D01*
G01X3685Y19283D01*
G01X3667Y19265D01*
G01X3677Y19638D01*
G01X3677Y20367D01*
G37*

%LPD*%
G36*
G01X15316Y20198D02*
G01X15263Y20198D01*
G01X15237Y20197D01*
G01X15210Y20195D01*
G01X15185Y20193D01*
G01X15159Y20190D01*
G01X15134Y20186D01*
G01X15110Y20182D01*
G01X15085Y20177D01*
G01X15061Y20171D01*
G01X15038Y20165D01*
G01X14992Y20151D01*
G01X14948Y20135D01*
G01X14926Y20126D01*
G01X14906Y20116D01*
G01X14885Y20106D01*
G01X14865Y20095D01*
G01X14846Y20084D01*
G01X14808Y20060D01*
G01X14772Y20034D01*
G01X14756Y20020D01*
G01X14739Y20006D01*
G01X14724Y19991D01*
G01X14708Y19976D01*
G01X14694Y19961D01*
G01X14680Y19945D01*
G01X14666Y19928D01*
G01X14654Y19911D01*
G01X14641Y19894D01*
G01X14619Y19858D01*
G01X14609Y19840D01*
G01X14591Y19802D01*
G01X14583Y19782D01*
G01X14569Y19742D01*
G01X14563Y19721D01*
G01X14558Y19700D01*
G01X14554Y19679D01*
G01X14550Y19657D01*
G01X14547Y19635D01*
G01X14545Y19613D01*
G01X14544Y19591D01*
G01X14544Y19539D01*
G01X14546Y19511D01*
G01X14549Y19484D01*
G01X14553Y19457D01*
G01X14558Y19431D01*
G01X14564Y19407D01*
G01X14580Y19359D01*
G01X14589Y19337D01*
G01X14599Y19315D01*
G01X14621Y19273D01*
G01X14634Y19254D01*
G01X14647Y19234D01*
G01X14660Y19216D01*
G01X14675Y19198D01*
G01X14690Y19181D01*
G01X14705Y19165D01*
G01X14721Y19149D01*
G01X14738Y19133D01*
G01X14755Y19119D01*
G01X14772Y19104D01*
G01X14790Y19091D01*
G01X14808Y19077D01*
G01X14826Y19065D01*
G01X14864Y19041D01*
G01X14921Y19008D01*
G01X14940Y18998D01*
G01X14959Y18989D01*
G01X14979Y18980D01*
G01X15017Y18962D01*
G01X15035Y18954D01*
G01X15385Y18799D01*
G01X15433Y18777D01*
G01X15457Y18767D01*
G01X15503Y18745D01*
G01X15547Y18723D01*
G01X15567Y18712D01*
G01X15588Y18700D01*
G01X15626Y18676D01*
G01X15644Y18663D01*
G01X15661Y18650D01*
G01X15678Y18636D01*
G01X15693Y18622D01*
G01X15708Y18607D01*
G01X15721Y18591D01*
G01X15734Y18574D01*
G01X15746Y18557D01*
G01X15756Y18539D01*
G01X15766Y18519D01*
G01X15774Y18499D01*
G01X15781Y18478D01*
G01X15787Y18455D01*
G01X15791Y18432D01*
G01X15795Y18407D01*
G01X15797Y18381D01*
G01X15797Y18331D01*
G01X15795Y18308D01*
G01X15792Y18286D01*
G01X15788Y18265D01*
G01X15783Y18244D01*
G01X15777Y18224D01*
G01X15761Y18184D01*
G01X15752Y18166D01*
G01X15741Y18148D01*
G01X15729Y18130D01*
G01X15716Y18113D01*
G01X15703Y18097D01*
G01X15688Y18082D01*
G01X15672Y18067D01*
G01X15656Y18053D01*
G01X15620Y18027D01*
G01X15600Y18015D01*
G01X15579Y18004D01*
G01X15558Y17994D01*
G01X15536Y17985D01*
G01X15513Y17976D01*
G01X15489Y17968D01*
G01X15464Y17961D01*
G01X15438Y17955D01*
G01X15412Y17950D01*
G01X15356Y17942D01*
G01X15327Y17940D01*
G01X15297Y17938D01*
G01X15242Y17938D01*
G01X15218Y17939D01*
G01X15194Y17941D01*
G01X15171Y17943D01*
G01X15147Y17947D01*
G01X15123Y17950D01*
G01X15077Y17960D01*
G01X15053Y17965D01*
G01X15031Y17971D01*
G01X15008Y17978D01*
G01X14985Y17986D01*
G01X14941Y18002D01*
G01X14919Y18011D01*
G01X14897Y18021D01*
G01X14876Y18031D01*
G01X14854Y18042D01*
G01X14833Y18053D01*
G01X14813Y18065D01*
G01X14792Y18078D01*
G01X14772Y18090D01*
G01X14752Y18104D01*
G01X14714Y18132D01*
G01X14676Y18162D01*
G01X14658Y18178D01*
G01X14641Y18194D01*
G01X14623Y18211D01*
G01X14606Y18228D01*
G01X14590Y18245D01*
G01X14425Y18057D01*
G01X14440Y18041D01*
G01X14456Y18024D01*
G01X14473Y18009D01*
G01X14489Y17993D01*
G01X14523Y17963D01*
G01X14577Y17921D01*
G01X14595Y17908D01*
G01X14614Y17894D01*
G01X14633Y17882D01*
G01X14652Y17869D01*
G01X14671Y17858D01*
G01X14691Y17846D01*
G01X14710Y17835D01*
G01X14731Y17824D01*
G01X14751Y17814D01*
G01X14793Y17794D01*
G01X14835Y17776D01*
G01X14879Y17760D01*
G01X14902Y17753D01*
G01X14924Y17746D01*
G01X14947Y17739D01*
G01X14993Y17727D01*
G01X15016Y17722D01*
G01X15040Y17717D01*
G01X15088Y17709D01*
G01X15112Y17706D01*
G01X15137Y17703D01*
G01X15161Y17701D01*
G01X15186Y17699D01*
G01X15212Y17698D01*
G01X15237Y17697D01*
G01X15291Y17697D01*
G01X15319Y17698D01*
G01X15347Y17700D01*
G01X15374Y17702D01*
G01X15401Y17705D01*
G01X15428Y17709D01*
G01X15454Y17713D01*
G01X15479Y17717D01*
G01X15504Y17723D01*
G01X15529Y17728D01*
G01X15577Y17742D01*
G01X15600Y17749D01*
G01X15623Y17757D01*
G01X15645Y17766D01*
G01X15666Y17775D01*
G01X15688Y17785D01*
G01X15709Y17795D01*
G01X15749Y17817D01*
G01X15768Y17828D01*
G01X15786Y17840D01*
G01X15822Y17866D01*
G01X15839Y17879D01*
G01X15856Y17893D01*
G01X15872Y17907D01*
G01X15902Y17937D01*
G01X15916Y17952D01*
G01X15930Y17968D01*
G01X15943Y17985D01*
G01X15955Y18001D01*
G01X15979Y18035D01*
G01X15989Y18053D01*
G01X16000Y18071D01*
G01X16009Y18089D01*
G01X16018Y18108D01*
G01X16034Y18146D01*
G01X16041Y18165D01*
G01X16053Y18205D01*
G01X16058Y18226D01*
G01X16062Y18246D01*
G01X16066Y18267D01*
G01X16069Y18288D01*
G01X16071Y18309D01*
G01X16073Y18331D01*
G01X16074Y18352D01*
G01X16075Y18374D01*
G01X16074Y18403D01*
G01X16072Y18432D01*
G01X16070Y18460D01*
G01X16066Y18487D01*
G01X16062Y18513D01*
G01X16057Y18538D01*
G01X16050Y18563D01*
G01X16043Y18586D01*
G01X16035Y18609D01*
G01X16017Y18653D01*
G01X16006Y18674D01*
G01X15995Y18694D01*
G01X15983Y18714D01*
G01X15970Y18733D01*
G01X15957Y18751D01*
G01X15943Y18769D01*
G01X15928Y18786D01*
G01X15913Y18802D01*
G01X15897Y18819D01*
G01X15863Y18849D01*
G01X15845Y18864D01*
G01X15827Y18878D01*
G01X15808Y18892D01*
G01X15788Y18905D01*
G01X15769Y18918D01*
G01X15749Y18931D01*
G01X15707Y18955D01*
G01X15685Y18966D01*
G01X15664Y18978D01*
G01X15641Y18989D01*
G01X15619Y18999D01*
G01X15597Y19010D01*
G01X15574Y19020D01*
G01X15224Y19169D01*
G01X15184Y19186D01*
G01X15163Y19195D01*
G01X15123Y19213D01*
G01X15063Y19243D01*
G01X15043Y19254D01*
G01X15024Y19265D01*
G01X15006Y19277D01*
G01X14987Y19289D01*
G01X14953Y19315D01*
G01X14936Y19329D01*
G01X14906Y19359D01*
G01X14893Y19375D01*
G01X14880Y19392D01*
G01X14868Y19410D01*
G01X14858Y19429D01*
G01X14848Y19449D01*
G01X14840Y19469D01*
G01X14833Y19491D01*
G01X14828Y19513D01*
G01X14824Y19537D01*
G01X14821Y19562D01*
G01X14821Y19612D01*
G01X14823Y19636D01*
G01X14827Y19658D01*
G01X14832Y19680D01*
G01X14838Y19702D01*
G01X14854Y19742D01*
G01X14864Y19761D01*
G01X14888Y19797D01*
G01X14902Y19814D01*
G01X14917Y19829D01*
G01X14933Y19844D01*
G01X14950Y19858D01*
G01X14968Y19872D01*
G01X14987Y19884D01*
G01X15007Y19896D01*
G01X15028Y19906D01*
G01X15051Y19916D01*
G01X15074Y19925D01*
G01X15098Y19932D01*
G01X15123Y19939D01*
G01X15149Y19945D01*
G01X15175Y19949D01*
G01X15203Y19953D01*
G01X15231Y19956D01*
G01X15260Y19957D01*
G01X15290Y19958D01*
G01X15318Y19958D01*
G01X15374Y19954D01*
G01X15401Y19951D01*
G01X15427Y19947D01*
G01X15453Y19942D01*
G01X15479Y19936D01*
G01X15504Y19930D01*
G01X15552Y19914D01*
G01X15576Y19905D01*
G01X15599Y19896D01*
G01X15622Y19885D01*
G01X15644Y19874D01*
G01X15688Y19850D01*
G01X15709Y19837D01*
G01X15729Y19823D01*
G01X15750Y19809D01*
G01X15770Y19793D01*
G01X15790Y19778D01*
G01X15847Y19727D01*
G01X15993Y19902D01*
G01X15977Y19918D01*
G01X15960Y19934D01*
G01X15944Y19950D01*
G01X15927Y19965D01*
G01X15909Y19979D01*
G01X15891Y19994D01*
G01X15873Y20008D01*
G01X15854Y20022D01*
G01X15835Y20035D01*
G01X15815Y20048D01*
G01X15795Y20060D01*
G01X15753Y20084D01*
G01X15732Y20095D01*
G01X15666Y20125D01*
G01X15643Y20134D01*
G01X15619Y20142D01*
G01X15596Y20150D01*
G01X15572Y20158D01*
G01X15548Y20164D01*
G01X15523Y20171D01*
G01X15499Y20176D01*
G01X15473Y20181D01*
G01X15448Y20186D01*
G01X15370Y20195D01*
G01X15343Y20197D01*
G01X15316Y20198D01*
G37*

%LPD*%
G36*
G01X13541Y20198D02*
G01X13491Y20198D01*
G01X13468Y20197D01*
G01X13446Y20196D01*
G01X13423Y20194D01*
G01X13379Y20190D01*
G01X13357Y20187D01*
G01X13336Y20184D01*
G01X13314Y20180D01*
G01X13272Y20172D01*
G01X13251Y20167D01*
G01X13230Y20161D01*
G01X13210Y20155D01*
G01X13189Y20149D01*
G01X13129Y20128D01*
G01X13091Y20112D01*
G01X13053Y20094D01*
G01X13034Y20084D01*
G01X13016Y20074D01*
G01X12997Y20064D01*
G01X12980Y20053D01*
G01X12962Y20042D01*
G01X12945Y20031D01*
G01X12927Y20019D01*
G01X12910Y20007D01*
G01X12894Y19994D01*
G01X12877Y19981D01*
G01X12861Y19968D01*
G01X12829Y19940D01*
G01X12784Y19895D01*
G01X12770Y19880D01*
G01X12755Y19864D01*
G01X12741Y19847D01*
G01X12728Y19831D01*
G01X12714Y19813D01*
G01X12701Y19796D01*
G01X12688Y19778D01*
G01X12664Y19742D01*
G01X12640Y19704D01*
G01X12607Y19644D01*
G01X12597Y19623D01*
G01X12587Y19603D01*
G01X12577Y19581D01*
G01X12568Y19560D01*
G01X12550Y19516D01*
G01X12534Y19470D01*
G01X12520Y19424D01*
G01X12506Y19376D01*
G01X12494Y19326D01*
G01X12484Y19276D01*
G01X12479Y19250D01*
G01X12471Y19198D01*
G01X12462Y19117D01*
G01X12460Y19090D01*
G01X12456Y19034D01*
G01X12455Y19006D01*
G01X12455Y18977D01*
G01X12454Y18948D01*
G01X12455Y18919D01*
G01X12455Y18890D01*
G01X12456Y18861D01*
G01X12462Y18777D01*
G01X12471Y18696D01*
G01X12483Y18618D01*
G01X12488Y18592D01*
G01X12494Y18567D01*
G01X12499Y18542D01*
G01X12505Y18518D01*
G01X12512Y18493D01*
G01X12518Y18469D01*
G01X12526Y18446D01*
G01X12533Y18423D01*
G01X12549Y18377D01*
G01X12557Y18355D01*
G01X12575Y18311D01*
G01X12595Y18269D01*
G01X12605Y18249D01*
G01X12615Y18228D01*
G01X12626Y18209D01*
G01X12637Y18189D01*
G01X12648Y18170D01*
G01X12660Y18151D01*
G01X12672Y18133D01*
G01X12684Y18114D01*
G01X12697Y18097D01*
G01X12710Y18079D01*
G01X12723Y18062D01*
G01X12737Y18046D01*
G01X12750Y18029D01*
G01X12764Y18013D01*
G01X12779Y17998D01*
G01X12793Y17983D01*
G01X12823Y17953D01*
G01X12839Y17939D01*
G01X12854Y17925D01*
G01X12886Y17899D01*
G01X12903Y17887D01*
G01X12919Y17874D01*
G01X12936Y17863D01*
G01X12953Y17851D01*
G01X12971Y17840D01*
G01X12988Y17830D01*
G01X13006Y17819D01*
G01X13024Y17810D01*
G01X13043Y17800D01*
G01X13061Y17791D01*
G01X13080Y17782D01*
G01X13118Y17766D01*
G01X13137Y17759D01*
G01X13177Y17745D01*
G01X13197Y17739D01*
G01X13216Y17733D01*
G01X13258Y17723D01*
G01X13278Y17719D01*
G01X13320Y17711D01*
G01X13341Y17708D01*
G01X13363Y17705D01*
G01X13384Y17702D01*
G01X13406Y17700D01*
G01X13472Y17697D01*
G01X13521Y17697D01*
G01X13546Y17698D01*
G01X13621Y17704D01*
G01X13645Y17707D01*
G01X13668Y17711D01*
G01X13692Y17715D01*
G01X13738Y17725D01*
G01X13760Y17731D01*
G01X13826Y17752D01*
G01X13847Y17760D01*
G01X13889Y17778D01*
G01X13909Y17787D01*
G01X13929Y17797D01*
G01X13949Y17808D01*
G01X13968Y17819D01*
G01X14025Y17855D01*
G01X14043Y17868D01*
G01X14062Y17882D01*
G01X14079Y17896D01*
G01X14097Y17911D01*
G01X14114Y17926D01*
G01X14132Y17941D01*
G01X14149Y17957D01*
G01X14165Y17974D01*
G01X14182Y17991D01*
G01X14198Y18008D01*
G01X14214Y18026D01*
G01X14229Y18044D01*
G01X14079Y18215D01*
G01X14061Y18196D01*
G01X14044Y18178D01*
G01X14027Y18161D01*
G01X13991Y18127D01*
G01X13937Y18082D01*
G01X13918Y18069D01*
G01X13899Y18055D01*
G01X13861Y18031D01*
G01X13841Y18020D01*
G01X13801Y18000D01*
G01X13781Y17991D01*
G01X13739Y17975D01*
G01X13717Y17968D01*
G01X13673Y17956D01*
G01X13651Y17951D01*
G01X13628Y17947D01*
G01X13604Y17944D01*
G01X13581Y17941D01*
G01X13557Y17940D01*
G01X13532Y17938D01*
G01X13485Y17938D01*
G01X13464Y17939D01*
G01X13442Y17941D01*
G01X13400Y17945D01*
G01X13379Y17948D01*
G01X13358Y17952D01*
G01X13338Y17956D01*
G01X13298Y17966D01*
G01X13260Y17978D01*
G01X13241Y17985D01*
G01X13222Y17993D01*
G01X13204Y18001D01*
G01X13187Y18009D01*
G01X13169Y18018D01*
G01X13118Y18048D01*
G01X13102Y18059D01*
G01X13085Y18071D01*
G01X13070Y18083D01*
G01X13054Y18095D01*
G01X13040Y18108D01*
G01X13010Y18136D01*
G01X12996Y18150D01*
G01X12983Y18165D01*
G01X12969Y18180D01*
G01X12943Y18212D01*
G01X12919Y18246D01*
G01X12907Y18264D01*
G01X12896Y18282D01*
G01X12885Y18301D01*
G01X12875Y18320D01*
G01X12864Y18339D01*
G01X12854Y18359D01*
G01X12845Y18379D01*
G01X12827Y18421D01*
G01X12819Y18442D01*
G01X12811Y18464D01*
G01X12803Y18487D01*
G01X12796Y18509D01*
G01X12789Y18532D01*
G01X12771Y18604D01*
G01X12761Y18654D01*
G01X12757Y18679D01*
G01X12749Y18731D01*
G01X12743Y18785D01*
G01X12741Y18812D01*
G01X12739Y18840D01*
G01X12738Y18868D01*
G01X12736Y18896D01*
G01X12736Y18925D01*
G01X12735Y18954D01*
G01X12737Y19012D01*
G01X12739Y19068D01*
G01X12741Y19095D01*
G01X12747Y19149D01*
G01X12750Y19175D01*
G01X12758Y19227D01*
G01X12762Y19252D01*
G01X12767Y19277D01*
G01X12773Y19302D01*
G01X12785Y19350D01*
G01X12791Y19373D01*
G01X12798Y19396D01*
G01X12822Y19462D01*
G01X12831Y19483D01*
G01X12839Y19504D01*
G01X12849Y19525D01*
G01X12859Y19545D01*
G01X12879Y19583D01*
G01X12890Y19602D01*
G01X12901Y19620D01*
G01X12913Y19638D01*
G01X12937Y19672D01*
G01X12950Y19689D01*
G01X12963Y19705D01*
G01X12976Y19720D01*
G01X12990Y19736D01*
G01X13032Y19778D01*
G01X13047Y19791D01*
G01X13063Y19804D01*
G01X13078Y19816D01*
G01X13094Y19828D01*
G01X13110Y19839D01*
G01X13144Y19861D01*
G01X13161Y19870D01*
G01X13179Y19880D01*
G01X13196Y19888D01*
G01X13214Y19897D01*
G01X13233Y19905D01*
G01X13251Y19912D01*
G01X13270Y19919D01*
G01X13289Y19925D01*
G01X13309Y19931D01*
G01X13328Y19936D01*
G01X13348Y19940D01*
G01X13369Y19944D01*
G01X13389Y19948D01*
G01X13431Y19954D01*
G01X13452Y19955D01*
G01X13474Y19957D01*
G01X13496Y19958D01*
G01X13544Y19958D01*
G01X13569Y19956D01*
G01X13595Y19954D01*
G01X13619Y19950D01*
G01X13644Y19946D01*
G01X13667Y19941D01*
G01X13691Y19935D01*
G01X13713Y19929D01*
G01X13736Y19921D01*
G01X13758Y19913D01*
G01X13779Y19904D01*
G01X13821Y19884D01*
G01X13841Y19873D01*
G01X13861Y19861D01*
G01X13899Y19835D01*
G01X13935Y19807D01*
G01X13953Y19792D01*
G01X13970Y19777D01*
G01X13987Y19761D01*
G01X14019Y19727D01*
G01X14171Y19905D01*
G01X14157Y19919D01*
G01X14144Y19933D01*
G01X14129Y19947D01*
G01X14115Y19961D01*
G01X14099Y19975D01*
G01X14084Y19988D01*
G01X14067Y20002D01*
G01X14051Y20015D01*
G01X14033Y20028D01*
G01X14016Y20040D01*
G01X13998Y20053D01*
G01X13979Y20065D01*
G01X13941Y20087D01*
G01X13921Y20098D01*
G01X13858Y20128D01*
G01X13836Y20137D01*
G01X13814Y20145D01*
G01X13768Y20161D01*
G01X13745Y20167D01*
G01X13721Y20174D01*
G01X13671Y20184D01*
G01X13621Y20192D01*
G01X13594Y20194D01*
G01X13568Y20196D01*
G01X13541Y20198D01*
G37*

%LPD*%
G36*
G01X7508Y20027D02*
G01X7284Y20027D01*
G01X7251Y19522D01*
G01X6970Y19505D01*
G01X6970Y19301D01*
G01X7241Y19301D01*
G01X7241Y18252D01*
G01X7244Y18177D01*
G01X7246Y18153D01*
G01X7252Y18107D01*
G01X7256Y18084D01*
G01X7260Y18062D01*
G01X7270Y18020D01*
G01X7276Y17999D01*
G01X7283Y17980D01*
G01X7290Y17960D01*
G01X7306Y17924D01*
G01X7315Y17906D01*
G01X7325Y17889D01*
G01X7347Y17857D01*
G01X7359Y17842D01*
G01X7371Y17828D01*
G01X7384Y17815D01*
G01X7398Y17802D01*
G01X7413Y17789D01*
G01X7445Y17767D01*
G01X7462Y17757D01*
G01X7498Y17739D01*
G01X7518Y17731D01*
G01X7538Y17724D01*
G01X7559Y17718D01*
G01X7581Y17712D01*
G01X7604Y17708D01*
G01X7628Y17704D01*
G01X7653Y17701D01*
G01X7705Y17697D01*
G01X7733Y17697D01*
G01X7758Y17698D01*
G01X7784Y17700D01*
G01X7810Y17703D01*
G01X7837Y17707D01*
G01X7864Y17712D01*
G01X7918Y17724D01*
G01X7945Y17731D01*
G01X7972Y17739D01*
G01X8024Y17755D01*
G01X8049Y17763D01*
G01X7997Y17968D01*
G01X7973Y17958D01*
G01X7948Y17949D01*
G01X7922Y17940D01*
G01X7895Y17933D01*
G01X7868Y17927D01*
G01X7841Y17922D01*
G01X7814Y17919D01*
G01X7789Y17918D01*
G01X7762Y17919D01*
G01X7738Y17921D01*
G01X7715Y17924D01*
G01X7693Y17929D01*
G01X7673Y17935D01*
G01X7654Y17942D01*
G01X7636Y17951D01*
G01X7620Y17960D01*
G01X7605Y17971D01*
G01X7591Y17983D01*
G01X7567Y18011D01*
G01X7557Y18027D01*
G01X7548Y18044D01*
G01X7540Y18061D01*
G01X7533Y18080D01*
G01X7527Y18100D01*
G01X7521Y18121D01*
G01X7517Y18143D01*
G01X7513Y18166D01*
G01X7511Y18190D01*
G01X7509Y18215D01*
G01X7508Y18241D01*
G01X7508Y19301D01*
G01X8000Y19301D01*
G01X8000Y19522D01*
G01X7508Y19522D01*
G01X7508Y20027D01*
G37*

%LPD*%
G36*
G01X6076Y19568D02*
G01X6023Y19568D01*
G01X5996Y19566D01*
G01X5970Y19565D01*
G01X5918Y19559D01*
G01X5892Y19555D01*
G01X5867Y19551D01*
G01X5842Y19546D01*
G01X5817Y19540D01*
G01X5769Y19528D01*
G01X5745Y19521D01*
G01X5722Y19514D01*
G01X5676Y19498D01*
G01X5654Y19489D01*
G01X5632Y19481D01*
G01X5610Y19472D01*
G01X5589Y19462D01*
G01X5568Y19453D01*
G01X5528Y19433D01*
G01X5509Y19424D01*
G01X5471Y19404D01*
G01X5454Y19393D01*
G01X5436Y19383D01*
G01X5419Y19373D01*
G01X5387Y19353D01*
G01X5371Y19344D01*
G01X5357Y19334D01*
G01X5466Y19146D01*
G01X5500Y19170D01*
G01X5538Y19194D01*
G01X5557Y19205D01*
G01X5577Y19217D01*
G01X5597Y19228D01*
G01X5618Y19240D01*
G01X5639Y19250D01*
G01X5661Y19261D01*
G01X5683Y19271D01*
G01X5706Y19281D01*
G01X5729Y19290D01*
G01X5801Y19314D01*
G01X5825Y19320D01*
G01X5850Y19326D01*
G01X5876Y19332D01*
G01X5901Y19336D01*
G01X5953Y19342D01*
G01X6007Y19344D01*
G01X6035Y19343D01*
G01X6061Y19341D01*
G01X6087Y19338D01*
G01X6111Y19333D01*
G01X6134Y19327D01*
G01X6156Y19320D01*
G01X6176Y19312D01*
G01X6196Y19303D01*
G01X6214Y19293D01*
G01X6231Y19281D01*
G01X6247Y19269D01*
G01X6262Y19256D01*
G01X6277Y19242D01*
G01X6290Y19227D01*
G01X6302Y19211D01*
G01X6313Y19195D01*
G01X6323Y19178D01*
G01X6332Y19160D01*
G01X6341Y19141D01*
G01X6355Y19103D01*
G01X6361Y19083D01*
G01X6367Y19062D01*
G01X6371Y19042D01*
G01X6375Y19020D01*
G01X6378Y18999D01*
G01X6381Y18977D01*
G01X6383Y18955D01*
G01X6384Y18933D01*
G01X6385Y18910D01*
G01X6386Y18888D01*
G01X6386Y18865D01*
G01X6348Y18861D01*
G01X6274Y18851D01*
G01X6238Y18846D01*
G01X6203Y18841D01*
G01X6169Y18836D01*
G01X6135Y18830D01*
G01X6102Y18825D01*
G01X6038Y18813D01*
G01X6007Y18807D01*
G01X5947Y18793D01*
G01X5918Y18786D01*
G01X5890Y18779D01*
G01X5863Y18772D01*
G01X5836Y18764D01*
G01X5810Y18757D01*
G01X5784Y18749D01*
G01X5759Y18741D01*
G01X5711Y18723D01*
G01X5688Y18715D01*
G01X5666Y18705D01*
G01X5645Y18696D01*
G01X5624Y18686D01*
G01X5603Y18677D01*
G01X5584Y18667D01*
G01X5565Y18656D01*
G01X5546Y18646D01*
G01X5528Y18635D01*
G01X5511Y18624D01*
G01X5495Y18612D01*
G01X5479Y18601D01*
G01X5449Y18577D01*
G01X5435Y18564D01*
G01X5422Y18552D01*
G01X5409Y18539D01*
G01X5397Y18525D01*
G01X5386Y18512D01*
G01X5364Y18484D01*
G01X5355Y18470D01*
G01X5337Y18440D01*
G01X5329Y18425D01*
G01X5322Y18409D01*
G01X5315Y18394D01*
G01X5309Y18377D01*
G01X5304Y18361D01*
G01X5299Y18344D01*
G01X5291Y18310D01*
G01X5285Y18274D01*
G01X5283Y18256D01*
G01X5281Y18218D01*
G01X5281Y18172D01*
G01X5283Y18146D01*
G01X5285Y18121D01*
G01X5289Y18096D01*
G01X5293Y18073D01*
G01X5299Y18049D01*
G01X5305Y18027D01*
G01X5312Y18005D01*
G01X5320Y17984D01*
G01X5329Y17963D01*
G01X5339Y17944D01*
G01X5350Y17925D01*
G01X5361Y17907D01*
G01X5373Y17889D01*
G01X5386Y17872D01*
G01X5400Y17856D01*
G01X5414Y17841D01*
G01X5429Y17827D01*
G01X5445Y17813D01*
G01X5479Y17787D01*
G01X5496Y17776D01*
G01X5515Y17765D01*
G01X5534Y17755D01*
G01X5553Y17746D01*
G01X5573Y17738D01*
G01X5594Y17730D01*
G01X5615Y17723D01*
G01X5636Y17717D01*
G01X5658Y17712D01*
G01X5681Y17707D01*
G01X5703Y17704D01*
G01X5727Y17701D01*
G01X5750Y17699D01*
G01X5774Y17697D01*
G01X5823Y17697D01*
G01X5846Y17699D01*
G01X5870Y17701D01*
G01X5893Y17704D01*
G01X5917Y17708D01*
G01X5940Y17712D01*
G01X5963Y17717D01*
G01X5986Y17723D01*
G01X6008Y17730D01*
G01X6031Y17737D01*
G01X6053Y17745D01*
G01X6097Y17763D01*
G01X6119Y17773D01*
G01X6140Y17783D01*
G01X6161Y17794D01*
G01X6224Y17830D01*
G01X6244Y17843D01*
G01X6265Y17856D01*
G01X6285Y17870D01*
G01X6304Y17884D01*
G01X6324Y17898D01*
G01X6343Y17912D01*
G01X6362Y17927D01*
G01X6381Y17943D01*
G01X6400Y17958D01*
G01X6409Y17958D01*
G01X6433Y17740D01*
G01X6654Y17740D01*
G01X6654Y18846D01*
G01X6653Y18873D01*
G01X6653Y18899D01*
G01X6652Y18925D01*
G01X6648Y18975D01*
G01X6642Y19025D01*
G01X6639Y19048D01*
G01X6635Y19072D01*
G01X6625Y19118D01*
G01X6620Y19140D01*
G01X6614Y19162D01*
G01X6608Y19183D01*
G01X6601Y19204D01*
G01X6585Y19244D01*
G01X6567Y19282D01*
G01X6558Y19300D01*
G01X6547Y19318D01*
G01X6537Y19335D01*
G01X6525Y19352D01*
G01X6514Y19368D01*
G01X6475Y19413D01*
G01X6461Y19427D01*
G01X6431Y19453D01*
G01X6415Y19465D01*
G01X6381Y19487D01*
G01X6345Y19507D01*
G01X6326Y19516D01*
G01X6307Y19524D01*
G01X6287Y19531D01*
G01X6266Y19538D01*
G01X6222Y19550D01*
G01X6200Y19555D01*
G01X6176Y19559D01*
G01X6128Y19565D01*
G01X6102Y19566D01*
G01X6076Y19568D01*
G37*

%LPC*%
G36*
G01X6386Y18162D02*
G01X6386Y18684D01*
G01X6343Y18679D01*
G01X6302Y18674D01*
G01X6262Y18668D01*
G01X6224Y18662D01*
G01X6187Y18656D01*
G01X6151Y18650D01*
G01X6116Y18643D01*
G01X6082Y18636D01*
G01X6049Y18629D01*
G01X6018Y18622D01*
G01X5988Y18614D01*
G01X5959Y18606D01*
G01X5931Y18598D01*
G01X5904Y18590D01*
G01X5878Y18581D01*
G01X5830Y18563D01*
G01X5807Y18554D01*
G01X5765Y18534D01*
G01X5727Y18514D01*
G01X5693Y18492D01*
G01X5678Y18481D01*
G01X5663Y18469D01*
G01X5649Y18457D01*
G01X5636Y18445D01*
G01X5624Y18433D01*
G01X5613Y18420D01*
G01X5603Y18408D01*
G01X5593Y18394D01*
G01X5585Y18381D01*
G01X5577Y18367D01*
G01X5570Y18353D01*
G01X5564Y18339D01*
G01X5559Y18325D01*
G01X5554Y18310D01*
G01X5550Y18295D01*
G01X5547Y18279D01*
G01X5545Y18264D01*
G01X5543Y18248D01*
G01X5542Y18231D01*
G01X5542Y18189D01*
G01X5545Y18164D01*
G01X5548Y18141D01*
G01X5553Y18118D01*
G01X5560Y18098D01*
G01X5568Y18078D01*
G01X5577Y18059D01*
G01X5587Y18042D01*
G01X5598Y18026D01*
G01X5610Y18011D01*
G01X5624Y17997D01*
G01X5638Y17985D01*
G01X5654Y17973D01*
G01X5670Y17963D01*
G01X5687Y17953D01*
G01X5705Y17945D01*
G01X5724Y17938D01*
G01X5743Y17932D01*
G01X5763Y17927D01*
G01X5784Y17922D01*
G01X5805Y17919D01*
G01X5849Y17915D01*
G01X5894Y17915D01*
G01X5938Y17919D01*
G01X5960Y17922D01*
G01X5981Y17926D01*
G01X6003Y17931D01*
G01X6045Y17943D01*
G01X6087Y17959D01*
G01X6108Y17968D01*
G01X6129Y17978D01*
G01X6149Y17989D01*
G01X6191Y18013D01*
G01X6212Y18026D01*
G01X6233Y18041D01*
G01X6254Y18055D01*
G01X6276Y18071D01*
G01X6297Y18088D01*
G01X6319Y18105D01*
G01X6341Y18123D01*
G01X6363Y18142D01*
G01X6386Y18162D01*
G37*

%LPD*%
G36*
G01X2285Y20198D02*
G01X2235Y20198D01*
G01X2212Y20197D01*
G01X2190Y20196D01*
G01X2167Y20194D01*
G01X2123Y20190D01*
G01X2101Y20187D01*
G01X2080Y20184D01*
G01X2058Y20180D01*
G01X2016Y20172D01*
G01X1995Y20167D01*
G01X1974Y20161D01*
G01X1954Y20155D01*
G01X1933Y20149D01*
G01X1893Y20135D01*
G01X1874Y20128D01*
G01X1854Y20120D01*
G01X1835Y20112D01*
G01X1797Y20094D01*
G01X1778Y20084D01*
G01X1742Y20064D01*
G01X1706Y20042D01*
G01X1689Y20031D01*
G01X1671Y20019D01*
G01X1654Y20007D01*
G01X1638Y19994D01*
G01X1621Y19981D01*
G01X1605Y19968D01*
G01X1589Y19954D01*
G01X1574Y19940D01*
G01X1558Y19925D01*
G01X1528Y19895D01*
G01X1514Y19880D01*
G01X1499Y19864D01*
G01X1485Y19847D01*
G01X1472Y19831D01*
G01X1458Y19813D01*
G01X1445Y19796D01*
G01X1432Y19778D01*
G01X1408Y19742D01*
G01X1384Y19704D01*
G01X1351Y19644D01*
G01X1341Y19623D01*
G01X1331Y19603D01*
G01X1321Y19581D01*
G01X1312Y19560D01*
G01X1294Y19516D01*
G01X1278Y19470D01*
G01X1264Y19424D01*
G01X1250Y19376D01*
G01X1238Y19326D01*
G01X1228Y19276D01*
G01X1223Y19250D01*
G01X1215Y19198D01*
G01X1206Y19117D01*
G01X1204Y19090D01*
G01X1200Y19034D01*
G01X1199Y19006D01*
G01X1199Y18890D01*
G01X1200Y18861D01*
G01X1206Y18777D01*
G01X1215Y18696D01*
G01X1227Y18618D01*
G01X1232Y18592D01*
G01X1237Y18567D01*
G01X1243Y18542D01*
G01X1249Y18518D01*
G01X1256Y18493D01*
G01X1262Y18469D01*
G01X1270Y18446D01*
G01X1277Y18423D01*
G01X1293Y18377D01*
G01X1301Y18355D01*
G01X1319Y18311D01*
G01X1339Y18269D01*
G01X1349Y18249D01*
G01X1359Y18228D01*
G01X1370Y18209D01*
G01X1381Y18189D01*
G01X1392Y18170D01*
G01X1404Y18151D01*
G01X1416Y18133D01*
G01X1428Y18114D01*
G01X1441Y18097D01*
G01X1454Y18079D01*
G01X1467Y18062D01*
G01X1480Y18046D01*
G01X1494Y18029D01*
G01X1508Y18013D01*
G01X1523Y17998D01*
G01X1537Y17983D01*
G01X1567Y17953D01*
G01X1582Y17939D01*
G01X1598Y17925D01*
G01X1630Y17899D01*
G01X1647Y17887D01*
G01X1663Y17874D01*
G01X1680Y17863D01*
G01X1697Y17851D01*
G01X1714Y17840D01*
G01X1732Y17830D01*
G01X1750Y17819D01*
G01X1768Y17810D01*
G01X1786Y17800D01*
G01X1805Y17791D01*
G01X1823Y17782D01*
G01X1861Y17766D01*
G01X1881Y17759D01*
G01X1900Y17752D01*
G01X1920Y17745D01*
G01X1960Y17733D01*
G01X1980Y17728D01*
G01X2001Y17723D01*
G01X2022Y17719D01*
G01X2042Y17715D01*
G01X2063Y17711D01*
G01X2085Y17708D01*
G01X2106Y17705D01*
G01X2128Y17702D01*
G01X2149Y17700D01*
G01X2215Y17697D01*
G01X2264Y17697D01*
G01X2289Y17698D01*
G01X2364Y17704D01*
G01X2388Y17707D01*
G01X2412Y17711D01*
G01X2435Y17715D01*
G01X2459Y17720D01*
G01X2481Y17725D01*
G01X2504Y17731D01*
G01X2570Y17752D01*
G01X2591Y17760D01*
G01X2612Y17769D01*
G01X2632Y17778D01*
G01X2653Y17787D01*
G01X2673Y17797D01*
G01X2693Y17808D01*
G01X2712Y17819D01*
G01X2769Y17855D01*
G01X2787Y17868D01*
G01X2806Y17882D01*
G01X2823Y17896D01*
G01X2841Y17911D01*
G01X2858Y17926D01*
G01X2876Y17941D01*
G01X2893Y17957D01*
G01X2909Y17974D01*
G01X2926Y17991D01*
G01X2942Y18008D01*
G01X2974Y18044D01*
G01X2822Y18215D01*
G01X2805Y18196D01*
G01X2753Y18144D01*
G01X2735Y18127D01*
G01X2699Y18097D01*
G01X2680Y18082D01*
G01X2662Y18069D01*
G01X2643Y18055D01*
G01X2605Y18031D01*
G01X2585Y18020D01*
G01X2545Y18000D01*
G01X2524Y17991D01*
G01X2482Y17975D01*
G01X2461Y17968D01*
G01X2417Y17956D01*
G01X2394Y17951D01*
G01X2371Y17947D01*
G01X2348Y17944D01*
G01X2324Y17941D01*
G01X2300Y17940D01*
G01X2276Y17938D01*
G01X2228Y17938D01*
G01X2207Y17939D01*
G01X2185Y17941D01*
G01X2143Y17945D01*
G01X2122Y17948D01*
G01X2101Y17952D01*
G01X2081Y17956D01*
G01X2041Y17966D01*
G01X2003Y17978D01*
G01X1984Y17985D01*
G01X1965Y17993D01*
G01X1947Y18001D01*
G01X1930Y18009D01*
G01X1912Y18018D01*
G01X1861Y18048D01*
G01X1845Y18059D01*
G01X1813Y18083D01*
G01X1798Y18095D01*
G01X1783Y18108D01*
G01X1753Y18136D01*
G01X1739Y18150D01*
G01X1726Y18165D01*
G01X1712Y18180D01*
G01X1686Y18212D01*
G01X1662Y18246D01*
G01X1650Y18264D01*
G01X1639Y18282D01*
G01X1628Y18301D01*
G01X1618Y18320D01*
G01X1607Y18339D01*
G01X1598Y18359D01*
G01X1588Y18379D01*
G01X1570Y18421D01*
G01X1562Y18442D01*
G01X1554Y18464D01*
G01X1546Y18487D01*
G01X1539Y18509D01*
G01X1532Y18532D01*
G01X1514Y18604D01*
G01X1504Y18654D01*
G01X1500Y18679D01*
G01X1492Y18731D01*
G01X1486Y18785D01*
G01X1484Y18812D01*
G01X1482Y18840D01*
G01X1481Y18868D01*
G01X1479Y18896D01*
G01X1479Y18983D01*
G01X1480Y19012D01*
G01X1482Y19068D01*
G01X1484Y19095D01*
G01X1490Y19149D01*
G01X1493Y19175D01*
G01X1501Y19227D01*
G01X1505Y19252D01*
G01X1510Y19277D01*
G01X1516Y19302D01*
G01X1528Y19350D01*
G01X1534Y19373D01*
G01X1541Y19396D01*
G01X1565Y19462D01*
G01X1574Y19483D01*
G01X1582Y19504D01*
G01X1592Y19525D01*
G01X1602Y19545D01*
G01X1622Y19583D01*
G01X1633Y19602D01*
G01X1644Y19620D01*
G01X1656Y19638D01*
G01X1680Y19672D01*
G01X1693Y19689D01*
G01X1706Y19705D01*
G01X1719Y19720D01*
G01X1733Y19736D01*
G01X1775Y19778D01*
G01X1790Y19791D01*
G01X1806Y19804D01*
G01X1821Y19816D01*
G01X1837Y19828D01*
G01X1854Y19839D01*
G01X1870Y19850D01*
G01X1887Y19861D01*
G01X1904Y19870D01*
G01X1922Y19880D01*
G01X1939Y19888D01*
G01X1957Y19897D01*
G01X1976Y19905D01*
G01X1994Y19912D01*
G01X2013Y19919D01*
G01X2032Y19925D01*
G01X2052Y19931D01*
G01X2071Y19936D01*
G01X2091Y19940D01*
G01X2112Y19944D01*
G01X2132Y19948D01*
G01X2174Y19954D01*
G01X2195Y19955D01*
G01X2217Y19957D01*
G01X2239Y19958D01*
G01X2287Y19958D01*
G01X2312Y19956D01*
G01X2338Y19954D01*
G01X2363Y19950D01*
G01X2387Y19946D01*
G01X2411Y19941D01*
G01X2457Y19929D01*
G01X2480Y19921D01*
G01X2502Y19913D01*
G01X2523Y19904D01*
G01X2565Y19884D01*
G01X2585Y19873D01*
G01X2605Y19861D01*
G01X2643Y19835D01*
G01X2679Y19807D01*
G01X2697Y19792D01*
G01X2714Y19777D01*
G01X2731Y19761D01*
G01X2747Y19744D01*
G01X2762Y19727D01*
G01X2915Y19905D01*
G01X2859Y19961D01*
G01X2843Y19975D01*
G01X2828Y19988D01*
G01X2811Y20002D01*
G01X2795Y20015D01*
G01X2777Y20028D01*
G01X2760Y20040D01*
G01X2742Y20053D01*
G01X2723Y20065D01*
G01X2685Y20087D01*
G01X2665Y20098D01*
G01X2602Y20128D01*
G01X2580Y20137D01*
G01X2558Y20145D01*
G01X2512Y20161D01*
G01X2489Y20167D01*
G01X2465Y20174D01*
G01X2415Y20184D01*
G01X2365Y20192D01*
G01X2338Y20194D01*
G01X2312Y20196D01*
G01X2285Y20198D01*
G37*

%LPD*%
G54D15*
G01X19303Y5655D02*
G01X19303Y5083D01*
G01X19303Y5655D02*
G01X19657Y5655D01*
G01X19303Y5383D02*
G01X19521Y5383D01*
G01X19303Y5083D02*
G01X19657Y5083D01*
G01X20219Y5574D02*
G01X20165Y5628D01*
G01X20083Y5655D01*
G01X19974Y5655D01*
G01X19892Y5628D01*
G01X19837Y5574D01*
G01X19837Y5519D01*
G01X19865Y5464D01*
G01X19892Y5437D01*
G01X19946Y5410D01*
G01X20110Y5355D01*
G01X20165Y5328D01*
G01X20192Y5301D01*
G01X20219Y5246D01*
G01X20219Y5164D01*
G01X20165Y5110D01*
G01X20083Y5083D01*
G01X19974Y5083D01*
G01X19892Y5110D01*
G01X19837Y5164D01*
G01X20399Y5655D02*
G01X20399Y5083D01*
G01X20399Y5655D02*
G01X20645Y5655D01*
G01X20726Y5628D01*
G01X20754Y5601D01*
G01X20781Y5546D01*
G01X20781Y5464D01*
G01X20754Y5410D01*
G01X20726Y5383D01*
G01X20645Y5355D01*
G01X20399Y5355D01*
G01X21097Y5655D02*
G01X21015Y5628D01*
G01X20988Y5574D01*
G01X20988Y5519D01*
G01X21015Y5464D01*
G01X21070Y5437D01*
G01X21179Y5410D01*
G01X21261Y5383D01*
G01X21315Y5328D01*
G01X21343Y5274D01*
G01X21343Y5192D01*
G01X21315Y5137D01*
G01X21288Y5110D01*
G01X21206Y5083D01*
G01X21097Y5083D01*
G01X21015Y5110D01*
G01X20988Y5137D01*
G01X20961Y5192D01*
G01X20961Y5274D01*
G01X20988Y5328D01*
G01X21043Y5383D01*
G01X21125Y5410D01*
G01X21234Y5437D01*
G01X21288Y5464D01*
G01X21315Y5519D01*
G01X21315Y5574D01*
G01X21288Y5628D01*
G01X21206Y5655D01*
G01X21097Y5655D01*
G01X21550Y5519D02*
G01X21550Y5546D01*
G01X21577Y5601D01*
G01X21605Y5628D01*
G01X21659Y5655D01*
G01X21768Y5655D01*
G01X21823Y5628D01*
G01X21850Y5601D01*
G01X21877Y5546D01*
G01X21877Y5492D01*
G01X21850Y5437D01*
G01X21795Y5355D01*
G01X21523Y5083D01*
G01X21905Y5083D01*
G01X22412Y5574D02*
G01X22385Y5628D01*
G01X22303Y5655D01*
G01X22248Y5655D01*
G01X22166Y5628D01*
G01X22112Y5546D01*
G01X22085Y5410D01*
G01X22085Y5274D01*
G01X22112Y5164D01*
G01X22166Y5110D01*
G01X22248Y5083D01*
G01X22275Y5083D01*
G01X22357Y5110D01*
G01X22412Y5164D01*
G01X22439Y5246D01*
G01X22439Y5274D01*
G01X22412Y5355D01*
G01X22357Y5410D01*
G01X22275Y5437D01*
G01X22248Y5437D01*
G01X22166Y5410D01*
G01X22112Y5355D01*
G01X22085Y5274D01*
G01X22946Y5574D02*
G01X22919Y5628D01*
G01X22837Y5655D01*
G01X22783Y5655D01*
G01X22701Y5628D01*
G01X22646Y5546D01*
G01X22619Y5410D01*
G01X22619Y5274D01*
G01X22646Y5164D01*
G01X22701Y5110D01*
G01X22783Y5083D01*
G01X22810Y5083D01*
G01X22892Y5110D01*
G01X22946Y5164D01*
G01X22974Y5246D01*
G01X22974Y5274D01*
G01X22946Y5355D01*
G01X22892Y5410D01*
G01X22810Y5437D01*
G01X22783Y5437D01*
G01X22701Y5410D01*
G01X22646Y5355D01*
G01X22619Y5274D01*
G54D17*
G01X30732Y3928D03*
G01X30732Y2471D03*
G01X33173Y3928D03*
G01X33173Y2471D03*
G01X26982Y3928D03*
G01X26982Y2471D03*
G01X29423Y3928D03*
G01X29423Y2471D03*
G54D18*
G01X33350Y9900D03*
G01X33350Y10153D03*
G01X33350Y10406D03*
G01X33350Y10659D03*
G01X33350Y10912D03*
G54D19*
G01X34403Y8845D03*
G01X34403Y11955D03*
G54D20*
G01X24400Y10787D03*
G01X24399Y11580D03*
G01X24397Y12373D03*
G01X24407Y8423D03*
G01X24401Y9208D03*
G01X24400Y10000D03*
G54D21*
G01X23710Y13452D03*
G01X22924Y13452D03*
G01X22136Y13452D03*
G01X21349Y13452D03*
G01X20561Y13452D03*
G36*
G01X19577Y13020D02*
G01X19577Y13886D01*
G01X19970Y13886D01*
G01X19970Y13020D01*
G01X19577Y13020D01*
G37*
G01X18986Y13452D03*
G01X18199Y13452D03*
G01X23715Y7347D03*
G01X22929Y7347D03*
G36*
G01X21943Y6914D02*
G01X21943Y7780D01*
G01X22337Y7780D01*
G01X22337Y6914D01*
G01X21943Y6914D01*
G37*
G01X21355Y7347D03*
G01X20569Y7347D03*
G01X19778Y7347D03*
G01X18993Y7347D03*
G01X18201Y7347D03*
G54D22*
G01X24950Y3898D03*
G01X25557Y3900D03*
G01X24950Y2598D03*
G01X25557Y2600D03*
G01X27407Y15749D03*
G01X26800Y15749D03*
G01X26800Y14449D03*
G01X27407Y14449D03*
G01X27407Y13199D03*
G01X26800Y13199D03*
G01X27407Y11899D03*
G01X26800Y11899D03*
G01X26800Y10649D03*
G01X27407Y10649D03*
G01X27407Y9399D03*
G01X26800Y9399D03*
G01X27407Y8099D03*
G01X26800Y8099D03*
G01X27407Y6849D03*
G01X26800Y6849D03*
G01X27407Y5549D03*
G01X26800Y5549D03*
G01X28700Y11898D03*
G01X29307Y11900D03*
G01X28700Y13148D03*
G01X29307Y13150D03*
G01X29307Y14450D03*
G01X28700Y14448D03*
G01X29307Y15750D03*
G01X28700Y15748D03*
G54D23*
G01X31603Y16481D03*
G54D21*
G01X31603Y14119D03*
G01X32508Y14119D03*
G01X30697Y14119D03*

%LPD*%
G36*
G01X29633Y5118D02*
G01X29563Y5189D01*
G01X29475Y5158D01*
G01X29602Y5030D01*
G01X29633Y5118D01*
G37*

%LPD*%
G36*
G01X27782Y7682D02*
G01X27782Y7862D01*
G01X27698Y7822D01*
G01X27698Y7722D01*
G01X27782Y7682D01*
G37*

%LPD*%
G36*
G01X26422Y4270D02*
G01X26351Y4341D01*
G01X26263Y4310D01*
G01X26391Y4183D01*
G01X26422Y4270D01*
G37*

%LPD*%
G36*
G01X25904Y2965D02*
G01X25776Y3092D01*
G01X25745Y3004D01*
G01X25816Y2934D01*
G01X25904Y2965D01*
G37*

%LPD*%
G36*
G01X21144Y2648D02*
G01X21060Y2688D01*
G01X21060Y2508D01*
G01X21144Y2548D01*
G01X21144Y2648D01*
G37*

%LPD*%
G36*
G01X20842Y13906D02*
G01X20842Y14086D01*
G01X20758Y14046D01*
G01X20758Y13946D01*
G01X20842Y13906D01*
G37*

%LPD*%
G36*
G01X28134Y7409D02*
G01X28134Y7589D01*
G01X28050Y7549D01*
G01X28050Y7449D01*
G01X28134Y7409D01*
G37*

%LPD*%
G36*
G01X30767Y4279D02*
G01X30736Y4367D01*
G01X30609Y4240D01*
G01X30697Y4209D01*
G01X30767Y4279D01*
G37*

%LPD*%
G36*
G01X29907Y11810D02*
G01X29907Y11990D01*
G01X29823Y11950D01*
G01X29823Y11850D01*
G01X29907Y11810D01*
G37*

%LPD*%
G36*
G01X27742Y15659D02*
G01X27742Y15839D01*
G01X27658Y15799D01*
G01X27658Y15699D01*
G01X27742Y15659D01*
G37*

%LPD*%
G36*
G01X24932Y10862D02*
G01X24832Y10862D01*
G01X24792Y10778D01*
G01X24972Y10778D01*
G01X24932Y10862D01*
G37*

%LPD*%
G36*
G01X26504Y2517D02*
G01X26420Y2557D01*
G01X26420Y2377D01*
G01X26504Y2417D01*
G01X26504Y2517D01*
G37*

%LPD*%
G36*
G01X25215Y4244D02*
G01X25035Y4244D01*
G01X25065Y4160D01*
G01X25185Y4160D01*
G01X25215Y4244D01*
G37*

%LPD*%
G36*
G01X25133Y4443D02*
G01X25052Y4481D01*
G01X24967Y4396D01*
G01X25006Y4315D01*
G01X25133Y4443D01*
G37*

%LPD*%
G36*
G01X29094Y2107D02*
G01X29010Y2137D01*
G01X29010Y1957D01*
G01X29094Y1987D01*
G01X29094Y2107D01*
G37*

%LPD*%
G36*
G01X26916Y10991D02*
G01X26878Y11072D01*
G01X26750Y10945D01*
G01X26831Y10907D01*
G01X26916Y10991D01*
G37*

%LPD*%
G36*
G01X25763Y13207D02*
G01X25763Y13387D01*
G01X25679Y13357D01*
G01X25679Y13237D01*
G01X25763Y13207D01*
G37*

%LPD*%
G36*
G01X28015Y10696D02*
G01X27888Y10823D01*
G01X27857Y10735D01*
G01X27928Y10664D01*
G01X28015Y10696D01*
G37*

%LPD*%
G36*
G01X26918Y12743D02*
G01X26831Y12774D01*
G01X26760Y12703D01*
G01X26791Y12615D01*
G01X26918Y12743D01*
G37*

%LPD*%
G36*
G01X29002Y11537D02*
G01X28918Y11567D01*
G01X28918Y11387D01*
G01X29002Y11417D01*
G01X29002Y11537D01*
G37*

%LPD*%
G36*
G01X21237Y3564D02*
G01X21237Y3744D01*
G01X21153Y3714D01*
G01X21153Y3594D01*
G01X21237Y3564D01*
G37*

%LPD*%
G36*
G01X31237Y3978D02*
G01X31087Y4053D01*
G01X31087Y3803D01*
G01X31237Y3878D01*
G01X31237Y3978D01*
G37*

%LPD*%
G36*
G01X30782Y4243D02*
G01X30682Y4243D01*
G01X30607Y4164D01*
G01X30857Y4164D01*
G01X30782Y4243D01*
G37*

%LPD*%
G36*
G01X31267Y2531D02*
G01X31087Y2621D01*
G01X31087Y2321D01*
G01X31267Y2411D01*
G01X31267Y2531D01*
G37*

%LPD*%
G36*
G01X30378Y2321D02*
G01X30378Y2621D01*
G01X30218Y2531D01*
G01X30218Y2411D01*
G01X30378Y2321D01*
G37*

%LPD*%
G36*
G01X32819Y3803D02*
G01X32819Y4053D01*
G01X32669Y3978D01*
G01X32669Y3878D01*
G01X32819Y3803D01*
G37*

%LPD*%
G36*
G01X32819Y2321D02*
G01X32819Y2621D01*
G01X32639Y2531D01*
G01X32639Y2411D01*
G01X32819Y2321D01*
G37*

%LPD*%
G36*
G01X26628Y3778D02*
G01X26628Y4078D01*
G01X26468Y3988D01*
G01X26468Y3868D01*
G01X26628Y3778D01*
G37*

%LPD*%
G36*
G01X27517Y3988D02*
G01X27337Y4078D01*
G01X27337Y3778D01*
G01X27517Y3868D01*
G01X27517Y3988D01*
G37*

%LPD*%
G36*
G01X27487Y2521D02*
G01X27337Y2596D01*
G01X27337Y2346D01*
G01X27487Y2421D01*
G01X27487Y2521D01*
G37*

%LPD*%
G36*
G01X26628Y2346D02*
G01X26628Y2596D01*
G01X26517Y2521D01*
G01X26517Y2421D01*
G01X26628Y2346D01*
G37*

%LPD*%
G36*
G01X29069Y3778D02*
G01X29069Y4078D01*
G01X28889Y3988D01*
G01X28889Y3868D01*
G01X29069Y3778D01*
G37*

%LPD*%
G36*
G01X29069Y2346D02*
G01X29069Y2596D01*
G01X28919Y2521D01*
G01X28919Y2421D01*
G01X29069Y2346D01*
G37*

%LPD*%
G36*
G01X33776Y9960D02*
G01X33615Y9979D01*
G01X33615Y9821D01*
G01X33776Y9840D01*
G01X33776Y9960D01*
G37*

%LPD*%
G36*
G01X33084Y10074D02*
G01X33084Y10232D01*
G01X32973Y10203D01*
G01X32973Y10103D01*
G01X33084Y10074D01*
G37*

%LPD*%
G36*
G01X33084Y10327D02*
G01X33084Y10485D01*
G01X32934Y10456D01*
G01X32934Y10356D01*
G01X33084Y10327D01*
G37*

%LPD*%
G36*
G01X33084Y10833D02*
G01X33084Y10990D01*
G01X32924Y10972D01*
G01X32924Y10852D01*
G01X33084Y10833D01*
G37*

%LPD*%
G36*
G01X24087Y13357D02*
G01X23907Y13447D01*
G01X23907Y13147D01*
G01X24087Y13237D01*
G01X24087Y13357D01*
G37*

%LPD*%
G36*
G01X23049Y13019D02*
G01X22799Y13019D01*
G01X22874Y12908D01*
G01X22974Y12908D01*
G01X23049Y13019D01*
G37*

%LPD*%
G36*
G01X22261Y13019D02*
G01X22011Y13019D01*
G01X22086Y12909D01*
G01X22186Y12909D01*
G01X22261Y13019D01*
G37*

%LPD*%
G36*
G01X21399Y13996D02*
G01X21299Y13996D01*
G01X21224Y13885D01*
G01X21474Y13885D01*
G01X21399Y13996D01*
G37*

%LPD*%
G36*
G01X21474Y13019D02*
G01X21224Y13019D01*
G01X21299Y12908D01*
G01X21399Y12908D01*
G01X21474Y13019D01*
G37*

%LPD*%
G36*
G01X20611Y13996D02*
G01X20511Y13996D01*
G01X20436Y13886D01*
G01X20686Y13886D01*
G01X20611Y13996D01*
G37*

%LPD*%
G36*
G01X19111Y13019D02*
G01X18861Y13019D01*
G01X18936Y12908D01*
G01X19036Y12908D01*
G01X19111Y13019D01*
G37*

%LPD*%
G36*
G01X18249Y13996D02*
G01X18149Y13996D01*
G01X18074Y13885D01*
G01X18324Y13885D01*
G01X18249Y13996D01*
G37*

%LPD*%
G36*
G01X23840Y6914D02*
G01X23590Y6914D01*
G01X23665Y6803D01*
G01X23765Y6803D01*
G01X23840Y6914D01*
G37*

%LPD*%
G36*
G01X19903Y6914D02*
G01X19653Y6914D01*
G01X19728Y6804D01*
G01X19828Y6804D01*
G01X19903Y6914D01*
G37*

%LPD*%
G36*
G01X18251Y7891D02*
G01X18151Y7891D01*
G01X18076Y7780D01*
G01X18326Y7780D01*
G01X18251Y7891D01*
G37*

%LPD*%
G36*
G01X25199Y3734D02*
G01X25133Y3940D01*
G01X24947Y3705D01*
G01X25124Y3639D01*
G01X25199Y3734D01*
G37*

%LPD*%
G36*
G01X25851Y3950D02*
G01X25740Y4025D01*
G01X25740Y3775D01*
G01X25851Y3850D01*
G01X25851Y3950D01*
G37*

%LPD*%
G36*
G01X24767Y2473D02*
G01X24767Y2723D01*
G01X24617Y2648D01*
G01X24617Y2548D01*
G01X24767Y2473D01*
G37*

%LPD*%
G36*
G01X25607Y2904D02*
G01X25507Y2904D01*
G01X25432Y2793D01*
G01X25682Y2793D01*
G01X25607Y2904D01*
G37*

%LPD*%
G36*
G01X27740Y15799D02*
G01X27590Y15874D01*
G01X27590Y15624D01*
G01X27740Y15699D01*
G01X27740Y15799D01*
G37*

%LPD*%
G36*
G01X27094Y15799D02*
G01X26983Y15874D01*
G01X26983Y15624D01*
G01X27094Y15699D01*
G01X27094Y15799D01*
G37*

%LPD*%
G36*
G01X26617Y14324D02*
G01X26617Y14574D01*
G01X26467Y14499D01*
G01X26467Y14399D01*
G01X26617Y14324D01*
G37*

%LPD*%
G36*
G01X27532Y14256D02*
G01X27282Y14256D01*
G01X27357Y14106D01*
G01X27457Y14106D01*
G01X27532Y14256D01*
G37*

%LPD*%
G36*
G01X27457Y14792D02*
G01X27357Y14792D01*
G01X27282Y14642D01*
G01X27532Y14642D01*
G01X27457Y14792D01*
G37*

%LPD*%
G36*
G01X27457Y13542D02*
G01X27357Y13542D01*
G01X27282Y13392D01*
G01X27532Y13392D01*
G01X27457Y13542D01*
G37*

%LPD*%
G36*
G01X27701Y13249D02*
G01X27590Y13324D01*
G01X27590Y13074D01*
G01X27701Y13149D01*
G01X27701Y13249D01*
G37*

%LPD*%
G36*
G01X26617Y13074D02*
G01X26617Y13324D01*
G01X26506Y13249D01*
G01X26506Y13149D01*
G01X26617Y13074D01*
G37*

%LPD*%
G36*
G01X27223Y11774D02*
G01X27223Y12024D01*
G01X27113Y11949D01*
G01X27113Y11849D01*
G01X27223Y11774D01*
G37*

%LPD*%
G36*
G01X26617Y11774D02*
G01X26617Y12024D01*
G01X26506Y11949D01*
G01X26506Y11849D01*
G01X26617Y11774D01*
G37*

%LPD*%
G36*
G01X27024Y10788D02*
G01X26944Y10878D01*
G01X26797Y10842D01*
G01X26983Y10606D01*
G01X27024Y10788D01*
G37*

%LPD*%
G36*
G01X27740Y10699D02*
G01X27590Y10774D01*
G01X27590Y10524D01*
G01X27740Y10599D01*
G01X27740Y10699D01*
G37*

%LPD*%
G36*
G01X27223Y9274D02*
G01X27223Y9524D01*
G01X27113Y9449D01*
G01X27113Y9349D01*
G01X27223Y9274D01*
G37*

%LPD*%
G36*
G01X26925Y9206D02*
G01X26675Y9206D01*
G01X26750Y9095D01*
G01X26850Y9095D01*
G01X26925Y9206D01*
G37*

%LPD*%
G36*
G01X27223Y7974D02*
G01X27223Y8224D01*
G01X27113Y8149D01*
G01X27113Y8049D01*
G01X27223Y7974D01*
G37*

%LPD*%
G36*
G01X27039Y7931D02*
G01X26983Y8105D01*
G01X26832Y7906D01*
G01X26978Y7850D01*
G01X27039Y7931D01*
G37*

%LPD*%
G36*
G01X27223Y6724D02*
G01X27223Y6974D01*
G01X27113Y6899D01*
G01X27113Y6799D01*
G01X27223Y6724D01*
G37*

%LPD*%
G36*
G01X27532Y6656D02*
G01X27282Y6656D01*
G01X27357Y6506D01*
G01X27457Y6506D01*
G01X27532Y6656D01*
G37*

%LPD*%
G36*
G01X26617Y6724D02*
G01X26617Y6974D01*
G01X26506Y6899D01*
G01X26506Y6799D01*
G01X26617Y6724D01*
G37*

%LPD*%
G36*
G01X27457Y5892D02*
G01X27357Y5892D01*
G01X27282Y5742D01*
G01X27532Y5742D01*
G01X27457Y5892D01*
G37*

%LPD*%
G36*
G01X26617Y5424D02*
G01X26617Y5674D01*
G01X26506Y5599D01*
G01X26506Y5499D01*
G01X26617Y5424D01*
G37*

%LPD*%
G36*
G01X28760Y12271D02*
G01X28640Y12271D01*
G01X28550Y12091D01*
G01X28850Y12091D01*
G01X28760Y12271D01*
G37*

%LPD*%
G36*
G01X29640Y11950D02*
G01X29490Y12025D01*
G01X29490Y11775D01*
G01X29640Y11850D01*
G01X29640Y11950D01*
G37*

%LPD*%
G36*
G01X28850Y12955D02*
G01X28550Y12955D01*
G01X28640Y12784D01*
G01X28760Y12784D01*
G01X28850Y12955D01*
G37*

%LPD*%
G36*
G01X29357Y13493D02*
G01X29257Y13493D01*
G01X29182Y13343D01*
G01X29432Y13343D01*
G01X29357Y13493D01*
G37*

%LPD*%
G36*
G01X29432Y14257D02*
G01X29182Y14257D01*
G01X29257Y14107D01*
G01X29357Y14107D01*
G01X29432Y14257D01*
G37*

%LPD*%
G36*
G01X28760Y14809D02*
G01X28640Y14809D01*
G01X28550Y14641D01*
G01X28850Y14641D01*
G01X28760Y14809D01*
G37*

%LPD*%
G36*
G01X29670Y15810D02*
G01X29490Y15900D01*
G01X29490Y15600D01*
G01X29670Y15690D01*
G01X29670Y15810D01*
G37*

%LPD*%
G36*
G01X28850Y15555D02*
G01X28550Y15555D01*
G01X28640Y15375D01*
G01X28760Y15375D01*
G01X28850Y15555D01*
G37*

%LPD*%
G36*
G01X30914Y16356D02*
G01X30914Y16606D01*
G01X30764Y16531D01*
G01X30764Y16431D01*
G01X30914Y16356D01*
G37*

%LPD*%
G36*
G01X31728Y13686D02*
G01X31478Y13686D01*
G01X31553Y13575D01*
G01X31653Y13575D01*
G01X31728Y13686D01*
G37*

%LPD*%
G36*
G01X32568Y14712D02*
G01X32448Y14712D01*
G01X32358Y14552D01*
G01X32658Y14552D01*
G01X32568Y14712D01*
G37*

%LPD*%
G36*
G01X32658Y13686D02*
G01X32358Y13686D01*
G01X32448Y13506D01*
G01X32568Y13506D01*
G01X32658Y13686D01*
G37*

%LPD*%
G36*
G01X30757Y14712D02*
G01X30637Y14712D01*
G01X30547Y14552D01*
G01X30847Y14552D01*
G01X30757Y14712D01*
G37*

%LPD*%
G36*
G01X3523Y4713D02*
G01X3314Y4759D01*
G01X3102Y4547D01*
G01X3403Y4593D01*
G01X3523Y4713D01*
G37*

%LPD*%
G36*
G01X5215Y3401D02*
G01X5130Y3486D01*
G01X4940Y3423D01*
G01X5152Y3211D01*
G01X5215Y3401D01*
G37*

%LPD*%
G36*
G01X4156Y4164D02*
G01X3900Y4257D01*
G01X3806Y4025D01*
G01X4056Y4064D01*
G01X4156Y4164D01*
G37*

%LPD*%
G36*
G01X4497Y3867D02*
G01X4427Y3937D01*
G01X4267Y3884D01*
G01X4444Y3708D01*
G01X4497Y3867D01*
G37*

%LPD*%
G36*
G01X29241Y5359D02*
G01X28965Y5359D01*
G01X29043Y5179D01*
G01X29163Y5179D01*
G01X29241Y5359D01*
G37*

%LPD*%
G36*
G01X31353Y5755D02*
G01X31317Y5861D01*
G01X31233Y5839D01*
G01X31241Y5589D01*
G01X31353Y5755D01*
G37*

%LPD*%
G36*
G01X31055Y5230D02*
G01X30965Y5463D01*
G01X30870Y5238D01*
G01X30900Y5127D01*
G01X31055Y5230D01*
G37*

%LPD*%
G36*
G01X31853Y5755D02*
G01X31817Y5861D01*
G01X31733Y5839D01*
G01X31741Y5589D01*
G01X31853Y5755D01*
G37*

%LPD*%
G36*
G01X30653Y6000D02*
G01X30553Y6000D01*
G01X30478Y5850D01*
G01X30728Y5850D01*
G01X30653Y6000D01*
G37*

%LPD*%
G36*
G01X30542Y5236D02*
G01X30465Y5473D01*
G01X30315Y5269D01*
G01X30315Y5128D01*
G01X30542Y5236D01*
G37*

%LPD*%
G36*
G01X30153Y5950D02*
G01X30053Y5950D01*
G01X29978Y5850D01*
G01X30228Y5850D01*
G01X30153Y5950D01*
G37*

%LPD*%
G36*
G01X29391Y7339D02*
G01X29241Y7543D01*
G01X29187Y7299D01*
G01X29391Y7197D01*
G01X29391Y7339D01*
G37*

%LPD*%
G36*
G01X29153Y8048D02*
G01X29053Y8048D01*
G01X28978Y7898D01*
G01X29228Y7898D01*
G01X29153Y8048D01*
G37*

%LPD*%
G36*
G01X29728Y5301D02*
G01X29478Y5301D01*
G01X29553Y5158D01*
G01X29653Y5158D01*
G01X29728Y5301D01*
G37*
G54D24*
G01X33403Y19200D03*
G54D16*
G01X29482Y5038D03*
G01X27862Y7772D03*
G01X26271Y4190D03*
G01X25896Y3085D03*
G01X20981Y2598D03*
G01X20921Y13996D03*
G01X28214Y7499D03*
G01X30616Y4359D03*
G01X29987Y11900D03*
G01X27822Y15749D03*
G01X24882Y10699D03*
G01X26341Y2467D03*
G01X25125Y4323D03*
G01X28930Y2047D03*
G01X26758Y11064D03*
G01X25842Y13297D03*
G01X28008Y10815D03*
G01X26911Y12623D03*
G01X28838Y11477D03*
G01X21316Y3654D03*
G01X3203Y15900D03*
G01X12803Y15900D03*
G01X12803Y6300D03*
G01X3203Y6300D03*
G01X34403Y11950D03*
G01X34403Y8850D03*
M00*
M02*
