G04 Layer: TopSolderMaskLayer*
G04 EasyEDA v6.3.21, 2020-02-02T17:40:02+08:00*
G04 1dbfad1c9a864778b0d2112e72029e1b,1a72cfc7dc544dba9386ef7e18e6054e,10*
G04 Gerber Generator version 0.2*
G04 Scale: 100 percent, Rotated: No, Reflected: No *
G04 Dimensions in inches *
G04 leading zeros omitted , absolute positions ,2 integer and 4 decimal *
%FSLAX24Y24*%
%MOIN*%
G90*
G70D02*

%ADD10C,0.010000*%
%ADD15C,0.008000*%
%ADD32C,0.059181*%
%ADD33C,0.051307*%
%ADD34C,0.035560*%
%ADD35C,0.208000*%

%LPD*%

%LPD*%
G36*
G01X13003Y16100D02*
G01X3003Y16100D01*
G01X3003Y6100D01*
G01X13003Y6100D01*
G01X13003Y16100D01*
G37*

%LPC*%
G36*
G01X8536Y15733D02*
G01X8170Y15733D01*
G01X8170Y15367D01*
G01X8536Y15367D01*
G01X8536Y15733D01*
G37*
G36*
G01X7803Y15733D02*
G01X7436Y15733D01*
G01X7436Y15367D01*
G01X7803Y15367D01*
G01X7803Y15733D01*
G37*
G36*
G01X5970Y9100D02*
G01X3370Y9100D01*
G01X3370Y6467D01*
G01X5970Y6467D01*
G01X5970Y9100D01*
G37*
G36*
G01X12636Y15733D02*
G01X10003Y15733D01*
G01X10003Y13133D01*
G01X12636Y13133D01*
G01X12636Y15733D01*
G37*
G36*
G01X5970Y15733D02*
G01X3370Y15733D01*
G01X3370Y13133D01*
G01X5970Y13133D01*
G01X5970Y15733D01*
G37*
G36*
G01X9670Y15733D02*
G01X9270Y15733D01*
G01X9270Y15367D01*
G01X8903Y15367D01*
G01X8903Y15000D01*
G01X8536Y15000D01*
G01X8536Y14633D01*
G01X7803Y14633D01*
G01X7803Y15000D01*
G01X7436Y15000D01*
G01X7436Y14267D01*
G01X9270Y14267D01*
G01X9270Y13900D01*
G01X8170Y13900D01*
G01X8170Y13533D01*
G01X7803Y13533D01*
G01X7803Y13133D01*
G01X7436Y13133D01*
G01X7436Y13900D01*
G01X7070Y13900D01*
G01X7070Y14267D01*
G01X6703Y14267D01*
G01X6703Y14600D01*
G01X7070Y14600D01*
G01X7070Y15367D01*
G01X6703Y15367D01*
G01X6703Y15000D01*
G01X6303Y15000D01*
G01X6303Y12767D01*
G01X7070Y12767D01*
G01X7070Y12033D01*
G01X6703Y12033D01*
G01X6703Y11667D01*
G01X6336Y11667D01*
G01X6336Y12400D01*
G01X5970Y12400D01*
G01X5970Y12800D01*
G01X4103Y12800D01*
G01X4103Y12400D01*
G01X3736Y12400D01*
G01X3736Y12800D01*
G01X3370Y12800D01*
G01X3370Y12400D01*
G01X3736Y12400D01*
G01X3736Y11300D01*
G01X3370Y11300D01*
G01X3370Y9433D01*
G01X3736Y9433D01*
G01X3736Y11300D01*
G01X4836Y11300D01*
G01X4836Y10933D01*
G01X4470Y10933D01*
G01X4470Y10567D01*
G01X4103Y10567D01*
G01X4103Y9433D01*
G01X6303Y9433D01*
G01X6303Y9067D01*
G01X7070Y9067D01*
G01X7070Y9433D01*
G01X7436Y9433D01*
G01X7436Y9067D01*
G01X7803Y9067D01*
G01X7803Y9433D01*
G01X8903Y9433D01*
G01X8903Y8700D01*
G01X8536Y8700D01*
G01X8536Y8333D01*
G01X7803Y8333D01*
G01X7803Y8700D01*
G01X7070Y8700D01*
G01X7070Y8333D01*
G01X6703Y8333D01*
G01X6703Y8700D01*
G01X6303Y8700D01*
G01X6303Y7200D01*
G01X6703Y7200D01*
G01X6703Y7600D01*
G01X7803Y7600D01*
G01X7803Y7967D01*
G01X8170Y7967D01*
G01X8170Y7200D01*
G01X8903Y7200D01*
G01X8903Y6867D01*
G01X6303Y6867D01*
G01X6303Y6467D01*
G01X8936Y6467D01*
G01X8936Y6867D01*
G01X9303Y6867D01*
G01X9303Y7600D01*
G01X8536Y7600D01*
G01X8536Y8333D01*
G01X8903Y8333D01*
G01X8903Y7967D01*
G01X9670Y7967D01*
G01X9670Y7600D01*
G01X10003Y7600D01*
G01X10003Y7233D01*
G01X9670Y7233D01*
G01X9670Y6867D01*
G01X10003Y6867D01*
G01X10003Y6467D01*
G01X12636Y6467D01*
G01X12636Y7967D01*
G01X11903Y7967D01*
G01X11903Y8333D01*
G01X11503Y8333D01*
G01X11503Y8700D01*
G01X12636Y8700D01*
G01X12636Y9100D01*
G01X11903Y9100D01*
G01X11903Y9833D01*
G01X11503Y9833D01*
G01X11503Y10900D01*
G01X11870Y10900D01*
G01X11870Y10167D01*
G01X12236Y10167D01*
G01X12236Y9800D01*
G01X12636Y9800D01*
G01X12636Y10567D01*
G01X12236Y10567D01*
G01X12236Y10900D01*
G01X12636Y10900D01*
G01X12636Y12033D01*
G01X12236Y12033D01*
G01X12236Y12400D01*
G01X11903Y12400D01*
G01X11903Y12801D01*
G01X10961Y12792D01*
G01X10020Y12783D01*
G01X10010Y12592D01*
G01X10000Y12400D01*
G01X10403Y12400D01*
G01X10403Y12033D01*
G01X10003Y12033D01*
G01X10003Y11667D01*
G01X9670Y11667D01*
G01X9670Y12033D01*
G01X8936Y12033D01*
G01X8936Y12800D01*
G01X7803Y12800D01*
G01X7803Y13133D01*
G01X8203Y13133D01*
G01X8203Y13500D01*
G01X8536Y13500D01*
G01X8536Y13133D01*
G01X8936Y13133D01*
G01X8936Y13500D01*
G01X9270Y13500D01*
G01X9270Y12767D01*
G01X9670Y12767D01*
G01X9670Y13533D01*
G01X9303Y13533D01*
G01X9303Y13867D01*
G01X9670Y13867D01*
G01X9670Y14267D01*
G01X9303Y14267D01*
G01X9303Y14600D01*
G01X9670Y14600D01*
G01X9670Y15733D01*
G37*

%LPD*%
G36*
G01X9270Y15000D02*
G01X8936Y15000D01*
G01X8936Y14633D01*
G01X9270Y14633D01*
G01X9270Y15000D01*
G37*

%LPD*%
G36*
G01X12236Y15367D02*
G01X10403Y15367D01*
G01X10403Y13533D01*
G01X12236Y13533D01*
G01X12236Y15367D01*
G37*

%LPC*%
G36*
G01X11903Y15000D02*
G01X10770Y15000D01*
G01X10770Y13867D01*
G01X11903Y13867D01*
G01X11903Y15000D01*
G37*

%LPD*%
G36*
G01X5570Y15367D02*
G01X3736Y15367D01*
G01X3736Y13533D01*
G01X5570Y13533D01*
G01X5570Y15367D01*
G37*

%LPC*%
G36*
G01X5236Y15000D02*
G01X4103Y15000D01*
G01X4103Y13867D01*
G01X5236Y13867D01*
G01X5236Y15000D01*
G37*

%LPD*%
G36*
G01X7070Y13867D02*
G01X6703Y13867D01*
G01X6703Y13133D01*
G01X7070Y13133D01*
G01X7070Y13867D01*
G37*

%LPD*%
G36*
G01X8536Y12400D02*
G01X7803Y12400D01*
G01X7803Y12033D01*
G01X8203Y12033D01*
G01X8203Y11667D01*
G01X7436Y11667D01*
G01X7436Y12033D01*
G01X7070Y12033D01*
G01X7070Y11300D01*
G01X9670Y11300D01*
G01X9670Y11667D01*
G01X8536Y11667D01*
G01X8536Y12400D01*
G37*

%LPD*%
G36*
G01X11870Y12400D02*
G01X10770Y12400D01*
G01X10770Y12033D01*
G01X10403Y12033D01*
G01X10403Y10933D01*
G01X10770Y10933D01*
G01X10770Y11667D01*
G01X11136Y11667D01*
G01X11136Y10933D01*
G01X11503Y10933D01*
G01X11503Y11300D01*
G01X12236Y11300D01*
G01X12236Y11667D01*
G01X11870Y11667D01*
G01X11870Y12400D01*
G37*

%LPC*%
G36*
G01X11503Y12033D02*
G01X11136Y12033D01*
G01X11136Y11667D01*
G01X11503Y11667D01*
G01X11503Y12033D01*
G37*

%LPD*%
G36*
G01X11136Y10900D02*
G01X10770Y10900D01*
G01X10770Y10567D01*
G01X11136Y10567D01*
G01X11136Y10900D01*
G37*

%LPD*%
G36*
G01X10403Y10900D02*
G01X10036Y10900D01*
G01X10036Y10567D01*
G01X10403Y10567D01*
G01X10403Y10900D01*
G37*

%LPD*%
G36*
G01X4836Y10567D02*
G01X4503Y10567D01*
G01X4503Y10200D01*
G01X4836Y10200D01*
G01X4836Y10567D01*
G37*

%LPD*%
G36*
G01X11136Y10167D02*
G01X10403Y10167D01*
G01X10403Y9833D01*
G01X11136Y9833D01*
G01X11136Y10167D01*
G37*

%LPD*%
G36*
G01X10003Y10167D02*
G01X8936Y10167D01*
G01X8936Y9833D01*
G01X10003Y9833D01*
G01X10003Y10167D01*
G37*

%LPD*%
G36*
G01X5970Y10167D02*
G01X5603Y10167D01*
G01X5603Y9833D01*
G01X5970Y9833D01*
G01X5970Y10167D01*
G37*

%LPD*%
G36*
G01X5203Y10167D02*
G01X4836Y10167D01*
G01X4836Y9833D01*
G01X5203Y9833D01*
G01X5203Y10167D01*
G37*

%LPD*%
G36*
G01X11503Y9800D02*
G01X11136Y9800D01*
G01X11136Y9433D01*
G01X11503Y9433D01*
G01X11503Y9800D01*
G37*

%LPD*%
G36*
G01X5970Y12400D02*
G01X4836Y12400D01*
G01X4836Y12033D01*
G01X4503Y12033D01*
G01X4503Y11667D01*
G01X4836Y11667D01*
G01X4836Y12033D01*
G01X5236Y12033D01*
G01X5236Y10200D01*
G01X5570Y10200D01*
G01X5570Y10567D01*
G01X5970Y10567D01*
G01X5970Y10200D01*
G01X6336Y10200D01*
G01X6336Y9433D01*
G01X7070Y9433D01*
G01X7070Y9800D01*
G01X6703Y9800D01*
G01X6703Y10567D01*
G01X7436Y10567D01*
G01X7436Y10167D01*
G01X7070Y10167D01*
G01X7070Y9833D01*
G01X7436Y9833D01*
G01X7436Y9433D01*
G01X7803Y9433D01*
G01X7803Y9833D01*
G01X8536Y9833D01*
G01X8536Y10200D01*
G01X8903Y10200D01*
G01X8903Y10900D01*
G01X8536Y10900D01*
G01X8536Y10567D01*
G01X7803Y10567D01*
G01X7803Y10900D01*
G01X6703Y10900D01*
G01X6703Y10567D01*
G01X6303Y10567D01*
G01X6303Y10933D01*
G01X6703Y10933D01*
G01X6703Y11300D01*
G01X5970Y11300D01*
G01X5970Y11667D01*
G01X5570Y11667D01*
G01X5570Y12033D01*
G01X5970Y12033D01*
G01X5970Y12400D01*
G37*

%LPC*%
G36*
G01X5970Y11300D02*
G01X5570Y11300D01*
G01X5570Y10900D01*
G01X5970Y10900D01*
G01X5970Y11300D01*
G37*

%LPD*%
G36*
G01X9270Y8700D02*
G01X8936Y8700D01*
G01X8936Y8333D01*
G01X9270Y8333D01*
G01X9270Y8700D01*
G37*

%LPD*%
G36*
G01X10770Y9433D02*
G01X9670Y9433D01*
G01X9670Y8333D01*
G01X10770Y8333D01*
G01X10770Y9433D01*
G37*

%LPC*%
G36*
G01X10403Y9100D02*
G01X10225Y9100D01*
G01X10189Y9099D01*
G01X10154Y9098D01*
G01X10122Y9096D01*
G01X10093Y9093D01*
G01X10068Y9090D01*
G01X10048Y9086D01*
G01X10033Y9082D01*
G01X10025Y9078D01*
G01X10021Y9070D01*
G01X10016Y9055D01*
G01X10013Y9035D01*
G01X10009Y9010D01*
G01X10007Y8981D01*
G01X10004Y8948D01*
G01X10003Y8914D01*
G01X10003Y8700D01*
G01X10403Y8700D01*
G01X10403Y9100D01*
G37*

%LPD*%
G36*
G01X7436Y8333D02*
G01X7070Y8333D01*
G01X7070Y7967D01*
G01X7436Y7967D01*
G01X7436Y8333D01*
G37*

%LPD*%
G36*
G01X11503Y7967D02*
G01X10403Y7967D01*
G01X10403Y7600D01*
G01X10770Y7600D01*
G01X10770Y7233D01*
G01X11503Y7233D01*
G01X11503Y7967D01*
G37*

%LPD*%
G36*
G01X5570Y8700D02*
G01X3736Y8700D01*
G01X3736Y6867D01*
G01X5570Y6867D01*
G01X5570Y8700D01*
G37*

%LPC*%
G36*
G01X5236Y8333D02*
G01X4103Y8333D01*
G01X4103Y7200D01*
G01X5236Y7200D01*
G01X5236Y8333D01*
G37*

%LPD*%
G36*
G01X12236Y7600D02*
G01X11903Y7600D01*
G01X11903Y7200D01*
G01X11503Y7200D01*
G01X11503Y6867D01*
G01X12236Y6867D01*
G01X12236Y7600D01*
G37*

%LPD*%
G54D10*
G01X8990Y50D02*
G01X8990Y444D01*
G01X9384Y50D02*
G01X9384Y444D01*
G01X9778Y50D02*
G01X9778Y444D01*
G01X10565Y50D02*
G01X10565Y444D01*
G01X10959Y50D02*
G01X10959Y444D01*
G01X11352Y50D02*
G01X11352Y444D01*
G01X11746Y50D02*
G01X11746Y444D01*
G01X12534Y50D02*
G01X12534Y444D01*
G01X12927Y50D02*
G01X12927Y444D01*
G01X13321Y50D02*
G01X13321Y444D01*
G01X14108Y50D02*
G01X14108Y444D01*
G01X14502Y50D02*
G01X14502Y444D01*
G01X14896Y50D02*
G01X14896Y444D01*
G01X15289Y50D02*
G01X15289Y444D01*
G01X15683Y50D02*
G01X15683Y444D01*
G01X16077Y50D02*
G01X16077Y837D01*
G01X16471Y50D02*
G01X16471Y444D01*
G01X16864Y50D02*
G01X16864Y444D01*
G01X17258Y50D02*
G01X17258Y444D01*
G01X17652Y50D02*
G01X17652Y444D01*
G01X18045Y50D02*
G01X18045Y444D01*
G01X18439Y50D02*
G01X18439Y444D01*
G01X18833Y50D02*
G01X18833Y444D01*
G01X19226Y50D02*
G01X19226Y444D01*
G01X19620Y50D02*
G01X19620Y444D01*
G01X20014Y50D02*
G01X20014Y837D01*
G01X20408Y50D02*
G01X20408Y444D01*
G01X20801Y50D02*
G01X20801Y444D01*
G01X21195Y50D02*
G01X21195Y444D01*
G01X21589Y50D02*
G01X21589Y444D01*
G01X21982Y50D02*
G01X21982Y444D01*
G01X22376Y50D02*
G01X22376Y444D01*
G01X22770Y50D02*
G01X22770Y444D01*
G01X23163Y50D02*
G01X23163Y444D01*
G01X23557Y50D02*
G01X23557Y444D01*
G01X23951Y50D02*
G01X23951Y837D01*
G01X24345Y50D02*
G01X24345Y444D01*
G01X24738Y50D02*
G01X24738Y444D01*
G01X25132Y50D02*
G01X25132Y444D01*
G01X25526Y50D02*
G01X25526Y444D01*
G01X25919Y50D02*
G01X25919Y444D01*
G01X26313Y50D02*
G01X26313Y444D01*
G01X26707Y50D02*
G01X26707Y444D01*
G01X27100Y50D02*
G01X27100Y444D01*
G01X27494Y50D02*
G01X27494Y444D01*
G01X27888Y50D02*
G01X27888Y837D01*
G01X28282Y50D02*
G01X28282Y444D01*
G01X28675Y50D02*
G01X28675Y444D01*
G01X29069Y50D02*
G01X29069Y444D01*
G01X29463Y50D02*
G01X29463Y444D01*
G01X29856Y50D02*
G01X29856Y444D01*
G01X30250Y50D02*
G01X30250Y444D01*
G01X30644Y50D02*
G01X30644Y444D01*
G01X31037Y50D02*
G01X31037Y444D01*
G01X31431Y50D02*
G01X31431Y444D01*
G01X31825Y50D02*
G01X31825Y837D01*
G01X32219Y50D02*
G01X32219Y444D01*
G01X32612Y50D02*
G01X32612Y444D01*
G01X33006Y50D02*
G01X33006Y444D01*
G01X33400Y50D02*
G01X33400Y444D01*
G01X33793Y50D02*
G01X33793Y444D01*
G01X34187Y50D02*
G01X34187Y444D01*
G01X34581Y50D02*
G01X34581Y444D01*
G01X12140Y50D02*
G01X12140Y837D01*
G01X13715Y50D02*
G01X13715Y444D01*
G01X8203Y50D02*
G01X8203Y837D01*
G01X10171Y50D02*
G01X10171Y444D01*
G01X8597Y50D02*
G01X8597Y444D01*
G54D32*
G01X904Y2711D02*
G01X3159Y4966D01*
G01X2644Y915D02*
G01X4899Y3170D01*
G54D33*
G01X1767Y2293D02*
G01X3688Y4214D01*
G01X2310Y1750D02*
G01X4231Y3671D01*
G54D34*
G01X29103Y5792D02*
G01X29103Y5359D01*
G01X31103Y5792D02*
G01X31103Y5359D01*
G01X31603Y5792D02*
G01X31603Y5359D01*
G01X30603Y5792D02*
G01X30603Y5359D01*
G01X30103Y5792D02*
G01X30103Y5359D01*
G01X30103Y7840D02*
G01X30103Y7407D01*
G01X31603Y7840D02*
G01X31603Y7407D01*
G01X31103Y7840D02*
G01X31103Y7407D01*
G01X30603Y7840D02*
G01X30603Y7407D01*
G01X32103Y7840D02*
G01X32103Y7407D01*
G01X32603Y7840D02*
G01X32603Y7407D01*
G01X32603Y5792D02*
G01X32603Y5359D01*
G01X32103Y5792D02*
G01X32103Y5359D01*
G01X29603Y7840D02*
G01X29603Y7407D01*
G01X29103Y7840D02*
G01X29103Y7407D01*
G01X29603Y5792D02*
G01X29603Y5359D01*

%LPD*%
G36*
G01X11450Y20156D02*
G01X11150Y20156D01*
G01X10325Y17740D01*
G01X10599Y17740D01*
G01X10846Y18502D01*
G01X11747Y18502D01*
G01X11988Y17740D01*
G01X12278Y17740D01*
G01X11450Y20156D01*
G37*

%LPC*%
G36*
G01X11302Y19928D02*
G01X11288Y19928D01*
G01X11275Y19880D01*
G01X11268Y19857D01*
G01X11255Y19810D01*
G01X11235Y19740D01*
G01X11229Y19717D01*
G01X11222Y19695D01*
G01X11215Y19672D01*
G01X11209Y19649D01*
G01X11202Y19626D01*
G01X11195Y19604D01*
G01X11189Y19581D01*
G01X11182Y19559D01*
G01X11175Y19536D01*
G01X11148Y19446D01*
G01X11134Y19402D01*
G01X11127Y19379D01*
G01X11099Y19290D01*
G01X11092Y19267D01*
G01X11085Y19245D01*
G01X11078Y19222D01*
G01X11071Y19200D01*
G01X11063Y19177D01*
G01X11056Y19155D01*
G01X11041Y19109D01*
G01X10916Y18717D01*
G01X11678Y18717D01*
G01X11552Y19109D01*
G01X11537Y19155D01*
G01X11529Y19177D01*
G01X11515Y19223D01*
G01X11507Y19245D01*
G01X11493Y19290D01*
G01X11486Y19313D01*
G01X11479Y19335D01*
G01X11472Y19358D01*
G01X11451Y19425D01*
G01X11444Y19447D01*
G01X11437Y19470D01*
G01X11430Y19492D01*
G01X11423Y19515D01*
G01X11416Y19537D01*
G01X11410Y19560D01*
G01X11396Y19605D01*
G01X11390Y19628D01*
G01X11383Y19650D01*
G01X11376Y19673D01*
G01X11370Y19696D01*
G01X11356Y19742D01*
G01X11350Y19765D01*
G01X11322Y19857D01*
G01X11316Y19881D01*
G01X11302Y19928D01*
G37*

%LPD*%
G36*
G01X9047Y20156D02*
G01X8427Y20156D01*
G01X8427Y17740D01*
G01X9057Y17740D01*
G01X9083Y17741D01*
G01X9108Y17742D01*
G01X9134Y17743D01*
G01X9158Y17745D01*
G01X9183Y17747D01*
G01X9207Y17749D01*
G01X9231Y17752D01*
G01X9255Y17756D01*
G01X9278Y17759D01*
G01X9301Y17763D01*
G01X9324Y17768D01*
G01X9346Y17772D01*
G01X9369Y17778D01*
G01X9390Y17783D01*
G01X9412Y17789D01*
G01X9433Y17795D01*
G01X9475Y17809D01*
G01X9495Y17816D01*
G01X9535Y17832D01*
G01X9554Y17840D01*
G01X9574Y17849D01*
G01X9592Y17858D01*
G01X9611Y17867D01*
G01X9647Y17887D01*
G01X9665Y17898D01*
G01X9682Y17908D01*
G01X9699Y17920D01*
G01X9716Y17931D01*
G01X9748Y17955D01*
G01X9764Y17968D01*
G01X9779Y17980D01*
G01X9795Y17994D01*
G01X9809Y18007D01*
G01X9824Y18021D01*
G01X9838Y18035D01*
G01X9852Y18050D01*
G01X9866Y18064D01*
G01X9879Y18080D01*
G01X9892Y18095D01*
G01X9904Y18111D01*
G01X9917Y18127D01*
G01X9929Y18143D01*
G01X9941Y18160D01*
G01X9963Y18194D01*
G01X9974Y18212D01*
G01X9994Y18248D01*
G01X10014Y18286D01*
G01X10032Y18324D01*
G01X10040Y18344D01*
G01X10049Y18364D01*
G01X10057Y18385D01*
G01X10064Y18405D01*
G01X10078Y18447D01*
G01X10085Y18469D01*
G01X10103Y18535D01*
G01X10118Y18604D01*
G01X10122Y18628D01*
G01X10127Y18652D01*
G01X10130Y18676D01*
G01X10134Y18700D01*
G01X10137Y18725D01*
G01X10140Y18749D01*
G01X10142Y18775D01*
G01X10144Y18800D01*
G01X10146Y18826D01*
G01X10147Y18852D01*
G01X10149Y18878D01*
G01X10150Y18904D01*
G01X10150Y19012D01*
G01X10149Y19038D01*
G01X10147Y19064D01*
G01X10146Y19090D01*
G01X10144Y19116D01*
G01X10140Y19166D01*
G01X10137Y19191D01*
G01X10134Y19215D01*
G01X10130Y19239D01*
G01X10127Y19263D01*
G01X10122Y19287D01*
G01X10118Y19310D01*
G01X10103Y19379D01*
G01X10091Y19423D01*
G01X10085Y19444D01*
G01X10064Y19507D01*
G01X10056Y19527D01*
G01X10048Y19548D01*
G01X10040Y19567D01*
G01X10032Y19587D01*
G01X10022Y19606D01*
G01X10013Y19625D01*
G01X10004Y19643D01*
G01X9994Y19662D01*
G01X9984Y19680D01*
G01X9940Y19748D01*
G01X9928Y19765D01*
G01X9916Y19781D01*
G01X9903Y19796D01*
G01X9891Y19812D01*
G01X9878Y19827D01*
G01X9864Y19842D01*
G01X9851Y19856D01*
G01X9837Y19870D01*
G01X9822Y19884D01*
G01X9808Y19897D01*
G01X9793Y19911D01*
G01X9777Y19923D01*
G01X9762Y19936D01*
G01X9730Y19960D01*
G01X9713Y19971D01*
G01X9696Y19983D01*
G01X9679Y19993D01*
G01X9662Y20004D01*
G01X9626Y20024D01*
G01X9608Y20033D01*
G01X9551Y20060D01*
G01X9511Y20076D01*
G01X9491Y20083D01*
G01X9449Y20097D01*
G01X9407Y20109D01*
G01X9385Y20115D01*
G01X9363Y20120D01*
G01X9340Y20125D01*
G01X9318Y20129D01*
G01X9295Y20134D01*
G01X9271Y20138D01*
G01X9247Y20141D01*
G01X9224Y20144D01*
G01X9199Y20147D01*
G01X9175Y20149D01*
G01X9125Y20153D01*
G01X9099Y20154D01*
G01X9074Y20155D01*
G01X9047Y20156D01*
G37*

%LPC*%
G36*
G01X9024Y19931D02*
G01X8701Y19931D01*
G01X8701Y17964D01*
G01X9024Y17964D01*
G01X9074Y17966D01*
G01X9099Y17968D01*
G01X9123Y17970D01*
G01X9147Y17973D01*
G01X9193Y17979D01*
G01X9216Y17983D01*
G01X9260Y17993D01*
G01X9281Y17998D01*
G01X9302Y18004D01*
G01X9323Y18011D01*
G01X9363Y18025D01*
G01X9420Y18049D01*
G01X9438Y18058D01*
G01X9474Y18078D01*
G01X9491Y18088D01*
G01X9508Y18099D01*
G01X9524Y18110D01*
G01X9556Y18134D01*
G01X9571Y18146D01*
G01X9586Y18159D01*
G01X9600Y18172D01*
G01X9628Y18200D01*
G01X9667Y18245D01*
G01X9691Y18277D01*
G01X9702Y18293D01*
G01X9724Y18327D01*
G01X9744Y18363D01*
G01X9753Y18382D01*
G01X9762Y18400D01*
G01X9771Y18420D01*
G01X9779Y18439D01*
G01X9788Y18459D01*
G01X9795Y18479D01*
G01X9816Y18542D01*
G01X9828Y18586D01*
G01X9833Y18609D01*
G01X9838Y18631D01*
G01X9843Y18655D01*
G01X9847Y18678D01*
G01X9851Y18702D01*
G01X9857Y18750D01*
G01X9863Y18800D01*
G01X9865Y18826D01*
G01X9866Y18852D01*
G01X9868Y18878D01*
G01X9868Y18904D01*
G01X9869Y18931D01*
G01X9869Y18985D01*
G01X9868Y19012D01*
G01X9868Y19038D01*
G01X9866Y19064D01*
G01X9865Y19090D01*
G01X9863Y19115D01*
G01X9857Y19165D01*
G01X9851Y19213D01*
G01X9847Y19237D01*
G01X9843Y19260D01*
G01X9838Y19283D01*
G01X9828Y19327D01*
G01X9822Y19349D01*
G01X9816Y19370D01*
G01X9802Y19412D01*
G01X9788Y19452D01*
G01X9779Y19472D01*
G01X9771Y19491D01*
G01X9762Y19510D01*
G01X9744Y19546D01*
G01X9734Y19564D01*
G01X9724Y19581D01*
G01X9713Y19598D01*
G01X9691Y19630D01*
G01X9679Y19646D01*
G01X9667Y19661D01*
G01X9654Y19676D01*
G01X9628Y19704D01*
G01X9614Y19718D01*
G01X9586Y19744D01*
G01X9571Y19757D01*
G01X9556Y19769D01*
G01X9508Y19802D01*
G01X9474Y19822D01*
G01X9456Y19832D01*
G01X9420Y19850D01*
G01X9382Y19866D01*
G01X9363Y19873D01*
G01X9323Y19887D01*
G01X9302Y19893D01*
G01X9260Y19903D01*
G01X9216Y19913D01*
G01X9193Y19916D01*
G01X9170Y19920D01*
G01X9147Y19923D01*
G01X9099Y19927D01*
G01X9074Y19929D01*
G01X9024Y19931D01*
G37*

%LPD*%
G36*
G01X3672Y20367D02*
G01X3405Y20367D01*
G01X3405Y17740D01*
G01X3672Y17740D01*
G01X3672Y19044D01*
G01X3695Y19067D01*
G01X3717Y19090D01*
G01X3761Y19132D01*
G01X3803Y19170D01*
G01X3824Y19187D01*
G01X3844Y19204D01*
G01X3865Y19220D01*
G01X3905Y19248D01*
G01X3925Y19261D01*
G01X3965Y19283D01*
G01X3986Y19293D01*
G01X4006Y19301D01*
G01X4027Y19309D01*
G01X4048Y19316D01*
G01X4090Y19326D01*
G01X4134Y19332D01*
G01X4180Y19334D01*
G01X4203Y19334D01*
G01X4225Y19332D01*
G01X4246Y19330D01*
G01X4267Y19327D01*
G01X4286Y19323D01*
G01X4305Y19318D01*
G01X4323Y19312D01*
G01X4340Y19305D01*
G01X4356Y19297D01*
G01X4372Y19288D01*
G01X4387Y19279D01*
G01X4401Y19268D01*
G01X4414Y19256D01*
G01X4427Y19243D01*
G01X4439Y19230D01*
G01X4450Y19215D01*
G01X4470Y19183D01*
G01X4479Y19165D01*
G01X4487Y19146D01*
G01X4494Y19127D01*
G01X4501Y19106D01*
G01X4507Y19084D01*
G01X4513Y19061D01*
G01X4518Y19037D01*
G01X4522Y19012D01*
G01X4525Y18986D01*
G01X4528Y18959D01*
G01X4532Y18901D01*
G01X4533Y18871D01*
G01X4533Y17740D01*
G01X4804Y17740D01*
G01X4804Y18903D01*
G01X4803Y18933D01*
G01X4802Y18962D01*
G01X4800Y18991D01*
G01X4797Y19019D01*
G01X4795Y19046D01*
G01X4791Y19073D01*
G01X4787Y19099D01*
G01X4777Y19149D01*
G01X4771Y19173D01*
G01X4765Y19196D01*
G01X4758Y19219D01*
G01X4751Y19240D01*
G01X4743Y19262D01*
G01X4735Y19282D01*
G01X4726Y19302D01*
G01X4706Y19340D01*
G01X4684Y19374D01*
G01X4672Y19391D01*
G01X4646Y19421D01*
G01X4618Y19449D01*
G01X4603Y19462D01*
G01X4588Y19474D01*
G01X4572Y19485D01*
G01X4555Y19496D01*
G01X4538Y19506D01*
G01X4520Y19515D01*
G01X4502Y19523D01*
G01X4483Y19531D01*
G01X4463Y19538D01*
G01X4443Y19544D01*
G01X4422Y19550D01*
G01X4401Y19555D01*
G01X4379Y19559D01*
G01X4333Y19565D01*
G01X4309Y19567D01*
G01X4284Y19568D01*
G01X4259Y19568D01*
G01X4233Y19567D01*
G01X4208Y19566D01*
G01X4158Y19560D01*
G01X4110Y19550D01*
G01X4087Y19544D01*
G01X4064Y19537D01*
G01X4042Y19529D01*
G01X4019Y19520D01*
G01X3998Y19511D01*
G01X3976Y19501D01*
G01X3955Y19490D01*
G01X3913Y19466D01*
G01X3893Y19454D01*
G01X3872Y19440D01*
G01X3852Y19426D01*
G01X3833Y19412D01*
G01X3813Y19397D01*
G01X3794Y19382D01*
G01X3737Y19334D01*
G01X3699Y19300D01*
G01X3681Y19283D01*
G01X3662Y19265D01*
G01X3672Y19638D01*
G01X3672Y20367D01*
G37*

%LPD*%
G36*
G01X15312Y20198D02*
G01X15259Y20198D01*
G01X15232Y20197D01*
G01X15180Y20193D01*
G01X15155Y20190D01*
G01X15105Y20182D01*
G01X15081Y20177D01*
G01X15057Y20171D01*
G01X15034Y20165D01*
G01X15010Y20158D01*
G01X14988Y20151D01*
G01X14965Y20143D01*
G01X14943Y20135D01*
G01X14922Y20126D01*
G01X14901Y20116D01*
G01X14881Y20106D01*
G01X14860Y20095D01*
G01X14841Y20084D01*
G01X14822Y20072D01*
G01X14804Y20060D01*
G01X14785Y20047D01*
G01X14768Y20034D01*
G01X14751Y20020D01*
G01X14735Y20006D01*
G01X14719Y19991D01*
G01X14689Y19961D01*
G01X14675Y19945D01*
G01X14649Y19911D01*
G01X14637Y19894D01*
G01X14615Y19858D01*
G01X14605Y19840D01*
G01X14595Y19821D01*
G01X14587Y19802D01*
G01X14571Y19762D01*
G01X14565Y19742D01*
G01X14559Y19721D01*
G01X14549Y19679D01*
G01X14543Y19635D01*
G01X14541Y19613D01*
G01X14540Y19591D01*
G01X14539Y19568D01*
G01X14540Y19539D01*
G01X14541Y19511D01*
G01X14549Y19457D01*
G01X14554Y19431D01*
G01X14560Y19407D01*
G01X14567Y19383D01*
G01X14575Y19359D01*
G01X14584Y19337D01*
G01X14594Y19315D01*
G01X14605Y19294D01*
G01X14617Y19273D01*
G01X14629Y19254D01*
G01X14642Y19234D01*
G01X14670Y19198D01*
G01X14685Y19181D01*
G01X14733Y19133D01*
G01X14750Y19119D01*
G01X14768Y19104D01*
G01X14785Y19091D01*
G01X14804Y19077D01*
G01X14822Y19065D01*
G01X14841Y19053D01*
G01X14859Y19041D01*
G01X14916Y19008D01*
G01X14936Y18998D01*
G01X15012Y18962D01*
G01X15031Y18954D01*
G01X15380Y18799D01*
G01X15405Y18788D01*
G01X15429Y18777D01*
G01X15453Y18767D01*
G01X15499Y18745D01*
G01X15521Y18734D01*
G01X15563Y18712D01*
G01X15603Y18688D01*
G01X15622Y18676D01*
G01X15640Y18663D01*
G01X15657Y18650D01*
G01X15689Y18622D01*
G01X15703Y18607D01*
G01X15717Y18591D01*
G01X15741Y18557D01*
G01X15752Y18539D01*
G01X15761Y18519D01*
G01X15769Y18499D01*
G01X15777Y18478D01*
G01X15787Y18432D01*
G01X15790Y18407D01*
G01X15793Y18381D01*
G01X15793Y18331D01*
G01X15791Y18308D01*
G01X15788Y18286D01*
G01X15784Y18265D01*
G01X15779Y18244D01*
G01X15765Y18204D01*
G01X15757Y18184D01*
G01X15737Y18148D01*
G01X15725Y18130D01*
G01X15712Y18113D01*
G01X15699Y18097D01*
G01X15684Y18082D01*
G01X15668Y18067D01*
G01X15651Y18053D01*
G01X15634Y18040D01*
G01X15615Y18027D01*
G01X15596Y18015D01*
G01X15575Y18004D01*
G01X15554Y17994D01*
G01X15532Y17985D01*
G01X15508Y17976D01*
G01X15484Y17968D01*
G01X15459Y17961D01*
G01X15434Y17955D01*
G01X15407Y17950D01*
G01X15380Y17946D01*
G01X15352Y17942D01*
G01X15322Y17940D01*
G01X15293Y17938D01*
G01X15238Y17938D01*
G01X15214Y17939D01*
G01X15166Y17943D01*
G01X15142Y17947D01*
G01X15119Y17950D01*
G01X15095Y17955D01*
G01X15049Y17965D01*
G01X15026Y17971D01*
G01X15003Y17978D01*
G01X14981Y17986D01*
G01X14958Y17994D01*
G01X14936Y18002D01*
G01X14914Y18011D01*
G01X14893Y18021D01*
G01X14871Y18031D01*
G01X14829Y18053D01*
G01X14808Y18065D01*
G01X14788Y18078D01*
G01X14768Y18090D01*
G01X14748Y18104D01*
G01X14729Y18118D01*
G01X14709Y18132D01*
G01X14691Y18147D01*
G01X14672Y18162D01*
G01X14636Y18194D01*
G01X14585Y18245D01*
G01X14420Y18057D01*
G01X14436Y18041D01*
G01X14452Y18024D01*
G01X14468Y18009D01*
G01X14485Y17993D01*
G01X14519Y17963D01*
G01X14537Y17949D01*
G01X14554Y17935D01*
G01X14572Y17921D01*
G01X14591Y17908D01*
G01X14609Y17894D01*
G01X14628Y17882D01*
G01X14647Y17869D01*
G01X14666Y17858D01*
G01X14686Y17846D01*
G01X14726Y17824D01*
G01X14789Y17794D01*
G01X14831Y17776D01*
G01X14875Y17760D01*
G01X14897Y17753D01*
G01X14920Y17746D01*
G01X14942Y17739D01*
G01X14988Y17727D01*
G01X15012Y17722D01*
G01X15035Y17717D01*
G01X15083Y17709D01*
G01X15108Y17706D01*
G01X15132Y17703D01*
G01X15182Y17699D01*
G01X15207Y17698D01*
G01X15233Y17697D01*
G01X15287Y17697D01*
G01X15315Y17698D01*
G01X15343Y17700D01*
G01X15370Y17702D01*
G01X15397Y17705D01*
G01X15475Y17717D01*
G01X15500Y17723D01*
G01X15525Y17728D01*
G01X15549Y17735D01*
G01X15572Y17742D01*
G01X15596Y17749D01*
G01X15618Y17757D01*
G01X15641Y17766D01*
G01X15662Y17775D01*
G01X15684Y17785D01*
G01X15704Y17795D01*
G01X15744Y17817D01*
G01X15763Y17828D01*
G01X15782Y17840D01*
G01X15818Y17866D01*
G01X15835Y17879D01*
G01X15867Y17907D01*
G01X15883Y17922D01*
G01X15897Y17937D01*
G01X15912Y17952D01*
G01X15925Y17968D01*
G01X15939Y17985D01*
G01X15951Y18001D01*
G01X15963Y18018D01*
G01X15974Y18035D01*
G01X15985Y18053D01*
G01X15995Y18071D01*
G01X16004Y18089D01*
G01X16022Y18127D01*
G01X16036Y18165D01*
G01X16043Y18185D01*
G01X16048Y18205D01*
G01X16053Y18226D01*
G01X16058Y18246D01*
G01X16062Y18267D01*
G01X16065Y18288D01*
G01X16067Y18309D01*
G01X16069Y18331D01*
G01X16070Y18352D01*
G01X16070Y18403D01*
G01X16068Y18432D01*
G01X16066Y18460D01*
G01X16062Y18487D01*
G01X16058Y18513D01*
G01X16046Y18563D01*
G01X16039Y18586D01*
G01X16031Y18609D01*
G01X16022Y18631D01*
G01X16012Y18653D01*
G01X16002Y18674D01*
G01X15991Y18694D01*
G01X15979Y18714D01*
G01X15966Y18733D01*
G01X15938Y18769D01*
G01X15924Y18786D01*
G01X15908Y18802D01*
G01X15892Y18819D01*
G01X15858Y18849D01*
G01X15840Y18864D01*
G01X15822Y18878D01*
G01X15803Y18892D01*
G01X15784Y18905D01*
G01X15744Y18931D01*
G01X15724Y18943D01*
G01X15702Y18955D01*
G01X15681Y18966D01*
G01X15659Y18978D01*
G01X15637Y18989D01*
G01X15615Y18999D01*
G01X15592Y19010D01*
G01X15569Y19020D01*
G01X15219Y19169D01*
G01X15179Y19186D01*
G01X15139Y19204D01*
G01X15118Y19213D01*
G01X15058Y19243D01*
G01X15020Y19265D01*
G01X15001Y19277D01*
G01X14983Y19289D01*
G01X14965Y19302D01*
G01X14948Y19315D01*
G01X14932Y19329D01*
G01X14916Y19344D01*
G01X14902Y19359D01*
G01X14888Y19375D01*
G01X14875Y19392D01*
G01X14864Y19410D01*
G01X14853Y19429D01*
G01X14835Y19469D01*
G01X14823Y19513D01*
G01X14819Y19537D01*
G01X14817Y19562D01*
G01X14816Y19588D01*
G01X14817Y19612D01*
G01X14819Y19636D01*
G01X14822Y19658D01*
G01X14827Y19680D01*
G01X14834Y19702D01*
G01X14841Y19722D01*
G01X14850Y19742D01*
G01X14860Y19761D01*
G01X14871Y19779D01*
G01X14884Y19797D01*
G01X14897Y19814D01*
G01X14912Y19829D01*
G01X14928Y19844D01*
G01X14945Y19858D01*
G01X14963Y19872D01*
G01X15003Y19896D01*
G01X15024Y19906D01*
G01X15046Y19916D01*
G01X15069Y19925D01*
G01X15093Y19932D01*
G01X15118Y19939D01*
G01X15144Y19945D01*
G01X15198Y19953D01*
G01X15226Y19956D01*
G01X15255Y19957D01*
G01X15285Y19958D01*
G01X15314Y19958D01*
G01X15342Y19956D01*
G01X15369Y19954D01*
G01X15396Y19951D01*
G01X15423Y19947D01*
G01X15449Y19942D01*
G01X15499Y19930D01*
G01X15524Y19922D01*
G01X15548Y19914D01*
G01X15572Y19905D01*
G01X15595Y19896D01*
G01X15618Y19885D01*
G01X15640Y19874D01*
G01X15662Y19862D01*
G01X15683Y19850D01*
G01X15704Y19837D01*
G01X15746Y19809D01*
G01X15766Y19793D01*
G01X15785Y19778D01*
G01X15804Y19761D01*
G01X15824Y19744D01*
G01X15842Y19727D01*
G01X15988Y19902D01*
G01X15940Y19950D01*
G01X15922Y19965D01*
G01X15905Y19979D01*
G01X15887Y19994D01*
G01X15868Y20008D01*
G01X15850Y20022D01*
G01X15810Y20048D01*
G01X15770Y20072D01*
G01X15749Y20084D01*
G01X15727Y20095D01*
G01X15706Y20105D01*
G01X15684Y20115D01*
G01X15661Y20125D01*
G01X15638Y20134D01*
G01X15615Y20142D01*
G01X15591Y20150D01*
G01X15568Y20158D01*
G01X15544Y20164D01*
G01X15519Y20171D01*
G01X15444Y20186D01*
G01X15366Y20195D01*
G01X15339Y20197D01*
G01X15312Y20198D01*
G37*

%LPD*%
G36*
G01X13537Y20198D02*
G01X13486Y20198D01*
G01X13464Y20197D01*
G01X13441Y20196D01*
G01X13375Y20190D01*
G01X13331Y20184D01*
G01X13289Y20176D01*
G01X13267Y20172D01*
G01X13247Y20167D01*
G01X13205Y20155D01*
G01X13185Y20149D01*
G01X13125Y20128D01*
G01X13106Y20120D01*
G01X13086Y20112D01*
G01X13048Y20094D01*
G01X13030Y20084D01*
G01X13011Y20074D01*
G01X12993Y20064D01*
G01X12975Y20053D01*
G01X12958Y20042D01*
G01X12940Y20031D01*
G01X12906Y20007D01*
G01X12889Y19994D01*
G01X12857Y19968D01*
G01X12825Y19940D01*
G01X12765Y19880D01*
G01X12751Y19864D01*
G01X12737Y19847D01*
G01X12723Y19831D01*
G01X12710Y19813D01*
G01X12697Y19796D01*
G01X12671Y19760D01*
G01X12659Y19742D01*
G01X12647Y19723D01*
G01X12636Y19704D01*
G01X12624Y19684D01*
G01X12613Y19664D01*
G01X12603Y19644D01*
G01X12593Y19623D01*
G01X12583Y19603D01*
G01X12573Y19581D01*
G01X12564Y19560D01*
G01X12554Y19538D01*
G01X12546Y19516D01*
G01X12522Y19447D01*
G01X12515Y19424D01*
G01X12508Y19400D01*
G01X12502Y19376D01*
G01X12490Y19326D01*
G01X12485Y19301D01*
G01X12479Y19276D01*
G01X12467Y19198D01*
G01X12463Y19171D01*
G01X12460Y19144D01*
G01X12458Y19117D01*
G01X12455Y19090D01*
G01X12454Y19062D01*
G01X12452Y19034D01*
G01X12451Y19006D01*
G01X12450Y18977D01*
G01X12450Y18919D01*
G01X12452Y18861D01*
G01X12453Y18833D01*
G01X12455Y18805D01*
G01X12458Y18777D01*
G01X12460Y18750D01*
G01X12466Y18696D01*
G01X12470Y18670D01*
G01X12475Y18644D01*
G01X12479Y18618D01*
G01X12484Y18592D01*
G01X12489Y18567D01*
G01X12495Y18542D01*
G01X12501Y18518D01*
G01X12507Y18493D01*
G01X12514Y18469D01*
G01X12521Y18446D01*
G01X12529Y18423D01*
G01X12536Y18400D01*
G01X12545Y18377D01*
G01X12553Y18355D01*
G01X12571Y18311D01*
G01X12580Y18290D01*
G01X12590Y18269D01*
G01X12600Y18249D01*
G01X12611Y18228D01*
G01X12622Y18209D01*
G01X12633Y18189D01*
G01X12644Y18170D01*
G01X12656Y18151D01*
G01X12668Y18133D01*
G01X12680Y18114D01*
G01X12693Y18097D01*
G01X12706Y18079D01*
G01X12719Y18062D01*
G01X12732Y18046D01*
G01X12746Y18029D01*
G01X12760Y18013D01*
G01X12774Y17998D01*
G01X12819Y17953D01*
G01X12834Y17939D01*
G01X12850Y17925D01*
G01X12882Y17899D01*
G01X12898Y17887D01*
G01X12915Y17874D01*
G01X12932Y17863D01*
G01X12949Y17851D01*
G01X12966Y17840D01*
G01X12984Y17830D01*
G01X13002Y17819D01*
G01X13020Y17810D01*
G01X13038Y17800D01*
G01X13057Y17791D01*
G01X13075Y17782D01*
G01X13094Y17774D01*
G01X13114Y17766D01*
G01X13152Y17752D01*
G01X13172Y17745D01*
G01X13212Y17733D01*
G01X13233Y17728D01*
G01X13253Y17723D01*
G01X13316Y17711D01*
G01X13358Y17705D01*
G01X13380Y17702D01*
G01X13402Y17700D01*
G01X13468Y17697D01*
G01X13516Y17697D01*
G01X13541Y17698D01*
G01X13567Y17700D01*
G01X13591Y17702D01*
G01X13616Y17704D01*
G01X13640Y17707D01*
G01X13688Y17715D01*
G01X13710Y17720D01*
G01X13733Y17725D01*
G01X13756Y17731D01*
G01X13800Y17745D01*
G01X13821Y17752D01*
G01X13843Y17760D01*
G01X13864Y17769D01*
G01X13904Y17787D01*
G01X13925Y17797D01*
G01X13944Y17808D01*
G01X13964Y17819D01*
G01X14021Y17855D01*
G01X14039Y17868D01*
G01X14075Y17896D01*
G01X14093Y17911D01*
G01X14127Y17941D01*
G01X14144Y17957D01*
G01X14161Y17974D01*
G01X14193Y18008D01*
G01X14225Y18044D01*
G01X14074Y18215D01*
G01X14057Y18196D01*
G01X14040Y18178D01*
G01X14022Y18161D01*
G01X14005Y18144D01*
G01X13987Y18127D01*
G01X13951Y18097D01*
G01X13932Y18082D01*
G01X13914Y18069D01*
G01X13895Y18055D01*
G01X13876Y18043D01*
G01X13856Y18031D01*
G01X13837Y18020D01*
G01X13797Y18000D01*
G01X13776Y17991D01*
G01X13734Y17975D01*
G01X13713Y17968D01*
G01X13669Y17956D01*
G01X13646Y17951D01*
G01X13623Y17947D01*
G01X13577Y17941D01*
G01X13552Y17940D01*
G01X13528Y17938D01*
G01X13481Y17938D01*
G01X13459Y17939D01*
G01X13438Y17941D01*
G01X13416Y17943D01*
G01X13395Y17945D01*
G01X13374Y17948D01*
G01X13334Y17956D01*
G01X13294Y17966D01*
G01X13256Y17978D01*
G01X13237Y17985D01*
G01X13218Y17993D01*
G01X13182Y18009D01*
G01X13165Y18018D01*
G01X13147Y18028D01*
G01X13130Y18038D01*
G01X13114Y18048D01*
G01X13097Y18059D01*
G01X13081Y18071D01*
G01X13066Y18083D01*
G01X13050Y18095D01*
G01X13035Y18108D01*
G01X13020Y18122D01*
G01X12992Y18150D01*
G01X12978Y18165D01*
G01X12965Y18180D01*
G01X12939Y18212D01*
G01X12915Y18246D01*
G01X12903Y18264D01*
G01X12892Y18282D01*
G01X12870Y18320D01*
G01X12860Y18339D01*
G01X12850Y18359D01*
G01X12841Y18379D01*
G01X12823Y18421D01*
G01X12815Y18442D01*
G01X12807Y18464D01*
G01X12799Y18487D01*
G01X12792Y18509D01*
G01X12785Y18532D01*
G01X12779Y18556D01*
G01X12772Y18580D01*
G01X12767Y18604D01*
G01X12752Y18679D01*
G01X12748Y18705D01*
G01X12745Y18731D01*
G01X12739Y18785D01*
G01X12737Y18812D01*
G01X12733Y18868D01*
G01X12732Y18896D01*
G01X12731Y18925D01*
G01X12731Y18983D01*
G01X12732Y19012D01*
G01X12733Y19040D01*
G01X12735Y19068D01*
G01X12739Y19122D01*
G01X12742Y19149D01*
G01X12745Y19175D01*
G01X12753Y19227D01*
G01X12768Y19302D01*
G01X12780Y19350D01*
G01X12794Y19396D01*
G01X12801Y19418D01*
G01X12809Y19440D01*
G01X12818Y19462D01*
G01X12826Y19483D01*
G01X12844Y19525D01*
G01X12854Y19545D01*
G01X12864Y19564D01*
G01X12875Y19583D01*
G01X12885Y19602D01*
G01X12897Y19620D01*
G01X12908Y19638D01*
G01X12920Y19655D01*
G01X12933Y19672D01*
G01X12945Y19689D01*
G01X12958Y19705D01*
G01X12971Y19720D01*
G01X12985Y19736D01*
G01X13013Y19764D01*
G01X13028Y19778D01*
G01X13058Y19804D01*
G01X13090Y19828D01*
G01X13122Y19850D01*
G01X13140Y19861D01*
G01X13157Y19870D01*
G01X13174Y19880D01*
G01X13192Y19888D01*
G01X13210Y19897D01*
G01X13228Y19905D01*
G01X13266Y19919D01*
G01X13304Y19931D01*
G01X13324Y19936D01*
G01X13364Y19944D01*
G01X13385Y19948D01*
G01X13427Y19954D01*
G01X13448Y19955D01*
G01X13469Y19957D01*
G01X13491Y19958D01*
G01X13539Y19958D01*
G01X13565Y19956D01*
G01X13590Y19954D01*
G01X13615Y19950D01*
G01X13639Y19946D01*
G01X13663Y19941D01*
G01X13709Y19929D01*
G01X13753Y19913D01*
G01X13775Y19904D01*
G01X13796Y19894D01*
G01X13816Y19884D01*
G01X13837Y19873D01*
G01X13856Y19861D01*
G01X13876Y19848D01*
G01X13894Y19835D01*
G01X13913Y19821D01*
G01X13931Y19807D01*
G01X13965Y19777D01*
G01X13982Y19761D01*
G01X14014Y19727D01*
G01X14166Y19905D01*
G01X14153Y19919D01*
G01X14125Y19947D01*
G01X14095Y19975D01*
G01X14079Y19988D01*
G01X14063Y20002D01*
G01X14029Y20028D01*
G01X14011Y20040D01*
G01X13993Y20053D01*
G01X13975Y20065D01*
G01X13956Y20076D01*
G01X13916Y20098D01*
G01X13896Y20108D01*
G01X13854Y20128D01*
G01X13832Y20137D01*
G01X13810Y20145D01*
G01X13764Y20161D01*
G01X13740Y20167D01*
G01X13716Y20174D01*
G01X13692Y20179D01*
G01X13667Y20184D01*
G01X13642Y20188D01*
G01X13616Y20192D01*
G01X13564Y20196D01*
G01X13537Y20198D01*
G37*

%LPD*%
G36*
G01X7503Y20027D02*
G01X7279Y20027D01*
G01X7246Y19522D01*
G01X6965Y19505D01*
G01X6965Y19301D01*
G01X7236Y19301D01*
G01X7236Y18252D01*
G01X7238Y18202D01*
G01X7240Y18177D01*
G01X7242Y18153D01*
G01X7248Y18107D01*
G01X7252Y18084D01*
G01X7256Y18062D01*
G01X7266Y18020D01*
G01X7272Y17999D01*
G01X7279Y17980D01*
G01X7286Y17960D01*
G01X7302Y17924D01*
G01X7311Y17906D01*
G01X7321Y17889D01*
G01X7331Y17873D01*
G01X7342Y17857D01*
G01X7354Y17842D01*
G01X7367Y17828D01*
G01X7380Y17815D01*
G01X7394Y17802D01*
G01X7409Y17789D01*
G01X7424Y17778D01*
G01X7440Y17767D01*
G01X7457Y17757D01*
G01X7475Y17748D01*
G01X7494Y17739D01*
G01X7513Y17731D01*
G01X7534Y17724D01*
G01X7555Y17718D01*
G01X7577Y17712D01*
G01X7600Y17708D01*
G01X7624Y17704D01*
G01X7649Y17701D01*
G01X7674Y17699D01*
G01X7701Y17697D01*
G01X7728Y17697D01*
G01X7753Y17698D01*
G01X7779Y17700D01*
G01X7806Y17703D01*
G01X7832Y17707D01*
G01X7859Y17712D01*
G01X7887Y17718D01*
G01X7914Y17724D01*
G01X7941Y17731D01*
G01X7967Y17739D01*
G01X7994Y17747D01*
G01X8044Y17763D01*
G01X7992Y17968D01*
G01X7969Y17958D01*
G01X7944Y17949D01*
G01X7917Y17940D01*
G01X7890Y17933D01*
G01X7863Y17927D01*
G01X7836Y17922D01*
G01X7810Y17919D01*
G01X7784Y17918D01*
G01X7758Y17919D01*
G01X7734Y17921D01*
G01X7710Y17924D01*
G01X7689Y17929D01*
G01X7668Y17935D01*
G01X7650Y17942D01*
G01X7632Y17951D01*
G01X7616Y17960D01*
G01X7601Y17971D01*
G01X7587Y17983D01*
G01X7574Y17997D01*
G01X7563Y18011D01*
G01X7553Y18027D01*
G01X7535Y18061D01*
G01X7528Y18080D01*
G01X7522Y18100D01*
G01X7517Y18121D01*
G01X7513Y18143D01*
G01X7509Y18166D01*
G01X7506Y18190D01*
G01X7505Y18215D01*
G01X7504Y18241D01*
G01X7503Y18268D01*
G01X7503Y19301D01*
G01X7995Y19301D01*
G01X7995Y19522D01*
G01X7503Y19522D01*
G01X7503Y20027D01*
G37*

%LPD*%
G36*
G01X6072Y19568D02*
G01X6018Y19568D01*
G01X5992Y19566D01*
G01X5965Y19565D01*
G01X5939Y19562D01*
G01X5914Y19559D01*
G01X5888Y19555D01*
G01X5863Y19551D01*
G01X5838Y19546D01*
G01X5813Y19540D01*
G01X5789Y19534D01*
G01X5764Y19528D01*
G01X5741Y19521D01*
G01X5717Y19514D01*
G01X5694Y19506D01*
G01X5672Y19498D01*
G01X5649Y19489D01*
G01X5627Y19481D01*
G01X5606Y19472D01*
G01X5585Y19462D01*
G01X5564Y19453D01*
G01X5524Y19433D01*
G01X5504Y19424D01*
G01X5486Y19414D01*
G01X5467Y19404D01*
G01X5449Y19393D01*
G01X5398Y19363D01*
G01X5382Y19353D01*
G01X5367Y19344D01*
G01X5352Y19334D01*
G01X5461Y19146D01*
G01X5478Y19158D01*
G01X5514Y19182D01*
G01X5533Y19194D01*
G01X5553Y19205D01*
G01X5572Y19217D01*
G01X5593Y19228D01*
G01X5614Y19240D01*
G01X5635Y19250D01*
G01X5657Y19261D01*
G01X5679Y19271D01*
G01X5702Y19281D01*
G01X5725Y19290D01*
G01X5748Y19298D01*
G01X5796Y19314D01*
G01X5871Y19332D01*
G01X5897Y19336D01*
G01X5949Y19342D01*
G01X5975Y19343D01*
G01X6002Y19344D01*
G01X6030Y19343D01*
G01X6057Y19341D01*
G01X6083Y19338D01*
G01X6107Y19333D01*
G01X6130Y19327D01*
G01X6152Y19320D01*
G01X6172Y19312D01*
G01X6191Y19303D01*
G01X6210Y19293D01*
G01X6227Y19281D01*
G01X6243Y19269D01*
G01X6258Y19256D01*
G01X6272Y19242D01*
G01X6285Y19227D01*
G01X6297Y19211D01*
G01X6308Y19195D01*
G01X6319Y19178D01*
G01X6328Y19160D01*
G01X6344Y19122D01*
G01X6351Y19103D01*
G01X6357Y19083D01*
G01X6362Y19062D01*
G01X6367Y19042D01*
G01X6371Y19020D01*
G01X6374Y18999D01*
G01X6377Y18977D01*
G01X6379Y18955D01*
G01X6380Y18933D01*
G01X6381Y18910D01*
G01X6381Y18865D01*
G01X6343Y18861D01*
G01X6306Y18856D01*
G01X6234Y18846D01*
G01X6164Y18836D01*
G01X6131Y18830D01*
G01X6098Y18825D01*
G01X6065Y18819D01*
G01X6003Y18807D01*
G01X5943Y18793D01*
G01X5914Y18786D01*
G01X5858Y18772D01*
G01X5831Y18764D01*
G01X5805Y18757D01*
G01X5755Y18741D01*
G01X5730Y18732D01*
G01X5707Y18723D01*
G01X5684Y18715D01*
G01X5662Y18705D01*
G01X5640Y18696D01*
G01X5619Y18686D01*
G01X5599Y18677D01*
G01X5579Y18667D01*
G01X5560Y18656D01*
G01X5542Y18646D01*
G01X5524Y18635D01*
G01X5507Y18624D01*
G01X5490Y18612D01*
G01X5475Y18601D01*
G01X5459Y18589D01*
G01X5445Y18577D01*
G01X5431Y18564D01*
G01X5418Y18552D01*
G01X5405Y18539D01*
G01X5393Y18525D01*
G01X5381Y18512D01*
G01X5370Y18498D01*
G01X5350Y18470D01*
G01X5341Y18455D01*
G01X5325Y18425D01*
G01X5318Y18409D01*
G01X5311Y18394D01*
G01X5305Y18377D01*
G01X5299Y18361D01*
G01X5295Y18344D01*
G01X5290Y18327D01*
G01X5286Y18310D01*
G01X5283Y18292D01*
G01X5279Y18256D01*
G01X5277Y18237D01*
G01X5276Y18218D01*
G01X5276Y18199D01*
G01X5277Y18172D01*
G01X5278Y18146D01*
G01X5284Y18096D01*
G01X5289Y18073D01*
G01X5294Y18049D01*
G01X5300Y18027D01*
G01X5308Y18005D01*
G01X5316Y17984D01*
G01X5325Y17963D01*
G01X5345Y17925D01*
G01X5369Y17889D01*
G01X5382Y17872D01*
G01X5395Y17856D01*
G01X5410Y17841D01*
G01X5425Y17827D01*
G01X5441Y17813D01*
G01X5457Y17800D01*
G01X5474Y17787D01*
G01X5510Y17765D01*
G01X5529Y17755D01*
G01X5549Y17746D01*
G01X5589Y17730D01*
G01X5610Y17723D01*
G01X5632Y17717D01*
G01X5676Y17707D01*
G01X5722Y17701D01*
G01X5770Y17697D01*
G01X5818Y17697D01*
G01X5866Y17701D01*
G01X5889Y17704D01*
G01X5935Y17712D01*
G01X5958Y17717D01*
G01X5981Y17723D01*
G01X6004Y17730D01*
G01X6026Y17737D01*
G01X6049Y17745D01*
G01X6093Y17763D01*
G01X6114Y17773D01*
G01X6136Y17783D01*
G01X6157Y17794D01*
G01X6220Y17830D01*
G01X6260Y17856D01*
G01X6320Y17898D01*
G01X6339Y17912D01*
G01X6358Y17927D01*
G01X6377Y17943D01*
G01X6395Y17958D01*
G01X6404Y17958D01*
G01X6428Y17740D01*
G01X6649Y17740D01*
G01X6649Y18873D01*
G01X6647Y18925D01*
G01X6646Y18950D01*
G01X6644Y18975D01*
G01X6638Y19025D01*
G01X6634Y19048D01*
G01X6630Y19072D01*
G01X6626Y19095D01*
G01X6621Y19118D01*
G01X6616Y19140D01*
G01X6610Y19162D01*
G01X6596Y19204D01*
G01X6589Y19224D01*
G01X6581Y19244D01*
G01X6563Y19282D01*
G01X6543Y19318D01*
G01X6521Y19352D01*
G01X6509Y19368D01*
G01X6497Y19383D01*
G01X6484Y19398D01*
G01X6470Y19413D01*
G01X6456Y19427D01*
G01X6426Y19453D01*
G01X6410Y19465D01*
G01X6394Y19476D01*
G01X6377Y19487D01*
G01X6341Y19507D01*
G01X6322Y19516D01*
G01X6302Y19524D01*
G01X6282Y19531D01*
G01X6261Y19538D01*
G01X6240Y19544D01*
G01X6218Y19550D01*
G01X6195Y19555D01*
G01X6172Y19559D01*
G01X6148Y19562D01*
G01X6123Y19565D01*
G01X6098Y19566D01*
G01X6072Y19568D01*
G37*

%LPC*%
G36*
G01X6381Y18162D02*
G01X6381Y18684D01*
G01X6339Y18679D01*
G01X6298Y18674D01*
G01X6258Y18668D01*
G01X6182Y18656D01*
G01X6146Y18650D01*
G01X6111Y18643D01*
G01X6045Y18629D01*
G01X6014Y18622D01*
G01X5954Y18606D01*
G01X5900Y18590D01*
G01X5874Y18581D01*
G01X5849Y18572D01*
G01X5803Y18554D01*
G01X5761Y18534D01*
G01X5741Y18524D01*
G01X5723Y18514D01*
G01X5705Y18503D01*
G01X5673Y18481D01*
G01X5658Y18469D01*
G01X5632Y18445D01*
G01X5620Y18433D01*
G01X5609Y18420D01*
G01X5598Y18408D01*
G01X5589Y18394D01*
G01X5580Y18381D01*
G01X5566Y18353D01*
G01X5554Y18325D01*
G01X5546Y18295D01*
G01X5543Y18279D01*
G01X5540Y18264D01*
G01X5539Y18248D01*
G01X5538Y18231D01*
G01X5537Y18215D01*
G01X5538Y18189D01*
G01X5540Y18164D01*
G01X5544Y18141D01*
G01X5549Y18118D01*
G01X5555Y18098D01*
G01X5563Y18078D01*
G01X5572Y18059D01*
G01X5582Y18042D01*
G01X5594Y18026D01*
G01X5606Y18011D01*
G01X5619Y17997D01*
G01X5649Y17973D01*
G01X5683Y17953D01*
G01X5701Y17945D01*
G01X5719Y17938D01*
G01X5739Y17932D01*
G01X5759Y17927D01*
G01X5780Y17922D01*
G01X5801Y17919D01*
G01X5822Y17917D01*
G01X5845Y17915D01*
G01X5890Y17915D01*
G01X5934Y17919D01*
G01X5956Y17922D01*
G01X5977Y17926D01*
G01X5998Y17931D01*
G01X6020Y17937D01*
G01X6041Y17943D01*
G01X6083Y17959D01*
G01X6103Y17968D01*
G01X6124Y17978D01*
G01X6145Y17989D01*
G01X6187Y18013D01*
G01X6208Y18026D01*
G01X6229Y18041D01*
G01X6250Y18055D01*
G01X6271Y18071D01*
G01X6315Y18105D01*
G01X6337Y18123D01*
G01X6359Y18142D01*
G01X6381Y18162D01*
G37*

%LPD*%
G36*
G01X2281Y20198D02*
G01X2230Y20198D01*
G01X2208Y20197D01*
G01X2185Y20196D01*
G01X2119Y20190D01*
G01X2075Y20184D01*
G01X2033Y20176D01*
G01X2011Y20172D01*
G01X1990Y20167D01*
G01X1970Y20161D01*
G01X1949Y20155D01*
G01X1929Y20149D01*
G01X1869Y20128D01*
G01X1850Y20120D01*
G01X1830Y20112D01*
G01X1792Y20094D01*
G01X1774Y20084D01*
G01X1755Y20074D01*
G01X1737Y20064D01*
G01X1719Y20053D01*
G01X1702Y20042D01*
G01X1684Y20031D01*
G01X1650Y20007D01*
G01X1633Y19994D01*
G01X1601Y19968D01*
G01X1569Y19940D01*
G01X1509Y19880D01*
G01X1495Y19864D01*
G01X1481Y19847D01*
G01X1467Y19831D01*
G01X1454Y19813D01*
G01X1441Y19796D01*
G01X1415Y19760D01*
G01X1403Y19742D01*
G01X1391Y19723D01*
G01X1380Y19704D01*
G01X1368Y19684D01*
G01X1357Y19664D01*
G01X1347Y19644D01*
G01X1337Y19623D01*
G01X1327Y19603D01*
G01X1317Y19581D01*
G01X1308Y19560D01*
G01X1290Y19516D01*
G01X1266Y19447D01*
G01X1259Y19424D01*
G01X1252Y19400D01*
G01X1246Y19376D01*
G01X1234Y19326D01*
G01X1224Y19276D01*
G01X1219Y19250D01*
G01X1211Y19198D01*
G01X1207Y19171D01*
G01X1204Y19144D01*
G01X1202Y19117D01*
G01X1199Y19090D01*
G01X1198Y19062D01*
G01X1196Y19034D01*
G01X1195Y19006D01*
G01X1194Y18977D01*
G01X1194Y18919D01*
G01X1196Y18861D01*
G01X1197Y18833D01*
G01X1199Y18805D01*
G01X1202Y18777D01*
G01X1204Y18750D01*
G01X1207Y18723D01*
G01X1211Y18696D01*
G01X1214Y18670D01*
G01X1218Y18644D01*
G01X1228Y18592D01*
G01X1233Y18567D01*
G01X1239Y18542D01*
G01X1245Y18518D01*
G01X1251Y18493D01*
G01X1258Y18469D01*
G01X1265Y18446D01*
G01X1273Y18423D01*
G01X1280Y18400D01*
G01X1289Y18377D01*
G01X1297Y18355D01*
G01X1315Y18311D01*
G01X1324Y18290D01*
G01X1334Y18269D01*
G01X1344Y18249D01*
G01X1355Y18228D01*
G01X1365Y18209D01*
G01X1377Y18189D01*
G01X1388Y18170D01*
G01X1400Y18151D01*
G01X1412Y18133D01*
G01X1424Y18114D01*
G01X1437Y18097D01*
G01X1449Y18079D01*
G01X1462Y18062D01*
G01X1476Y18046D01*
G01X1490Y18029D01*
G01X1504Y18013D01*
G01X1518Y17998D01*
G01X1548Y17968D01*
G01X1562Y17953D01*
G01X1578Y17939D01*
G01X1593Y17925D01*
G01X1610Y17912D01*
G01X1626Y17899D01*
G01X1642Y17887D01*
G01X1659Y17874D01*
G01X1676Y17863D01*
G01X1693Y17851D01*
G01X1710Y17840D01*
G01X1728Y17830D01*
G01X1745Y17819D01*
G01X1764Y17810D01*
G01X1782Y17800D01*
G01X1800Y17791D01*
G01X1819Y17782D01*
G01X1857Y17766D01*
G01X1876Y17759D01*
G01X1896Y17752D01*
G01X1915Y17745D01*
G01X1936Y17739D01*
G01X1956Y17733D01*
G01X1996Y17723D01*
G01X2059Y17711D01*
G01X2080Y17708D01*
G01X2102Y17705D01*
G01X2123Y17702D01*
G01X2145Y17700D01*
G01X2211Y17697D01*
G01X2259Y17697D01*
G01X2285Y17698D01*
G01X2335Y17702D01*
G01X2359Y17704D01*
G01X2384Y17707D01*
G01X2408Y17711D01*
G01X2431Y17715D01*
G01X2477Y17725D01*
G01X2500Y17731D01*
G01X2544Y17745D01*
G01X2565Y17752D01*
G01X2586Y17760D01*
G01X2628Y17778D01*
G01X2648Y17787D01*
G01X2669Y17797D01*
G01X2688Y17808D01*
G01X2708Y17819D01*
G01X2765Y17855D01*
G01X2783Y17868D01*
G01X2819Y17896D01*
G01X2837Y17911D01*
G01X2871Y17941D01*
G01X2888Y17957D01*
G01X2905Y17974D01*
G01X2937Y18008D01*
G01X2969Y18044D01*
G01X2817Y18215D01*
G01X2800Y18196D01*
G01X2783Y18178D01*
G01X2765Y18161D01*
G01X2748Y18144D01*
G01X2730Y18127D01*
G01X2676Y18082D01*
G01X2657Y18069D01*
G01X2639Y18055D01*
G01X2619Y18043D01*
G01X2600Y18031D01*
G01X2580Y18020D01*
G01X2561Y18010D01*
G01X2540Y18000D01*
G01X2520Y17991D01*
G01X2478Y17975D01*
G01X2456Y17968D01*
G01X2435Y17962D01*
G01X2412Y17956D01*
G01X2390Y17951D01*
G01X2367Y17947D01*
G01X2344Y17944D01*
G01X2320Y17941D01*
G01X2296Y17940D01*
G01X2271Y17938D01*
G01X2224Y17938D01*
G01X2202Y17939D01*
G01X2181Y17941D01*
G01X2159Y17943D01*
G01X2138Y17945D01*
G01X2117Y17948D01*
G01X2077Y17956D01*
G01X2037Y17966D01*
G01X1999Y17978D01*
G01X1980Y17985D01*
G01X1961Y17993D01*
G01X1925Y18009D01*
G01X1908Y18018D01*
G01X1890Y18028D01*
G01X1873Y18038D01*
G01X1857Y18048D01*
G01X1840Y18059D01*
G01X1824Y18071D01*
G01X1809Y18083D01*
G01X1793Y18095D01*
G01X1778Y18108D01*
G01X1763Y18122D01*
G01X1735Y18150D01*
G01X1721Y18165D01*
G01X1708Y18180D01*
G01X1682Y18212D01*
G01X1658Y18246D01*
G01X1646Y18264D01*
G01X1635Y18282D01*
G01X1613Y18320D01*
G01X1603Y18339D01*
G01X1593Y18359D01*
G01X1584Y18379D01*
G01X1566Y18421D01*
G01X1558Y18442D01*
G01X1550Y18464D01*
G01X1542Y18487D01*
G01X1535Y18509D01*
G01X1528Y18532D01*
G01X1522Y18556D01*
G01X1515Y18580D01*
G01X1510Y18604D01*
G01X1495Y18679D01*
G01X1491Y18705D01*
G01X1488Y18731D01*
G01X1482Y18785D01*
G01X1480Y18812D01*
G01X1476Y18868D01*
G01X1475Y18896D01*
G01X1474Y18925D01*
G01X1474Y18983D01*
G01X1475Y19012D01*
G01X1476Y19040D01*
G01X1478Y19068D01*
G01X1482Y19122D01*
G01X1485Y19149D01*
G01X1488Y19175D01*
G01X1496Y19227D01*
G01X1511Y19302D01*
G01X1523Y19350D01*
G01X1537Y19396D01*
G01X1544Y19418D01*
G01X1552Y19440D01*
G01X1561Y19462D01*
G01X1569Y19483D01*
G01X1587Y19525D01*
G01X1597Y19545D01*
G01X1607Y19564D01*
G01X1629Y19602D01*
G01X1651Y19638D01*
G01X1663Y19655D01*
G01X1676Y19672D01*
G01X1688Y19689D01*
G01X1701Y19705D01*
G01X1714Y19720D01*
G01X1728Y19736D01*
G01X1756Y19764D01*
G01X1771Y19778D01*
G01X1801Y19804D01*
G01X1833Y19828D01*
G01X1865Y19850D01*
G01X1883Y19861D01*
G01X1900Y19870D01*
G01X1917Y19880D01*
G01X1935Y19888D01*
G01X1953Y19897D01*
G01X1971Y19905D01*
G01X2009Y19919D01*
G01X2047Y19931D01*
G01X2067Y19936D01*
G01X2107Y19944D01*
G01X2128Y19948D01*
G01X2170Y19954D01*
G01X2191Y19955D01*
G01X2212Y19957D01*
G01X2234Y19958D01*
G01X2282Y19958D01*
G01X2334Y19954D01*
G01X2358Y19950D01*
G01X2383Y19946D01*
G01X2406Y19941D01*
G01X2430Y19935D01*
G01X2453Y19929D01*
G01X2497Y19913D01*
G01X2519Y19904D01*
G01X2540Y19894D01*
G01X2560Y19884D01*
G01X2581Y19873D01*
G01X2600Y19861D01*
G01X2620Y19848D01*
G01X2638Y19835D01*
G01X2657Y19821D01*
G01X2675Y19807D01*
G01X2709Y19777D01*
G01X2726Y19761D01*
G01X2758Y19727D01*
G01X2910Y19905D01*
G01X2897Y19919D01*
G01X2869Y19947D01*
G01X2839Y19975D01*
G01X2823Y19988D01*
G01X2807Y20002D01*
G01X2773Y20028D01*
G01X2755Y20040D01*
G01X2737Y20053D01*
G01X2719Y20065D01*
G01X2700Y20076D01*
G01X2660Y20098D01*
G01X2640Y20108D01*
G01X2598Y20128D01*
G01X2576Y20137D01*
G01X2554Y20145D01*
G01X2508Y20161D01*
G01X2484Y20167D01*
G01X2460Y20174D01*
G01X2436Y20179D01*
G01X2411Y20184D01*
G01X2386Y20188D01*
G01X2360Y20192D01*
G01X2308Y20196D01*
G01X2281Y20198D01*
G37*

%LPD*%
G54D15*
G01X19303Y5655D02*
G01X19303Y5083D01*
G01X19303Y5655D02*
G01X19657Y5655D01*
G01X19303Y5383D02*
G01X19521Y5383D01*
G01X19303Y5083D02*
G01X19657Y5083D01*
G01X20219Y5574D02*
G01X20165Y5628D01*
G01X20083Y5655D01*
G01X19974Y5655D01*
G01X19892Y5628D01*
G01X19837Y5574D01*
G01X19837Y5519D01*
G01X19865Y5464D01*
G01X19892Y5437D01*
G01X19946Y5410D01*
G01X20110Y5355D01*
G01X20165Y5328D01*
G01X20192Y5301D01*
G01X20219Y5246D01*
G01X20219Y5164D01*
G01X20165Y5110D01*
G01X20083Y5083D01*
G01X19974Y5083D01*
G01X19892Y5110D01*
G01X19837Y5164D01*
G01X20399Y5655D02*
G01X20399Y5083D01*
G01X20399Y5655D02*
G01X20645Y5655D01*
G01X20726Y5628D01*
G01X20754Y5601D01*
G01X20781Y5546D01*
G01X20781Y5464D01*
G01X20754Y5410D01*
G01X20726Y5383D01*
G01X20645Y5355D01*
G01X20399Y5355D01*
G01X21097Y5655D02*
G01X21015Y5628D01*
G01X20988Y5574D01*
G01X20988Y5519D01*
G01X21015Y5464D01*
G01X21070Y5437D01*
G01X21179Y5410D01*
G01X21261Y5383D01*
G01X21315Y5328D01*
G01X21343Y5274D01*
G01X21343Y5192D01*
G01X21315Y5137D01*
G01X21288Y5110D01*
G01X21206Y5083D01*
G01X21097Y5083D01*
G01X21015Y5110D01*
G01X20988Y5137D01*
G01X20961Y5192D01*
G01X20961Y5274D01*
G01X20988Y5328D01*
G01X21043Y5383D01*
G01X21125Y5410D01*
G01X21234Y5437D01*
G01X21288Y5464D01*
G01X21315Y5519D01*
G01X21315Y5574D01*
G01X21288Y5628D01*
G01X21206Y5655D01*
G01X21097Y5655D01*
G01X21550Y5519D02*
G01X21550Y5546D01*
G01X21577Y5601D01*
G01X21605Y5628D01*
G01X21659Y5655D01*
G01X21768Y5655D01*
G01X21823Y5628D01*
G01X21850Y5601D01*
G01X21877Y5546D01*
G01X21877Y5492D01*
G01X21850Y5437D01*
G01X21795Y5355D01*
G01X21523Y5083D01*
G01X21905Y5083D01*
G01X22412Y5574D02*
G01X22385Y5628D01*
G01X22303Y5655D01*
G01X22248Y5655D01*
G01X22166Y5628D01*
G01X22112Y5546D01*
G01X22085Y5410D01*
G01X22085Y5274D01*
G01X22112Y5164D01*
G01X22166Y5110D01*
G01X22248Y5083D01*
G01X22275Y5083D01*
G01X22357Y5110D01*
G01X22412Y5164D01*
G01X22439Y5246D01*
G01X22439Y5274D01*
G01X22412Y5355D01*
G01X22357Y5410D01*
G01X22275Y5437D01*
G01X22248Y5437D01*
G01X22166Y5410D01*
G01X22112Y5355D01*
G01X22085Y5274D01*
G01X22946Y5574D02*
G01X22919Y5628D01*
G01X22837Y5655D01*
G01X22783Y5655D01*
G01X22701Y5628D01*
G01X22646Y5546D01*
G01X22619Y5410D01*
G01X22619Y5274D01*
G01X22646Y5164D01*
G01X22701Y5110D01*
G01X22783Y5083D01*
G01X22810Y5083D01*
G01X22892Y5110D01*
G01X22946Y5164D01*
G01X22974Y5246D01*
G01X22974Y5274D01*
G01X22946Y5355D01*
G01X22892Y5410D01*
G01X22810Y5437D01*
G01X22783Y5437D01*
G01X22701Y5410D01*
G01X22646Y5355D01*
G01X22619Y5274D01*
G54D35*
G01X33403Y19200D03*
G36*
G01X30338Y3652D02*
G01X30338Y4204D01*
G01X31127Y4204D01*
G01X31127Y3652D01*
G01X30338Y3652D01*
G37*
G36*
G01X30338Y2195D02*
G01X30338Y2748D01*
G01X31127Y2748D01*
G01X31127Y2195D01*
G01X30338Y2195D01*
G37*
G36*
G01X32779Y3652D02*
G01X32779Y4204D01*
G01X33568Y4204D01*
G01X33568Y3652D01*
G01X32779Y3652D01*
G37*
G36*
G01X32779Y2195D02*
G01X32779Y2748D01*
G01X33568Y2748D01*
G01X33568Y2195D01*
G01X32779Y2195D01*
G37*
G36*
G01X26588Y3652D02*
G01X26588Y4204D01*
G01X27377Y4204D01*
G01X27377Y3652D01*
G01X26588Y3652D01*
G37*
G36*
G01X26588Y2195D02*
G01X26588Y2748D01*
G01X27377Y2748D01*
G01X27377Y2195D01*
G01X26588Y2195D01*
G37*
G36*
G01X29029Y3652D02*
G01X29029Y4204D01*
G01X29818Y4204D01*
G01X29818Y3652D01*
G01X29029Y3652D01*
G37*
G36*
G01X29029Y2195D02*
G01X29029Y2748D01*
G01X29818Y2748D01*
G01X29818Y2195D01*
G01X29029Y2195D01*
G37*
G36*
G01X33044Y9781D02*
G01X33044Y10019D01*
G01X33655Y10019D01*
G01X33655Y9781D01*
G01X33044Y9781D01*
G37*
G36*
G01X33044Y10034D02*
G01X33044Y10272D01*
G01X33655Y10272D01*
G01X33655Y10034D01*
G01X33044Y10034D01*
G37*
G36*
G01X33044Y10287D02*
G01X33044Y10525D01*
G01X33655Y10525D01*
G01X33655Y10287D01*
G01X33044Y10287D01*
G37*
G36*
G01X33044Y10540D02*
G01X33044Y10778D01*
G01X33655Y10778D01*
G01X33655Y10540D01*
G01X33044Y10540D01*
G37*
G36*
G01X33044Y10793D02*
G01X33044Y11030D01*
G01X33655Y11030D01*
G01X33655Y10793D01*
G01X33044Y10793D01*
G37*
G36*
G01X33989Y8431D02*
G01X33989Y9259D01*
G01X34817Y9259D01*
G01X34817Y8431D01*
G01X33989Y8431D01*
G37*
G36*
G01X33989Y11541D02*
G01X33989Y12369D01*
G01X34817Y12369D01*
G01X34817Y11541D01*
G01X33989Y11541D01*
G37*
G36*
G01X24065Y10550D02*
G01X24065Y11024D01*
G01X24735Y11024D01*
G01X24735Y10550D01*
G01X24065Y10550D01*
G37*
G36*
G01X24064Y11343D02*
G01X24064Y11817D01*
G01X24734Y11817D01*
G01X24734Y11343D01*
G01X24064Y11343D01*
G37*
G36*
G01X24062Y12137D02*
G01X24062Y12610D01*
G01X24732Y12610D01*
G01X24732Y12137D01*
G01X24062Y12137D01*
G37*
G36*
G01X24071Y8187D02*
G01X24071Y8660D01*
G01X24742Y8660D01*
G01X24742Y8187D01*
G01X24071Y8187D01*
G37*
G36*
G01X24066Y8971D02*
G01X24066Y9445D01*
G01X24737Y9445D01*
G01X24737Y8971D01*
G01X24066Y8971D01*
G37*
G36*
G01X24065Y9763D02*
G01X24065Y10237D01*
G01X24735Y10237D01*
G01X24735Y9763D01*
G01X24065Y9763D01*
G37*
G36*
G01X23473Y12979D02*
G01X23473Y13925D01*
G01X23947Y13925D01*
G01X23947Y12979D01*
G01X23473Y12979D01*
G37*
G36*
G01X22687Y12979D02*
G01X22687Y13925D01*
G01X23160Y13925D01*
G01X23160Y12979D01*
G01X22687Y12979D01*
G37*
G36*
G01X21899Y12980D02*
G01X21899Y13926D01*
G01X22373Y13926D01*
G01X22373Y12980D01*
G01X21899Y12980D01*
G37*
G36*
G01X21112Y12979D02*
G01X21112Y13925D01*
G01X21586Y13925D01*
G01X21586Y12979D01*
G01X21112Y12979D01*
G37*
G36*
G01X20324Y12980D02*
G01X20324Y13926D01*
G01X20797Y13926D01*
G01X20797Y12980D01*
G01X20324Y12980D01*
G37*
G36*
G01X19536Y12980D02*
G01X19536Y13926D01*
G01X20010Y13926D01*
G01X20010Y12980D01*
G01X19536Y12980D01*
G37*
G36*
G01X18749Y12979D02*
G01X18749Y13926D01*
G01X19223Y13926D01*
G01X19223Y12979D01*
G01X18749Y12979D01*
G37*
G36*
G01X17962Y12979D02*
G01X17962Y13925D01*
G01X18436Y13925D01*
G01X18436Y12979D01*
G01X17962Y12979D01*
G37*
G36*
G01X23478Y6874D02*
G01X23478Y7820D01*
G01X23952Y7820D01*
G01X23952Y6874D01*
G01X23478Y6874D01*
G37*
G36*
G01X22692Y6874D02*
G01X22692Y7820D01*
G01X23166Y7820D01*
G01X23166Y6874D01*
G01X22692Y6874D01*
G37*
G36*
G01X21903Y6874D02*
G01X21903Y7820D01*
G01X22377Y7820D01*
G01X22377Y6874D01*
G01X21903Y6874D01*
G37*
G36*
G01X21118Y6874D02*
G01X21118Y7820D01*
G01X21591Y7820D01*
G01X21591Y6874D01*
G01X21118Y6874D01*
G37*
G36*
G01X20332Y6874D02*
G01X20332Y7820D01*
G01X20806Y7820D01*
G01X20806Y6874D01*
G01X20332Y6874D01*
G37*
G36*
G01X19541Y6875D02*
G01X19541Y7821D01*
G01X20015Y7821D01*
G01X20015Y6875D01*
G01X19541Y6875D01*
G37*
G36*
G01X18756Y6874D02*
G01X18756Y7820D01*
G01X19230Y7820D01*
G01X19230Y6874D01*
G01X18756Y6874D01*
G37*
G36*
G01X17964Y6874D02*
G01X17964Y7820D01*
G01X18438Y7820D01*
G01X18438Y6874D01*
G01X17964Y6874D01*
G37*
G36*
G01X24727Y3665D02*
G01X24727Y4131D01*
G01X25173Y4131D01*
G01X25173Y3665D01*
G01X24727Y3665D01*
G37*
G36*
G01X25333Y3667D02*
G01X25333Y4133D01*
G01X25780Y4133D01*
G01X25780Y3667D01*
G01X25333Y3667D01*
G37*
G36*
G01X24727Y2365D02*
G01X24727Y2831D01*
G01X25173Y2831D01*
G01X25173Y2365D01*
G01X24727Y2365D01*
G37*
G36*
G01X25333Y2367D02*
G01X25333Y2833D01*
G01X25780Y2833D01*
G01X25780Y2367D01*
G01X25333Y2367D01*
G37*
G36*
G01X27183Y15516D02*
G01X27183Y15982D01*
G01X27630Y15982D01*
G01X27630Y15516D01*
G01X27183Y15516D01*
G37*
G36*
G01X26577Y15516D02*
G01X26577Y15982D01*
G01X27023Y15982D01*
G01X27023Y15516D01*
G01X26577Y15516D01*
G37*
G36*
G01X26577Y14216D02*
G01X26577Y14682D01*
G01X27023Y14682D01*
G01X27023Y14216D01*
G01X26577Y14216D01*
G37*
G36*
G01X27183Y14216D02*
G01X27183Y14682D01*
G01X27630Y14682D01*
G01X27630Y14216D01*
G01X27183Y14216D01*
G37*
G36*
G01X27183Y12966D02*
G01X27183Y13432D01*
G01X27630Y13432D01*
G01X27630Y12966D01*
G01X27183Y12966D01*
G37*
G36*
G01X26577Y12966D02*
G01X26577Y13432D01*
G01X27023Y13432D01*
G01X27023Y12966D01*
G01X26577Y12966D01*
G37*
G36*
G01X27183Y11666D02*
G01X27183Y12132D01*
G01X27630Y12132D01*
G01X27630Y11666D01*
G01X27183Y11666D01*
G37*
G36*
G01X26577Y11666D02*
G01X26577Y12132D01*
G01X27023Y12132D01*
G01X27023Y11666D01*
G01X26577Y11666D01*
G37*
G36*
G01X26577Y10416D02*
G01X26577Y10882D01*
G01X27023Y10882D01*
G01X27023Y10416D01*
G01X26577Y10416D01*
G37*
G36*
G01X27183Y10416D02*
G01X27183Y10882D01*
G01X27630Y10882D01*
G01X27630Y10416D01*
G01X27183Y10416D01*
G37*
G36*
G01X27183Y9166D02*
G01X27183Y9632D01*
G01X27630Y9632D01*
G01X27630Y9166D01*
G01X27183Y9166D01*
G37*
G36*
G01X26577Y9166D02*
G01X26577Y9632D01*
G01X27023Y9632D01*
G01X27023Y9166D01*
G01X26577Y9166D01*
G37*
G36*
G01X27183Y7866D02*
G01X27183Y8332D01*
G01X27630Y8332D01*
G01X27630Y7866D01*
G01X27183Y7866D01*
G37*
G36*
G01X26577Y7866D02*
G01X26577Y8332D01*
G01X27023Y8332D01*
G01X27023Y7866D01*
G01X26577Y7866D01*
G37*
G36*
G01X27183Y6616D02*
G01X27183Y7082D01*
G01X27630Y7082D01*
G01X27630Y6616D01*
G01X27183Y6616D01*
G37*
G36*
G01X26577Y6616D02*
G01X26577Y7082D01*
G01X27023Y7082D01*
G01X27023Y6616D01*
G01X26577Y6616D01*
G37*
G36*
G01X27183Y5316D02*
G01X27183Y5782D01*
G01X27630Y5782D01*
G01X27630Y5316D01*
G01X27183Y5316D01*
G37*
G36*
G01X26577Y5316D02*
G01X26577Y5782D01*
G01X27023Y5782D01*
G01X27023Y5316D01*
G01X26577Y5316D01*
G37*
G36*
G01X28477Y11665D02*
G01X28477Y12131D01*
G01X28923Y12131D01*
G01X28923Y11665D01*
G01X28477Y11665D01*
G37*
G36*
G01X29083Y11667D02*
G01X29083Y12133D01*
G01X29530Y12133D01*
G01X29530Y11667D01*
G01X29083Y11667D01*
G37*
G36*
G01X28477Y12915D02*
G01X28477Y13381D01*
G01X28923Y13381D01*
G01X28923Y12915D01*
G01X28477Y12915D01*
G37*
G36*
G01X29083Y12917D02*
G01X29083Y13383D01*
G01X29530Y13383D01*
G01X29530Y12917D01*
G01X29083Y12917D01*
G37*
G36*
G01X29083Y14217D02*
G01X29083Y14683D01*
G01X29530Y14683D01*
G01X29530Y14217D01*
G01X29083Y14217D01*
G37*
G36*
G01X28477Y14215D02*
G01X28477Y14681D01*
G01X28923Y14681D01*
G01X28923Y14215D01*
G01X28477Y14215D01*
G37*
G36*
G01X29083Y15517D02*
G01X29083Y15983D01*
G01X29530Y15983D01*
G01X29530Y15517D01*
G01X29083Y15517D01*
G37*
G36*
G01X28477Y15515D02*
G01X28477Y15981D01*
G01X28923Y15981D01*
G01X28923Y15515D01*
G01X28477Y15515D01*
G37*
G36*
G01X30874Y16008D02*
G01X30874Y16954D01*
G01X32332Y16954D01*
G01X32332Y16008D01*
G01X30874Y16008D01*
G37*
G36*
G01X31366Y13646D02*
G01X31366Y14592D01*
G01X31840Y14592D01*
G01X31840Y13646D01*
G01X31366Y13646D01*
G37*
G36*
G01X32271Y13646D02*
G01X32271Y14592D01*
G01X32745Y14592D01*
G01X32745Y13646D01*
G01X32271Y13646D01*
G37*
G36*
G01X30460Y13646D02*
G01X30460Y14592D01*
G01X30934Y14592D01*
G01X30934Y13646D01*
G01X30460Y13646D01*
G37*
M00*
M02*
