;Layer: Drill PTH
;EasyEDA v6.3.21, 2020-02-02T17:40:02+08:00
;1dbfad1c9a864778b0d2112e72029e1b,1a72cfc7dc544dba9386ef7e18e6054e,10
;Gerber Generator version 0.2
M48
INCH,LZ,00.0000
;Holesize 1 = 0.012 INCH
T01C0.012
;Holesize 2 = 0.150 INCH
T02C0.150
%
G05
G90
T01
X+029482Y+005038
X+027862Y+007772
X+026271Y+004190
X+025896Y+003085
X+020981Y+002598
X+020921Y+013996
X+028214Y+007499
X+030616Y+004359
X+029987Y+011900
X+027822Y+015749
X+024882Y+010699
X+026341Y+002467
X+025125Y+004323
X+028930Y+002047
X+026758Y+011064
X+025842Y+013297
X+028008Y+010815
X+026911Y+012623
X+028838Y+011477
X+021316Y+003654
X+003203Y+015900
X+012803Y+015900
X+012803Y+006300
X+003203Y+006300
X+034403Y+011950
X+034403Y+008850
T02
X+033403Y+019200
M30
